<svg id="Accounts" xmlns="http://www.w3.org/2000/svg" width="21.365" height="21.365" viewBox="0 0 21.365 21.365">
  <g id="Group_4015" data-name="Group 4015">
    <path id="Path_97572" data-name="Path 97572" d="M10.683,0A10.683,10.683,0,1,0,21.365,10.683,10.7,10.7,0,0,0,10.683,0Zm0,19.154a8.471,8.471,0,1,1,8.471-8.471A8.482,8.482,0,0,1,10.683,19.154Z" fill="#00665f"/>
    <path id="Path_97573" data-name="Path 97573" d="M170.255,99.508a15.409,15.409,0,0,0-1.607-.724,3.513,3.513,0,0,1-.878-.494.767.767,0,0,1,.19-1.364,1.5,1.5,0,0,1,.539-.11,4.073,4.073,0,0,1,2.026.4c.318.154.424.106.534-.225.115-.353.212-.711.313-1.064a.37.37,0,0,0-.243-.494,4.972,4.972,0,0,0-1.28-.38c-.578-.093-.578-.093-.583-.675,0-.825,0-.825-.825-.821-.119,0-.238,0-.358,0-.384.013-.45.079-.459.464,0,.172,0,.349,0,.521,0,.516,0,.508-.5.684a2.749,2.749,0,0,0-2.009,2.547,2.606,2.606,0,0,0,1.474,2.494,16.472,16.472,0,0,0,1.845.83,2.693,2.693,0,0,1,.671.4.921.921,0,0,1-.221,1.616,2.218,2.218,0,0,1-1.183.155,5.25,5.25,0,0,1-1.8-.539c-.331-.172-.428-.128-.543.234-.1.313-.185.627-.269.94-.115.424-.075.525.331.72a5.914,5.914,0,0,0,1.624.468c.437.071.455.088.459.543,0,.207,0,.415,0,.618a.368.368,0,0,0,.4.415q.457.007.914,0a.352.352,0,0,0,.38-.393c0-.283.013-.565,0-.848a.446.446,0,0,1,.388-.508,3.083,3.083,0,0,0,1.6-1.024A2.894,2.894,0,0,0,170.255,99.508Z" transform="translate(-157.749 -89.426)" fill="#00665f"/>
  </g>
</svg>
