<svg xmlns="http://www.w3.org/2000/svg" xmlns:xlink="http://www.w3.org/1999/xlink" width="24" height="24" viewBox="0 0 24 24">
  <defs>
    <clipPath id="clip-Patient_Management_3">
      <rect width="24" height="24"/>
    </clipPath>
  </defs>
  <g id="Patient_Management_3" data-name="Patient Management – 3" clip-path="url(#clip-Patient_Management_3)">
    <g id="Group_11027" data-name="Group 11027" transform="translate(4.576 6.262)">
      <path id="Path_97808" data-name="Path 97808" d="M3.332,25.708h9.521a3.769,3.769,0,0,0-2.6-2.949l-2.13,1L5.936,22.75A3.671,3.671,0,0,0,3.332,25.708Z" transform="translate(0 -13.38)" fill="#00a99d"/>
      <path id="Path_97809" data-name="Path 97809" d="M8.676,13.112s-3.143-2.051.085-4.406a5.412,5.412,0,0,0,2.9.849,2.528,2.528,0,0,1-.838,3.422s2.212.41,2.494-1.575a3.8,3.8,0,0,0-1.083-2.949L12,8.673a4.009,4.009,0,0,0-4.688-.036L6.9,8.328a4.049,4.049,0,0,0-.929,3.14C6.133,12.36,6.976,13.064,8.676,13.112Z" transform="translate(-1.545 -4.583)" fill="#00a99d"/>
      <path id="Path_97810" data-name="Path 97810" d="M7.681,3.7a3.865,3.865,0,0,1,4.642-.036l1.047-.91a.722.722,0,0,0-.073-.792A3.606,3.606,0,0,0,10,.149a3.738,3.738,0,0,0-2.94,1.375c-.656.865-.537,1.174-.21,1.447S7.681,3.7,7.681,3.7Z" transform="translate(-1.927)" fill="#79bf89"/>
      <path id="Path_97514" data-name="Path 97514" d="M12.969,3.9h.747V3.132h.769V2.386h-.769V1.617h-.747v.769H12.2v.746h.769Z" transform="translate(-5.25 -0.869)" fill="#fff"/>
    </g>
  </g>
</svg>
