<svg id="Batch_Management" data-name="Batch Management" xmlns="http://www.w3.org/2000/svg" width="32.893" height="29.047" viewBox="0 0 32.893 29.047">
  <g id="Group_6304" data-name="Group 6304" transform="translate(0 -0.098)">
    <g id="Group_6303" data-name="Group 6303" transform="translate(0 6.01)">
      <g id="Group_4382" data-name="Group 4382" transform="translate(14.012 4.28)">
        <circle id="Ellipse_167" data-name="Ellipse 167" cx="4.055" cy="4.055" r="4.055" transform="translate(3.324)" fill="#00a99d"/>
        <path id="Subtraction_1" data-name="Subtraction 1" d="M29.308,28.153H14.675a7.316,7.316,0,1,1,14.633,0Z" transform="translate(-14.675 -11.231)" fill="#00a99d"/>
      </g>
      <g id="Group_4381" data-name="Group 4381" transform="translate(0 4.28)">
        <circle id="Ellipse_169-2" data-name="Ellipse 169-2" cx="4.055" cy="4.055" r="4.055" transform="translate(3.198)" fill="#00a99d"/>
        <path id="Subtraction_2-2" data-name="Subtraction 2-2" d="M14.633,28.153H0a7.316,7.316,0,1,1,14.633,0Z" transform="translate(0 -11.231)" fill="#00a99d"/>
      </g>
      <g id="Group_4381-2" data-name="Group 4381" transform="translate(4.843)">
        <circle id="Ellipse_169-2-2" data-name="Ellipse 169-2" cx="5.424" cy="5.424" r="5.424" transform="translate(4.278)" fill="#79bf89" stroke="#fff" stroke-miterlimit="10" stroke-width="1"/>
        <path id="Subtraction_2-2-2" data-name="Subtraction 2-2" d="M24.644,29.537H5.072a9.786,9.786,0,1,1,19.572,0Z" transform="translate(-5.072 -6.902)" fill="#79bf89" stroke="#fff" stroke-miterlimit="10" stroke-width="1"/>
      </g>
    </g>
  </g>
  <path id="Path_98242" data-name="Path 98242" d="M283.59,818.5l1.465,2.969,3.276.476-2.371,2.311.56,3.263-2.93-1.541-2.93,1.541.56-3.263-2.371-2.311,3.276-.476Z" transform="translate(-255.438 -818.494)" fill="#00a99d"/>
</svg>
