<svg xmlns="http://www.w3.org/2000/svg" width="24.106" height="23.704" viewBox="0 0 24.106 23.704">
  <g id="Billing" transform="translate(0 -4)">
    <g id="Group_3878" data-name="Group 3878" transform="translate(0 4)">
      <g id="Group_3877" data-name="Group 3877" transform="translate(0 0)">
        <path id="Path_97419" data-name="Path 97419" d="M22.5,8.821H19.285V5.607A1.607,1.607,0,0,0,17.678,4H3.214A1.607,1.607,0,0,0,1.607,5.607V24.892H.4a.4.4,0,0,0-.4.4v.8A1.607,1.607,0,0,0,1.607,27.7h13.66A1.607,1.607,0,0,0,16.874,26.1V21.678h3.214A1.607,1.607,0,0,0,21.7,20.071V16.455H23.7a.4.4,0,0,0,.4-.4V10.428A1.607,1.607,0,0,0,22.5,8.821ZM1.607,26.9a.8.8,0,0,1-.8-.8v-.4H13.66v.4a1.6,1.6,0,0,0,.216.8ZM16.071,5.607V26.1a.8.8,0,0,1-1.607,0v-.8a.4.4,0,0,0-.4-.4H2.411V5.607a.8.8,0,0,1,.8-.8h13.08A1.591,1.591,0,0,0,16.071,5.607Zm.8,15.267V5.607a.8.8,0,0,1,1.607,0V20.071a1.591,1.591,0,0,0,.223.8Zm4.018-10.446v9.642a.8.8,0,1,1-1.607,0V9.625h1.83A1.591,1.591,0,0,0,20.892,10.428ZM23.3,15.651H21.7V10.428a.8.8,0,1,1,1.607,0Z" transform="translate(0 -4)" fill="#00a99d"/>
      </g>
    </g>
    <g id="Group_3880" data-name="Group 3880" transform="translate(3.757 14.667)">
      <g id="Group_3879" data-name="Group 3879" transform="translate(0 0)">
        <rect id="Rectangle_7230" data-name="Rectangle 7230" width="9" height="1" transform="translate(0.297 0.185)" fill="#00a99d"/>
      </g>
    </g>
    <g id="Group_3882" data-name="Group 3882" transform="translate(6.72 12.889)">
      <g id="Group_3881" data-name="Group 3881" transform="translate(0 0)">
        <rect id="Rectangle_7231" data-name="Rectangle 7231" width="8" height="1" transform="translate(0.334 -0.037)" fill="#00a99d"/>
      </g>
    </g>
    <g id="Group_3884" data-name="Group 3884" transform="translate(8.035 6.411)">
      <g id="Group_3883" data-name="Group 3883">
        <path id="Path_97420" data-name="Path 97420" d="M162.358,54.931a1.143,1.143,0,0,0-.582-.684l-.783-.392a.343.343,0,0,1,.153-.65h.117a.344.344,0,0,1,.343.343v.059h.8v-.059a1.145,1.145,0,0,0-.8-1.088V52h-.8v.46a1.143,1.143,0,0,0-.17,2.114l.783.392a.343.343,0,0,1-.153.65h-.117a.344.344,0,0,1-.343-.343v-.059H160v.059a1.145,1.145,0,0,0,.8,1.088v.46h.8v-.46A1.143,1.143,0,0,0,162.358,54.931Z" transform="translate(-159.999 -52)" fill="#00a99d"/>
      </g>
    </g>
    <g id="Group_3886" data-name="Group 3886" transform="translate(4.942 12.889)">
      <g id="Group_3885" data-name="Group 3885" transform="translate(0 0)">
        <rect id="Rectangle_7232" data-name="Rectangle 7232" height="1" transform="translate(0.111 -0.037)" fill="#00a99d"/>
      </g>
    </g>
    <g id="Group_3888" data-name="Group 3888" transform="translate(3.757 18.815)">
      <g id="Group_3887" data-name="Group 3887" transform="translate(0 0)">
        <rect id="Rectangle_7233" data-name="Rectangle 7233" width="9" height="1" transform="translate(0.297 0.037)" fill="#00a99d"/>
      </g>
    </g>
    <g id="Group_3890" data-name="Group 3890" transform="translate(6.72 17.038)">
      <g id="Group_3889" data-name="Group 3889" transform="translate(0 0)">
        <rect id="Rectangle_7234" data-name="Rectangle 7234" width="8" height="1" transform="translate(0.334 -0.185)" fill="#00a99d"/>
      </g>
    </g>
    <g id="Group_3892" data-name="Group 3892" transform="translate(4.942 17.038)">
      <g id="Group_3891" data-name="Group 3891" transform="translate(0 0)">
        <rect id="Rectangle_7235" data-name="Rectangle 7235" height="1" transform="translate(0.111 -0.185)" fill="#00a99d"/>
      </g>
    </g>
    <g id="Group_3894" data-name="Group 3894" transform="translate(3.757 22.371)">
      <g id="Group_3893" data-name="Group 3893" transform="translate(0 0)">
        <rect id="Rectangle_7236" data-name="Rectangle 7236" width="9" transform="translate(0.297 0.481)" fill="#00a99d"/>
      </g>
    </g>
    <g id="Group_3896" data-name="Group 3896" transform="translate(6.72 20.593)">
      <g id="Group_3895" data-name="Group 3895" transform="translate(0 0)">
        <rect id="Rectangle_7237" data-name="Rectangle 7237" width="8" transform="translate(0.334 0.259)" fill="#00a99d"/>
      </g>
    </g>
    <g id="Group_3898" data-name="Group 3898" transform="translate(4.942 20.593)">
      <g id="Group_3897" data-name="Group 3897" transform="translate(0 0)">
        <rect id="Rectangle_7238" data-name="Rectangle 7238" transform="translate(0.111 0.259)" fill="#00a99d"/>
      </g>
    </g>
  </g>
</svg>
