<svg xmlns="http://www.w3.org/2000/svg" width="14.38" height="19.359" viewBox="0 0 14.38 19.359"><defs><style>.a{fill:#00a99d;}</style></defs><g transform="translate(-65.834)"><g transform="translate(65.834)"><path class="a" d="M78.352,0H67.7a1.864,1.864,0,0,0-1.862,1.862V17.5A1.864,1.864,0,0,0,67.7,19.359H78.352A1.864,1.864,0,0,0,80.214,17.5V1.862A1.864,1.864,0,0,0,78.352,0ZM68.386,3.217a.567.567,0,0,1,.567-.567h8.141a.567.567,0,0,1,.567.567v1.12a.567.567,0,0,1-.567.567H68.954a.567.567,0,0,1-.567-.567ZM70.3,15.953a.567.567,0,0,1-.567.567h-.775a.567.567,0,0,1-.567-.567v-.537a.567.567,0,0,1,.567-.567h.775a.567.567,0,0,1,.567.567Zm0-3.356a.567.567,0,0,1-.567.567h-.775a.567.567,0,0,1-.567-.567v-.537a.567.567,0,0,1,.567-.567h.775a.567.567,0,0,1,.567.567Zm3.729,3.356a.567.567,0,0,1-.567.567h-.775a.567.567,0,0,1-.567-.567v-.537a.567.567,0,0,1,.567-.567h.775a.567.567,0,0,1,.567.567Zm0-3.356a.567.567,0,0,1-.567.567h-.775a.567.567,0,0,1-.567-.567v-.537a.567.567,0,0,1,.567-.567h.775a.567.567,0,0,1,.567.567Zm0-3.356a.567.567,0,0,1-.567.567h-4.5a.567.567,0,0,1-.567-.567V8.7a.567.567,0,0,1,.567-.567h4.5a.567.567,0,0,1,.567.567Zm3.729,6.713a.567.567,0,0,1-.567.567h-.775a.567.567,0,0,1-.567-.567v-.537a.567.567,0,0,1,.567-.567h.775a.567.567,0,0,1,.567.567Zm0-3.356a.567.567,0,0,1-.567.567h-.775a.567.567,0,0,1-.567-.567v-.537a.567.567,0,0,1,.567-.567h.775a.567.567,0,0,1,.567.567Zm0-3.356a.567.567,0,0,1-.567.567h-.775a.567.567,0,0,1-.567-.567V8.7a.567.567,0,0,1,.567-.567h.775a.567.567,0,0,1,.567.567Z" transform="translate(-65.834)"/></g></g></svg>