<svg xmlns="http://www.w3.org/2000/svg" xmlns:xlink="http://www.w3.org/1999/xlink" width="54" height="54" viewBox="0 0 54 54">
  <defs>
    <clipPath id="clip-Employee_Self_Service">
      <rect width="54" height="54"/>
    </clipPath>
  </defs>
  <g id="Employee_Self_Service" data-name="Employee Self Service" clip-path="url(#clip-Employee_Self_Service)">
    <rect width="54" height="54" fill="#fff"/>
    <g id="exam" transform="translate(10.999 8)">
      <path id="Path_99111" data-name="Path 99111" d="M153.1,105.865h-6.274v-2.092a.956.956,0,0,0-.036-.261l-.014-.044c-.008-.022-.016-.044-.025-.065s-.012-.029-.019-.042l-.01-.021a1.069,1.069,0,0,0-.072-.118c-.009-.012-.018-.025-.028-.036a.949.949,0,0,0-.534-.34c-.023-.006-.046-.01-.07-.014a1.046,1.046,0,0,0-.121-.011h-.024a.95.95,0,0,0-.75.365l-.028.037c-.013.019-.026.038-.038.057l-.012.02c-.008.014-.015.027-.022.041l-.01.02c-.007.014-.013.028-.019.042a.954.954,0,0,0-.075.371v2.092h-11.6v-2.092a.956.956,0,0,0-.036-.261q-.006-.023-.014-.044c-.008-.022-.016-.044-.025-.065s-.012-.029-.019-.042l-.01-.021a.953.953,0,0,0-.849-.519h-.025l-.049,0-.024,0-.048.006a.93.93,0,0,0-.16.039l-.044.016a.94.94,0,0,0-.125.06l-.039.023c-.026.017-.051.034-.075.053l-.052.044-.033.032c-.011.011-.021.021-.032.033l-.015.017-.029.035c-.014.018-.028.037-.041.056s-.016.026-.024.038l-.012.02c-.008.013-.015.027-.022.041l-.01.02c-.007.014-.013.028-.019.042a.953.953,0,0,0-.075.371v2.092h-6.275a1.016,1.016,0,0,0-1.016,1.016v31a1.017,1.017,0,0,0,1.016,1.016H153.1a1.017,1.017,0,0,0,1.017-1.016v-31A1.017,1.017,0,0,0,153.1,105.865Zm0,0" transform="translate(-122.861 -100.79)" fill="#e4f4ea" opacity="0.459"/>
      <path id="Path_99112" data-name="Path 99112" d="M153.1,165.418H125.141a1.016,1.016,0,0,1-1.016-1.016V136.446a1.016,1.016,0,0,1,1.016-1.016H153.1a1.016,1.016,0,0,1,1.016,1.016V164.4A1.016,1.016,0,0,1,153.1,165.418Zm0,0" transform="translate(-124.125 -129.335)" fill="#d1d3d4"/>
      <path id="Path_99113" data-name="Path 99113" d="M153.1,157.641H125.141a1.016,1.016,0,0,1-1.016-1.016V128.669a1.017,1.017,0,0,1,1.016-1.017H153.1a1.017,1.017,0,0,1,1.016,1.017v27.955A1.016,1.016,0,0,1,153.1,157.641Zm0,0" transform="translate(-124.125 -122.575)" fill="#fff"/>
      <path id="Path_99114" data-name="Path 99114" d="M153.1,151.809H125.141a1.017,1.017,0,0,1-1.016-1.017V122.837a1.017,1.017,0,0,1,1.016-1.017H153.1a1.017,1.017,0,0,1,1.016,1.017v27.955A1.016,1.016,0,0,1,153.1,151.809Zm0,0" transform="translate(-124.125 -117.505)" fill="#d1d3d4"/>
      <path id="Path_99115" data-name="Path 99115" d="M153.1,142.094H125.141a1.016,1.016,0,0,1-1.016-1.016V113.122a1.016,1.016,0,0,1,1.016-1.016H153.1a1.016,1.016,0,0,1,1.016,1.016v27.955A1.016,1.016,0,0,1,153.1,142.094Zm0,0" transform="translate(-124.125 -109.061)" fill="#fff"/>
      <path id="Path_99116" data-name="Path 99116" d="M124.125,169.441h29.989v.6H124.125Zm0,0" transform="translate(-124.125 -158.9)" fill="#d1d3d4"/>
      <path id="Path_99117" data-name="Path 99117" d="M153.1,112.105H125.141a1.016,1.016,0,0,0-1.016,1.016v6.48h29.989v-6.48A1.017,1.017,0,0,0,153.1,112.105Zm0,0" transform="translate(-124.125 -109.061)" fill="#00a99d"/>
      <path id="Path_99118" data-name="Path 99118" d="M124.125,156.078h29.989v1.747H124.125Zm0,0" transform="translate(-124.125 -147.284)" fill="#b8e2df"/>
      <path id="Path_99119" data-name="Path 99119" d="M178.561,125.291a1.525,1.525,0,1,1-1.525-1.525A1.525,1.525,0,0,1,178.561,125.291Zm0,0" transform="translate(-168.793 -119.196)" fill="#00665f"/>
      <path id="Path_99120" data-name="Path 99120" d="M281.815,125.291a1.525,1.525,0,1,1-1.525-1.525A1.525,1.525,0,0,1,281.815,125.291Zm0,0" transform="translate(-258.546 -119.196)" fill="#00665f"/>
      <path id="Path_99121" data-name="Path 99121" d="M180.836,88.82a.953.953,0,0,0-.953.953V94.9a.953.953,0,0,0,1.906,0V89.773A.953.953,0,0,0,180.836,88.82Zm0,0" transform="translate(-172.592 -88.82)" fill="#e6e7e8"/>
      <path id="Path_99122" data-name="Path 99122" d="M180.836,88.82a.953.953,0,0,0-.953.953v1.562a.953.953,0,0,1,1.906,0V89.773A.953.953,0,0,0,180.836,88.82Zm0,0" transform="translate(-172.592 -88.82)" fill="#fff"/>
      <path id="Path_99123" data-name="Path 99123" d="M180.836,124.6a.953.953,0,0,1-.953-.953v1.525a.953.953,0,0,0,1.906,0v-1.525A.953.953,0,0,1,180.836,124.6Zm0,0" transform="translate(-172.592 -119.091)" fill="#d1d3d4"/>
      <path id="Path_99124" data-name="Path 99124" d="M284.094,88.82a.953.953,0,0,0-.953.953V94.9a.953.953,0,1,0,1.906,0V89.773A.953.953,0,0,0,284.094,88.82Zm0,0" transform="translate(-262.349 -88.82)" fill="#e6e7e8"/>
      <path id="Path_99125" data-name="Path 99125" d="M284.094,88.82a.953.953,0,0,0-.953.953v1.562a.953.953,0,1,1,1.906,0V89.773A.953.953,0,0,0,284.094,88.82Zm0,0" transform="translate(-262.349 -88.82)" fill="#fff"/>
      <path id="Path_99126" data-name="Path 99126" d="M284.094,124.6a.953.953,0,0,1-.953-.953v1.525a.953.953,0,1,0,1.906,0v-1.525A.953.953,0,0,1,284.094,124.6Zm0,0" transform="translate(-262.349 -119.091)" fill="#d1d3d4"/>
      <g id="Group_8869" data-name="Group 8869" transform="translate(2.375 13.019)">
        <path id="Path_99127" data-name="Path 99127" d="M146.911,193.508h-4.128a.5.5,0,0,1-.494-.495v-4.128a.5.5,0,0,1,.494-.495h4.128a.5.5,0,0,1,.495.495v4.128A.5.5,0,0,1,146.911,193.508Zm0,0" transform="translate(-142.289 -188.391)" fill="#e6e7e8"/>
        <path id="Path_99128" data-name="Path 99128" d="M197.517,193.508h-4.128a.5.5,0,0,1-.495-.495v-4.128a.5.5,0,0,1,.495-.495h4.128a.5.5,0,0,1,.495.495v4.128A.5.5,0,0,1,197.517,193.508Zm0,0" transform="translate(-186.278 -188.391)" fill="#e6e7e8"/>
        <path id="Path_99129" data-name="Path 99129" d="M248.126,193.508H244a.5.5,0,0,1-.494-.495v-4.128a.5.5,0,0,1,.494-.495h4.128a.5.5,0,0,1,.495.495v4.128A.5.5,0,0,1,248.126,193.508Zm0,0" transform="translate(-230.27 -188.391)" fill="#e6e7e8"/>
        <path id="Path_99130" data-name="Path 99130" d="M298.732,193.508H294.6a.5.5,0,0,1-.494-.495v-4.128a.5.5,0,0,1,.494-.495h4.128a.5.5,0,0,1,.495.495v4.128A.5.5,0,0,1,298.732,193.508Zm0,0" transform="translate(-274.258 -188.391)" fill="#e6e7e8"/>
        <path id="Path_99131" data-name="Path 99131" d="M146.911,242.7h-4.128a.5.5,0,0,1-.494-.495v-4.128a.5.5,0,0,1,.494-.495h4.128a.5.5,0,0,1,.495.495V242.2A.5.5,0,0,1,146.911,242.7Zm0,0" transform="translate(-142.289 -231.147)" fill="#e6e7e8"/>
        <path id="Path_99132" data-name="Path 99132" d="M197.517,242.7h-4.128a.5.5,0,0,1-.495-.495v-4.128a.5.5,0,0,1,.495-.495h4.128a.5.5,0,0,1,.495.495V242.2A.5.5,0,0,1,197.517,242.7Zm0,0" transform="translate(-186.278 -231.147)" fill="#e6e7e8"/>
        <path id="Path_99133" data-name="Path 99133" d="M298.732,242.7H294.6a.5.5,0,0,1-.494-.495v-4.128a.5.5,0,0,1,.494-.495h4.128a.5.5,0,0,1,.495.495V242.2A.5.5,0,0,1,298.732,242.7Zm0,0" transform="translate(-274.258 -231.147)" fill="#e6e7e8"/>
        <path id="Path_99134" data-name="Path 99134" d="M146.911,291.887h-4.128a.5.5,0,0,1-.494-.495v-4.128a.494.494,0,0,1,.494-.494h4.128a.5.5,0,0,1,.495.494v4.128A.5.5,0,0,1,146.911,291.887Zm0,0" transform="translate(-142.289 -273.906)" fill="#e6e7e8"/>
        <path id="Path_99135" data-name="Path 99135" d="M197.517,291.887h-4.128a.5.5,0,0,1-.495-.495v-4.128a.5.5,0,0,1,.495-.494h4.128a.5.5,0,0,1,.495.494v4.128A.5.5,0,0,1,197.517,291.887Zm0,0" transform="translate(-186.278 -273.906)" fill="#e6e7e8"/>
        <path id="Path_99136" data-name="Path 99136" d="M248.126,291.887H244a.5.5,0,0,1-.494-.495v-4.128a.494.494,0,0,1,.494-.494h4.128a.5.5,0,0,1,.495.494v4.128A.5.5,0,0,1,248.126,291.887Zm0,0" transform="translate(-230.27 -273.906)" fill="#e6e7e8"/>
        <path id="Path_99137" data-name="Path 99137" d="M298.732,291.887H294.6a.5.5,0,0,1-.494-.495v-4.128a.494.494,0,0,1,.494-.494h4.128a.5.5,0,0,1,.495.494v4.128A.5.5,0,0,1,298.732,291.887Zm0,0" transform="translate(-274.258 -273.906)" fill="#e6e7e8"/>
      </g>
      <path id="Path_99138" data-name="Path 99138" d="M229.2,239.125h-9.356A1.121,1.121,0,0,1,218.723,238v-9.355a1.121,1.121,0,0,1,1.121-1.122H229.2a1.121,1.121,0,0,1,1.121,1.122V238A1.121,1.121,0,0,1,229.2,239.125Zm0,0" transform="translate(-206.354 -209.391)" fill="#bcbec0"/>
      <path id="Path_99139" data-name="Path 99139" d="M229.2,230.4h-9.356a1.121,1.121,0,0,1-1.121-1.121v-9.355a1.121,1.121,0,0,1,1.121-1.121H229.2a1.121,1.121,0,0,1,1.121,1.121v9.355A1.121,1.121,0,0,1,229.2,230.4Zm0,0" transform="translate(-206.354 -201.805)" fill="#00665f"/>
      <path id="Path_99140" data-name="Path 99140" d="M229.2,224.4h-9.356a1.121,1.121,0,0,1-1.121-1.121v-9.355a1.121,1.121,0,0,1,1.121-1.121H229.2a1.121,1.121,0,0,1,1.121,1.121v9.355A1.121,1.121,0,0,1,229.2,224.4Zm0,0" transform="translate(-206.354 -196.59)" fill="#00a99d"/>
      <path id="Path_99141" data-name="Path 99141" d="M238.739,236.742a1.167,1.167,0,0,0-1.651,0l-3.2,3.2-1.31-1.309a1.168,1.168,0,0,0-1.651,1.652l2.134,2.134a1.168,1.168,0,0,0,1.651,0l4.025-4.025A1.167,1.167,0,0,0,238.739,236.742Zm0,0" transform="translate(-216.667 -217.103)" fill="#00665f"/>
      <path id="Path_99142" data-name="Path 99142" d="M233.889,235.615a1.165,1.165,0,0,1-.826-.342l-2.134-2.134a1.168,1.168,0,0,1,1.651-1.652l1.31,1.309,3.2-3.2a1.167,1.167,0,1,1,1.651,1.651l-4.025,4.025A1.163,1.163,0,0,1,233.889,235.615Zm0,0" transform="translate(-216.667 -210.893)" fill="#fff"/>
      <path id="Path_99143" data-name="Path 99143" d="M238.752,233.84l-4.025,4.025a1.168,1.168,0,0,1-1.651,0l-2.134-2.134a1.164,1.164,0,0,1-.173-.227,1.164,1.164,0,0,0,.173,1.424l2.134,2.134a1.168,1.168,0,0,0,1.651,0l4.025-4.025a1.166,1.166,0,0,0,.173-1.424A1.191,1.191,0,0,1,238.752,233.84Zm0,0" transform="translate(-216.68 -214.681)" fill="#d1d3d4"/>
    </g>
  </g>
</svg>
