<svg xmlns="http://www.w3.org/2000/svg" width="28" height="29" viewBox="0 0 28 29"><defs><style>.a{fill:#00a99d;}.b{fill:#79bf89;}.c{fill:none;stroke:#fff;}.d{fill:#fff;}</style></defs><g transform="translate(-553 -652)"><path class="a" d="M0,0H28a0,0,0,0,1,0,0V19a2,2,0,0,1-2,2H2a2,2,0,0,1-2-2V0A0,0,0,0,1,0,0Z" transform="translate(553 660)"/><path class="b" d="M0,0H28a0,0,0,0,1,0,0V3a2,2,0,0,1-2,2H2A2,2,0,0,1,0,3V0A0,0,0,0,1,0,0Z" transform="translate(581 659) rotate(180)"/><path class="c" d="M144.169-21302.182l1.48,1.48,2.729-2.729" transform="translate(414 21966)"/><path class="c" d="M144.169-21302.182l1.48,1.48,2.729-2.729" transform="translate(414 21972)"/><path class="c" d="M144.169-21302.182l1.48,1.48,2.729-2.729" transform="translate(414 21978)"/><path class="c" d="M144.169-21302.182l1.48,1.48,2.729-2.729" transform="translate(421 21966)"/><path class="c" d="M144.169-21302.182l1.48,1.48,2.729-2.729" transform="translate(421 21972)"/><path class="c" d="M144.169-21302.182l1.48,1.48,2.729-2.729" transform="translate(428 21966)"/><path class="c" d="M144.169-21302.182l1.48,1.48,2.729-2.729" transform="translate(428 21972)"/><rect class="d" width="3" height="2" transform="translate(566 675)"/><rect class="d" width="3" height="2" transform="translate(573 675)"/><rect class="d" width="3" height="4" rx="1" transform="translate(558 652)"/><rect class="d" width="3" height="4" rx="1" transform="translate(573 652)"/></g></svg>