<svg xmlns="http://www.w3.org/2000/svg" xmlns:xlink="http://www.w3.org/1999/xlink" width="24" height="24" viewBox="0 0 24 24">
  <defs>
    <clipPath id="clip-Patient_Management_7">
      <rect width="24" height="24"/>
    </clipPath>
  </defs>
  <g id="Patient_Management_7" data-name="Patient Management – 7" clip-path="url(#clip-Patient_Management_7)">
    <g id="coins" transform="translate(7.111 7.508)">
      <g id="Group_9909" data-name="Group 9909" transform="translate(0 0)">
        <g id="Group_9908" data-name="Group 9908">
          <path id="Path_99879" data-name="Path 99879" d="M192,86.675c0,.795,1.581,1.211,3.143,1.211s3.143-.416,3.143-1.211C198.286,85.085,192,85.085,192,86.675Z" transform="translate(-187.648 -83.545)" fill="#00a99d"/>
          <path id="Path_99880" data-name="Path 99880" d="M198.169,188.334a.242.242,0,0,0-.237-.007,7.606,7.606,0,0,1-5.578,0,.242.242,0,0,0-.354.215v.073c0,.795,1.581,1.211,3.143,1.211s3.143-.416,3.143-1.211v-.073A.242.242,0,0,0,198.169,188.334Z" transform="translate(-187.648 -184.031)" fill="#00a99d"/>
          <path id="Path_99881" data-name="Path 99881" d="M64,300.38c0,.795,1.581,1.211,3.143,1.211s3.143-.416,3.143-1.211C70.286,298.79,64,298.79,64,300.38Z" transform="translate(-62.549 -292.407)" fill="#79bf89"/>
          <path id="Path_99882" data-name="Path 99882" d="M70.169,402.043a.243.243,0,0,0-.237-.007,7.606,7.606,0,0,1-5.578,0,.242.242,0,0,0-.354.215v.073c0,.795,1.581,1.211,3.143,1.211s3.143-.416,3.143-1.211v-.073A.242.242,0,0,0,70.169,402.043Z" transform="translate(-62.549 -392.897)" fill="#79bf89"/>
          <path id="Path_99883" data-name="Path 99883" d="M3.143,2.4a8.5,8.5,0,0,0,.971-.055.242.242,0,0,0,.138-.064,3.51,3.51,0,0,1,1.809-.736.242.242,0,0,0,.188-.157.581.581,0,0,0,.037-.2C6.286-.4,0-.4,0,1.192,0,1.987,1.581,2.4,3.143,2.4Z" transform="translate(0 0)" fill="#00a99d"/>
          <path id="Path_99884" data-name="Path 99884" d="M3.143,104.342c.2,0,.4-.007.585-.019A.242.242,0,0,0,3.938,104a1.07,1.07,0,0,1-.069-.394.242.242,0,0,0-.075-.175.232.232,0,0,0-.178-.067c-.158.008-.316.013-.473.013a6.278,6.278,0,0,1-2.789-.53.242.242,0,0,0-.354.215v.073C0,103.926,1.581,104.342,3.143,104.342Z" transform="translate(0 -100.486)" fill="#00a99d"/>
          <path id="Path_99885" data-name="Path 99885" d="M3.143,168.454c.2,0,.4-.007.585-.019a.242.242,0,0,0,.211-.326,1.1,1.1,0,0,1-.07-.394.242.242,0,0,0-.075-.175.237.237,0,0,0-.178-.067c-.157.008-.315.013-.472.013a6.278,6.278,0,0,1-2.789-.53A.242.242,0,0,0,0,167.17v.073C0,168.038,1.581,168.454,3.143,168.454Z" transform="translate(0 -163.144)" fill="#00a99d"/>
          <path id="Path_99886" data-name="Path 99886" d="M361.793,316.546a.241.241,0,0,0-.237-.007,5.232,5.232,0,0,1-1.851.482.279.279,0,0,0-.213.29,1.084,1.084,0,0,1-.06.358.242.242,0,0,0,.229.321h.026c1.392-.15,2.224-.585,2.224-1.162v-.073A.242.242,0,0,0,361.793,316.546Z" transform="translate(-351.272 -309.337)" fill="#00a99d"/>
          <path id="Path_99887" data-name="Path 99887" d="M192.243,252.958l.16,0h0a.242.242,0,0,0,.1-.463l-.052-.023c-.034-.015-.069-.03-.1-.047a.242.242,0,0,0-.353.215v.073A.242.242,0,0,0,192.243,252.958Z" transform="translate(-187.649 -246.679)" fill="#00a99d"/>
          <path id="Path_99888" data-name="Path 99888" d="M316.254,252.446a.242.242,0,0,0-.237-.007,6.278,6.278,0,0,1-2.789.53l-.16,0a.248.248,0,0,0-.239.189.242.242,0,0,0,.136.273,2.152,2.152,0,0,1,.636.421.242.242,0,0,0,.171.071h.015c1.192-.076,2.584-.434,2.584-1.193v-.073A.242.242,0,0,0,316.254,252.446Z" transform="translate(-305.733 -246.69)" fill="#00a99d"/>
          <path id="Path_99889" data-name="Path 99889" d="M2.022,232.492a.241.241,0,0,0,.089-.017,5.817,5.817,0,0,1,1.544-.345.293.293,0,0,0,.213-.3.242.242,0,0,0-.253-.242c-.157.008-.315.013-.472.013a6.278,6.278,0,0,1-2.789-.53.242.242,0,0,0-.354.215v.073c0,.535.743.959,1.988,1.133Z" transform="translate(0 -225.804)" fill="#00a99d"/>
        </g>
      </g>
    </g>
  </g>
</svg>
