<svg xmlns="http://www.w3.org/2000/svg" xmlns:xlink="http://www.w3.org/1999/xlink" width="24" height="24" viewBox="0 0 24 24">
  <defs>
    <clipPath id="clip-Client_event">
      <rect width="24" height="24"/>
    </clipPath>
  </defs>
  <g id="Client_event" data-name="Client event" clip-path="url(#clip-Client_event)">
    <g id="user" transform="translate(4 7)">
      <g id="Group_9681" data-name="Group 9681" transform="translate(1 -2)">
        <path id="Path_99846" data-name="Path 99846" d="M11.345,7.206h.61a1.034,1.034,0,1,0,0-.41h-.61a4.332,4.332,0,0,0-1.129-2.72l1.1-1.1a1.312,1.312,0,1,0-.29-.29l-1.1,1.1a4.332,4.332,0,0,0-2.72-1.129v-.61a1.034,1.034,0,1,0-.41,0v.61a4.332,4.332,0,0,0-2.72,1.129l-1.1-1.1A1.309,1.309,0,0,0,2.65.831a.205.205,0,0,0-.229.34.9.9,0,1,1-.749-.12A.205.205,0,0,0,1.56.657a1.31,1.31,0,1,0,1.127,2.32l1.1,1.1A4.332,4.332,0,0,0,2.657,6.8h-.61a1.034,1.034,0,1,0,0,.41h.61a4.332,4.332,0,0,0,1.129,2.72l-1.1,1.1a1.312,1.312,0,1,0,.29.29l1.1-1.1A4.332,4.332,0,0,0,6.8,11.345v.61a1.034,1.034,0,1,0,.41,0v-.61a4.332,4.332,0,0,0,2.72-1.129l1.1,1.1a1.309,1.309,0,1,0,2.3.354.205.205,0,1,0-.389.13.9.9,0,1,1-.525-.552.205.205,0,1,0,.15-.382,1.309,1.309,0,0,0-1.249.16l-1.1-1.1a4.333,4.333,0,0,0,1.129-2.72Zm1.623-.829A.624.624,0,1,1,12.344,7,.624.624,0,0,1,12.968,6.377Zm-.884-5.359a.9.9,0,1,1-.9.9.9.9,0,0,1,.9-.9Zm-5.707.016A.624.624,0,1,1,7,1.658a.624.624,0,0,1-.624-.624ZM1.034,7.625A.624.624,0,1,1,1.658,7,.624.624,0,0,1,1.034,7.625ZM7,3.062A3.939,3.939,0,1,1,3.062,7,3.943,3.943,0,0,1,7,3.062ZM1.918,12.984a.9.9,0,1,1,.9-.9A.9.9,0,0,1,1.918,12.984Zm5.707-.016A.624.624,0,1,1,7,12.344.624.624,0,0,1,7.625,12.968Z" fill="#00a99d"/>
        <path id="Path_99847" data-name="Path 99847" d="M163.857,152.977H165.7a.205.205,0,0,0,0-.41h-.477v-.347a.205.205,0,0,0-.41,0v.347h-.75v-1.01a.9.9,0,0,1,.9-.9h2.431a.9.9,0,0,1,.9.9v1.01h-.75v-.347a.205.205,0,0,0-.41,0v.347h-.477a.205.205,0,0,0,0,.41H168.5a.205.205,0,0,0,.205-.205v-1.215a1.312,1.312,0,0,0-1.31-1.31h-.152a1.586,1.586,0,1,0-2.127,0h-.152a1.312,1.312,0,0,0-1.31,1.31v1.215A.205.205,0,0,0,163.857,152.977ZM165,149.07a1.176,1.176,0,1,1,1.176,1.176A1.178,1.178,0,0,1,165,149.07Z" transform="translate(-159.177 -143.451)" fill="#00a99d"/>
      </g>
    </g>
  </g>
</svg>
