<svg width="22" height="22" viewBox="0 0 22 22" fill="none" xmlns="http://www.w3.org/2000/svg">
<path d="M1.8335 8.24967C1.8335 6.68596 1.8335 5.9041 2.24679 5.36548C2.35319 5.22682 2.47731 5.1027 2.61597 4.9963C3.15459 4.58301 3.93645 4.58301 5.50016 4.58301H16.5002C18.0639 4.58301 18.8457 4.58301 19.3844 4.9963C19.523 5.1027 19.6471 5.22682 19.7535 5.36548C20.1668 5.9041 20.1668 6.68596 20.1668 8.24967C20.1668 8.6406 20.1668 8.83607 20.0635 8.97072C20.0369 9.00539 20.0059 9.03642 19.9712 9.06302C19.8366 9.16634 19.6411 9.16634 19.2502 9.16634H2.75016C2.35923 9.16634 2.16377 9.16634 2.02912 9.06302C1.99445 9.03642 1.96342 9.00539 1.93682 8.97072C1.8335 8.83607 1.8335 8.6406 1.8335 8.24967Z" fill="#6E6D7A"/>
<path d="M1.8335 16.167C1.8335 18.0526 1.8335 18.9954 2.41928 19.5812C3.00507 20.167 3.94788 20.167 5.8335 20.167H16.1668C18.0524 20.167 18.9953 20.167 19.581 19.5812C20.1668 18.9954 20.1668 18.0526 20.1668 16.167V12.0003C20.1668 11.5289 20.1668 11.2932 20.0204 11.1468C19.8739 11.0003 19.6382 11.0003 19.1668 11.0003H2.8335C2.36209 11.0003 2.12639 11.0003 1.97994 11.1468C1.8335 11.2932 1.8335 11.5289 1.8335 12.0003V16.167Z" fill="#6E6D7A"/>
<path d="M6.4165 2.75L6.4165 5.5" stroke="#6E6D7A" stroke-width="2" stroke-linecap="round"/>
<path d="M15.5835 2.75L15.5835 5.5" stroke="#6E6D7A" stroke-width="2" stroke-linecap="round"/>
</svg>
