<svg id="Layer_1" data-name="Layer 1" xmlns="http://www.w3.org/2000/svg" viewBox="0 0 381.6 80.64"><defs><style>.cls-1{fill:#227dc6;}</style></defs><polygon class="cls-1" points="11.3 69.69 24.52 69.69 24.52 45.56 45.6 45.56 45.6 33.3 24.52 33.3 24.52 23.38 49.47 23.38 49.47 10.95 11.3 10.95 11.3 69.69"/><polygon class="cls-1" points="73.12 10.95 59.91 10.95 59.91 69.69 97.05 69.69 97.05 57.27 73.12 57.27 73.12 10.95"/><polygon class="cls-1" points="105.82 69.69 144.31 69.69 144.31 57.27 119.03 57.27 119.03 45.33 140.51 45.33 140.51 33.06 119.03 33.06 119.03 23.18 144.31 23.18 144.31 10.95 105.82 10.95 105.82 69.69"/><polygon class="cls-1" points="189.43 44.72 171.96 10.95 156.2 10.95 156.2 69.69 169.18 69.69 169.18 32.91 188.23 69.69 202.4 69.69 202.4 10.95 189.43 10.95 189.43 44.72"/><path class="cls-1" d="M254.16,17.49h0a20.87,20.87,0,0,0-9.06-5.08,44.78,44.78,0,0,0-12-1.46H215.92V69.69h17.31A47.65,47.65,0,0,0,245,68.38a20.42,20.42,0,0,0,9-4.83,21.27,21.27,0,0,0,5.5-9.26,47.72,47.72,0,0,0,1.75-14,46.35,46.35,0,0,0-1.71-13.54A21.76,21.76,0,0,0,254.16,17.49Zm-6.52,22.75a40.17,40.17,0,0,1-.78,8.67,10.66,10.66,0,0,1-2.37,5,9.12,9.12,0,0,1-4.41,2.55,29.39,29.39,0,0,1-7.76.86h-3.18V23.38h3.18a31.49,31.49,0,0,1,7.72.8,8.83,8.83,0,0,1,4.38,2.46,10.6,10.6,0,0,1,2.4,4.89A38,38,0,0,1,247.64,40.24Z"/><polygon class="cls-1" points="272.79 69.69 311.28 69.69 311.28 57.27 286 57.27 286 45.33 307.48 45.33 307.48 33.06 286 33.06 286 23.18 311.28 23.18 311.28 10.95 272.79 10.95 272.79 69.69"/><path class="cls-1" d="M355.05,46.12a18.45,18.45,0,0,0,2.35-1,13.53,13.53,0,0,0,4.25-3.59,16.26,16.26,0,0,0,2.71-5.41,24.94,24.94,0,0,0,.94-7.26,21.78,21.78,0,0,0-1.37-8.13,13.49,13.49,0,0,0-4.32-5.74,17.82,17.82,0,0,0-6.92-3.09,40.75,40.75,0,0,0-9.05-.9H323.17V69.69h13.22V48.13h4.54l13.92,21.56H370.3Zm-3.2-16.83a12.28,12.28,0,0,1-.43,3.52,3.49,3.49,0,0,1-1.12,1.74,6,6,0,0,1-2.48,1.07h0a23,23,0,0,1-4.77.41h-6.66V23h7.17a21.78,21.78,0,0,1,4.26.36,5.81,5.81,0,0,1,2.38,1A3.52,3.52,0,0,1,351.38,26,9.66,9.66,0,0,1,351.85,29.29Z"/></svg>