<svg width="21" height="22" viewBox="0 0 21 22" fill="none" xmlns="http://www.w3.org/2000/svg">
<path d="M8.66667 0H1.33333C0.596954 0 0 0.612663 0 1.36842V11.6316C0 12.3873 0.596954 13 1.33333 13H8.66667C9.40305 13 10 12.3873 10 11.6316V1.36842C10 0.612663 9.40305 0 8.66667 0Z" fill="#FF6B97"/>
<path d="M19.8 9H13.2C12.5373 9 12 9.61266 12 10.3684V20.6316C12 21.3873 12.5373 22 13.2 22H19.8C20.4627 22 21 21.3873 21 20.6316V10.3684C21 9.61266 20.4627 9 19.8 9Z" fill="#FF6B97"/>
<path d="M21 5.83333V1.16667C21 0.522334 20.4627 0 19.8 0L13.2 0C12.5373 0 12 0.522334 12 1.16667V5.83333C12 6.47767 12.5373 7 13.2 7L19.8 7C20.4627 7 21 6.47767 21 5.83333Z" fill="#D9113D"/>
<path d="M10 20.8333V16.1667C10 15.5223 9.40305 15 8.66667 15H1.33333C0.596953 15 0 15.5223 0 16.1667V20.8333C0 21.4777 0.596953 22 1.33333 22H8.66667C9.40305 22 10 21.4777 10 20.8333Z" fill="#D9113D"/>
</svg>
