<svg width="19" height="17" viewBox="0 0 19 17" fill="none" xmlns="http://www.w3.org/2000/svg">
<path d="M18.81 4.54015V6.84015H3.49316e-09V4.54015C-9.32905e-06 4.44606 0.0186815 4.35291 0.054986 4.26611C0.0912905 4.17931 0.144485 4.1006 0.211477 4.03453C0.27847 3.96847 0.357924 3.91638 0.445223 3.8813C0.532522 3.84621 0.625924 3.82882 0.72 3.83015H18.09C18.1841 3.82882 18.2775 3.84621 18.3648 3.8813C18.4521 3.91638 18.5315 3.96847 18.5985 4.03453C18.6655 4.1006 18.7187 4.17931 18.755 4.26611C18.7913 4.35291 18.81 4.44606 18.81 4.54015Z" fill="#D9113D"/>
<path d="M10.9506 0.0003092H7.95059C7.26447 0.0002889 6.60617 0.27147 6.11914 0.754748C5.63212 1.23802 5.35586 1.89422 5.35059 2.58031V3.83031H6.35059V2.58031C6.35306 2.15393 6.5215 1.74528 6.82018 1.44099C7.11887 1.1367 7.52433 0.960702 7.95059 0.95031H10.9506C11.3829 0.95031 11.7975 1.12204 12.1032 1.42773C12.4089 1.73341 12.5806 2.14801 12.5806 2.58031V3.83031H13.5806V2.58031C13.5793 2.23764 13.51 1.89862 13.3768 1.58291C13.2435 1.26721 13.049 0.981075 12.8044 0.741103C12.5597 0.501132 12.2699 0.312088 11.9517 0.184927C11.6335 0.0577661 11.2932 -0.00498549 10.9506 0.0003092Z" fill="#D9113D"/>
<path d="M18.8103 8.06055V15.8505C18.8116 15.9455 18.7939 16.0397 18.7582 16.1277C18.7225 16.2156 18.6695 16.2955 18.6024 16.3627C18.5353 16.4298 18.4554 16.4828 18.3674 16.5185C18.2794 16.5542 18.1852 16.5719 18.0903 16.5705H0.720295C0.624992 16.5733 0.530129 16.5566 0.441525 16.5214C0.352921 16.4862 0.272442 16.4332 0.205025 16.3658C0.137608 16.2984 0.0846736 16.2179 0.0494686 16.1293C0.0142635 16.0407 -0.00246987 15.9458 0.000294268 15.8505V8.06055H18.8103Z" fill="#D9113D"/>
<path d="M11.0607 12.64H7.75066C7.66659 12.6375 7.58665 12.603 7.52717 12.5435C7.4677 12.484 7.43318 12.4041 7.43066 12.32C7.43066 12.2351 7.46438 12.1537 7.52439 12.0937C7.5844 12.0337 7.66579 12 7.75066 12H11.0607C11.1455 12 11.2269 12.0337 11.2869 12.0937C11.347 12.1537 11.3807 12.2351 11.3807 12.32C11.3807 12.4049 11.347 12.4863 11.2869 12.5463C11.2269 12.6063 11.1455 12.64 11.0607 12.64Z" fill="white"/>
<path d="M9.40984 14.2898C9.32497 14.2898 9.24358 14.2561 9.18357 14.1961C9.12356 14.1361 9.08984 14.0547 9.08984 13.9698V10.6598C9.08984 10.6178 9.09812 10.5762 9.1142 10.5374C9.13028 10.4986 9.15386 10.4633 9.18357 10.4336C9.21329 10.4039 9.24856 10.3803 9.28739 10.3642C9.32621 10.3481 9.36782 10.3398 9.40984 10.3398C9.49392 10.3424 9.57386 10.3769 9.63334 10.4363C9.69281 10.4958 9.72733 10.5758 9.72985 10.6598V13.9698C9.72985 14.0547 9.69613 14.1361 9.63612 14.1961C9.57611 14.2561 9.49471 14.2898 9.40984 14.2898Z" fill="white"/>
</svg>
