<svg width="15" height="15" viewBox="0 0 15 15" fill="none" xmlns="http://www.w3.org/2000/svg">
<path d="M7.58022 14.2201C7.28923 14.2203 7.00684 14.1214 6.77961 13.9396C6.55238 13.7578 6.39388 13.504 6.33022 13.2201L6.18022 12.5501L6.00022 12.4801L5.51022 12.9401C5.27356 13.1667 4.95791 13.2923 4.63022 13.2901C4.33033 13.2884 4.04037 13.1824 3.81022 12.9901L2.92022 12.2401C2.67426 12.0413 2.51129 11.7579 2.46321 11.4454C2.41512 11.1328 2.48537 10.8136 2.66022 10.5501L3.00022 10.0001C2.96301 9.93886 2.92961 9.87541 2.90022 9.81008H2.22022C1.903 9.79565 1.60248 9.66383 1.37701 9.44021C1.15155 9.2166 1.01726 8.91717 1.00022 8.60008L0.890223 7.43008C0.858759 7.11862 0.943433 6.80652 1.12799 6.55367C1.31255 6.30082 1.584 6.12504 1.89022 6.06008L2.55022 5.91008L2.61022 5.71008L2.15022 5.21008C1.9454 4.97231 1.83273 4.66891 1.83273 4.35508C1.83273 4.04125 1.9454 3.73785 2.15022 3.50008L2.90022 2.61008C3.09725 2.36484 3.37889 2.20218 3.68977 2.15407C4.00065 2.10595 4.31828 2.17587 4.58022 2.35008L5.14022 2.72008L5.32022 2.62008V1.93008C5.33104 1.61644 5.45582 1.31751 5.67119 1.08926C5.88656 0.861002 6.17775 0.719084 6.49022 0.690078L7.67022 0.580078H7.76022C8.05227 0.58312 8.33449 0.685942 8.56004 0.871478C8.78559 1.05701 8.94092 1.31411 9.00022 1.60008L9.15022 2.26008L9.35022 2.33008L9.84022 1.86008C10.0744 1.63582 10.386 1.51046 10.7102 1.51008C11.0151 1.51043 11.3097 1.62046 11.5402 1.82008L12.4302 2.56008C12.6701 2.76113 12.828 3.04308 12.874 3.35264C12.9201 3.6622 12.8511 3.9779 12.6802 4.24008L12.3202 4.82008C12.3595 4.88012 12.3929 4.94374 12.4202 5.01008H13.5802V5.11008C13.7809 5.19794 13.9554 5.3362 14.0868 5.51142C14.2182 5.68664 14.3021 5.89287 14.3302 6.11008L14.4402 7.28008C14.4717 7.59153 14.387 7.90364 14.2025 8.15649C14.0179 8.40933 13.7464 8.58511 13.4402 8.65008L12.7902 8.80008C12.7902 8.87008 12.7402 8.94008 12.7202 9.00008L13.1902 9.50008C13.4021 9.7318 13.5237 10.0319 13.5329 10.3458C13.5421 10.6597 13.4382 10.9664 13.2402 11.2101L12.5002 12.1001C12.3807 12.2498 12.2284 12.3701 12.055 12.4516C11.8816 12.5331 11.6918 12.5736 11.5002 12.5701C11.2545 12.57 11.0143 12.4969 10.8102 12.3601L10.2402 12.0001L10.0602 12.0901V12.7801C10.0518 13.0928 9.92916 13.3916 9.71543 13.6201C9.50171 13.8486 9.21171 13.9909 8.90022 14.0201L7.72022 14.1301L7.58022 14.2201ZM7.30022 5.57008C6.75918 5.59527 6.25031 5.83437 5.88555 6.23476C5.52079 6.63515 5.33003 7.16404 5.35522 7.70508C5.38042 8.24612 5.61951 8.75499 6.0199 9.11975C6.42029 9.48451 6.94918 9.67527 7.49022 9.65008H7.68022C8.22126 9.62488 8.73014 9.38579 9.0949 8.9854C9.45965 8.58501 9.65042 8.05612 9.62522 7.51508C9.60003 6.97404 9.36094 6.46516 8.96055 6.10041C8.56016 5.73565 8.03126 5.54488 7.49022 5.57008H7.30022Z" fill="#FF6B97"/>
<path d="M7.7298 1.08031C7.90879 1.07921 8.08258 1.1405 8.22128 1.25365C8.35998 1.3668 8.45493 1.52474 8.4898 1.70031L8.7098 2.70031C8.95765 2.76182 9.20145 2.83864 9.4398 2.93031L10.1598 2.26031C10.2256 2.18292 10.3066 2.1199 10.3977 2.07517C10.4889 2.03044 10.5883 2.00496 10.6898 2.00031C10.8745 1.99811 11.0532 2.066 11.1898 2.19031L12.0798 2.93031C12.2211 3.05069 12.3148 3.21752 12.3442 3.40082C12.3735 3.58411 12.3365 3.77185 12.2398 3.93031L11.7098 4.77031C11.8467 4.98933 11.9703 5.21641 12.0798 5.45031H13.0798C13.2706 5.45469 13.4529 5.52975 13.5915 5.66093C13.7301 5.79211 13.815 5.97007 13.8298 6.16031L13.9398 7.33031C13.9563 7.51916 13.9036 7.70757 13.7913 7.86032C13.679 8.01308 13.515 8.11972 13.3298 8.16031L12.3298 8.38031C12.2683 8.63144 12.1915 8.87857 12.0998 9.12031L12.7698 9.85031C12.887 9.99059 12.9511 10.1675 12.9511 10.3503C12.9511 10.5331 12.887 10.71 12.7698 10.8503L12.0298 11.7503C11.958 11.8374 11.8679 11.9076 11.766 11.956C11.664 12.0043 11.5527 12.0297 11.4398 12.0303C11.2865 12.0319 11.1365 11.9866 11.0098 11.9003L10.1798 11.3703C9.96523 11.5119 9.7375 11.6324 9.4998 11.7303V12.7303C9.49788 12.9228 9.42392 13.1076 9.2925 13.2483C9.16108 13.389 8.98173 13.4753 8.7898 13.4903L7.6298 13.6003H7.5598C7.3813 13.5995 7.20847 13.5375 7.07015 13.4247C6.93184 13.3119 6.83641 13.155 6.7998 12.9803L6.5898 11.9803C6.33741 11.9234 6.08996 11.8465 5.8498 11.7503L5.1298 12.4303C4.98952 12.5475 4.81256 12.6116 4.6298 12.6116C4.44703 12.6116 4.27007 12.5475 4.1298 12.4303L3.2398 11.6803C3.10021 11.5588 3.00773 11.3921 2.97849 11.2093C2.94924 11.0266 2.9851 10.8393 3.0798 10.6803L3.5998 9.85031C3.46792 9.62671 3.34776 9.3964 3.2398 9.16031H2.2398C2.04774 9.15164 1.86524 9.07411 1.72567 8.94189C1.58611 8.80967 1.49883 8.63162 1.4798 8.44031L1.3798 7.27031C1.38772 7.09825 1.4531 6.9338 1.5655 6.80328C1.6779 6.67275 1.83081 6.58369 1.9998 6.55031L2.9998 6.33031C3.05669 6.07793 3.1336 5.83048 3.2298 5.59031L2.5598 4.87031C2.44264 4.73004 2.37846 4.55308 2.37846 4.37031C2.37846 4.18755 2.44264 4.01059 2.5598 3.87031L3.2998 2.98031C3.3717 2.89012 3.46295 2.81724 3.5668 2.76704C3.67065 2.71685 3.78445 2.69062 3.8998 2.69031C4.04993 2.6888 4.19677 2.73425 4.3198 2.82031L5.1498 3.35031C5.36676 3.21282 5.59412 3.09245 5.8298 2.99031V1.99031C5.83814 1.7998 5.91426 1.61854 6.04444 1.47919C6.17462 1.33985 6.35029 1.25158 6.5398 1.23031L7.6998 1.12031H7.7698L7.7298 1.08031ZM7.5298 10.1903H7.7598C8.09238 10.1531 8.41433 10.0505 8.70713 9.88839C8.99993 9.72632 9.25782 9.50798 9.46598 9.24593C9.67413 8.98388 9.82845 8.68327 9.92006 8.36139C10.0117 8.03951 10.0388 7.7027 9.9998 7.37031C9.94492 6.74158 9.65704 6.15606 9.19265 5.72868C8.72827 5.3013 8.12091 5.06291 7.4898 5.06031H7.2498C6.61136 5.13872 6.02615 5.45551 5.61143 5.94719C5.1967 6.43887 4.98312 7.06912 5.01347 7.71163C5.04383 8.35415 5.31588 8.96145 5.77511 9.41185C6.23434 9.86224 6.84681 10.1224 7.4898 10.1403L7.5298 10.1903ZM7.7298 0.0703125H7.5698L6.4098 0.170312C5.97289 0.212197 5.56687 0.414024 5.26971 0.737028C4.97254 1.06003 4.80519 1.48144 4.7998 1.92031C4.505 1.72143 4.15526 1.62001 3.7998 1.63031C3.53662 1.6309 3.27693 1.69049 3.03984 1.80471C2.80274 1.91893 2.59428 2.08487 2.4298 2.29031L1.6898 3.17031C1.41036 3.5059 1.26324 3.93206 1.27613 4.36856C1.28902 4.80507 1.46104 5.2218 1.7598 5.54031C1.3357 5.63563 0.960773 5.88201 0.704998 6.23347C0.449223 6.58493 0.330077 7.01745 0.369797 7.45031L0.479796 8.62031C0.52083 9.05318 0.718016 9.45631 1.03453 9.75442C1.35105 10.0525 1.76525 10.2252 2.1998 10.2403C1.96184 10.6098 1.869 11.0543 1.93916 11.4882C2.00932 11.9221 2.23751 12.3146 2.5798 12.5903L3.4598 13.3203C3.79189 13.6032 4.21722 13.7527 4.65328 13.7397C5.08934 13.7268 5.50505 13.5524 5.8198 13.2503C5.90985 13.6455 6.13064 13.9987 6.44643 14.2528C6.76221 14.5069 7.1545 14.6469 7.5598 14.6503H7.7298L8.8898 14.5403C9.32252 14.4968 9.72459 14.2971 10.0209 13.9788C10.3172 13.6604 10.4874 13.245 10.4998 12.8103C10.7954 13.0074 11.1446 13.1086 11.4998 13.1003C11.7619 13.0995 12.0206 13.0409 12.2575 12.9285C12.4943 12.8161 12.7034 12.6528 12.8698 12.4503L13.5998 11.5503C13.8806 11.2173 14.0287 10.7924 14.0158 10.3569C14.0029 9.92151 13.8298 9.50613 13.5298 9.19031C13.952 9.09519 14.3255 8.85029 14.5811 8.50097C14.8366 8.15164 14.957 7.72154 14.9198 7.29031L14.8098 6.12031C14.7878 5.86802 14.7121 5.62333 14.588 5.4026C14.4638 5.18186 14.294 4.99017 14.0898 4.84031V4.57031H13.0898C13.3232 4.20372 13.4144 3.76441 13.3462 3.33521C13.2781 2.90601 13.0553 2.51657 12.7198 2.24031L11.8398 1.50031C11.5293 1.20043 11.1209 1.02286 10.6898 1.00031C10.2349 0.998873 9.79732 1.17462 9.4698 1.49031C9.38307 1.09343 9.16319 0.73815 8.84667 0.483481C8.53016 0.228813 8.13605 0.0900763 7.7298 0.0903125V0.0703125ZM7.4898 9.14031C7.28756 9.14951 7.0855 9.11877 6.89514 9.04988C6.70478 8.98098 6.52985 8.87526 6.38035 8.73875C6.07842 8.46308 5.89836 8.07875 5.8798 7.67031C5.86123 7.26188 6.00568 6.8628 6.28136 6.56087C6.55703 6.25893 6.94136 6.07888 7.3498 6.06031H7.4898C7.87124 6.06163 8.23825 6.20632 8.51798 6.46567C8.7977 6.72501 8.96968 7.08005 8.9998 7.46031C9.02054 7.66065 9.00152 7.8631 8.94384 8.05607C8.88615 8.24904 8.79094 8.42871 8.66366 8.5848C8.53637 8.74088 8.37953 8.8703 8.20211 8.96563C8.0247 9.06096 7.8302 9.12032 7.6298 9.14031H7.4898Z" fill="white"/>
</svg>
