<svg width="1" height="5" viewBox="0 0 1 5" fill="none" xmlns="http://www.w3.org/2000/svg">
<path d="M0.459648 4.2293C0.374779 4.2293 0.293387 4.19558 0.233376 4.13557C0.173364 4.07556 0.139648 3.99417 0.139648 3.9093V0.599297C0.139648 0.557274 0.147926 0.515661 0.164007 0.476837C0.180089 0.438013 0.203661 0.402737 0.233376 0.373022C0.26309 0.343307 0.298366 0.319737 0.337191 0.303656C0.376015 0.287574 0.417625 0.279297 0.459648 0.279297C0.543722 0.281808 0.623666 0.316327 0.683142 0.375803C0.742618 0.435279 0.777138 0.515222 0.77965 0.599297V3.9093C0.77965 3.99417 0.745934 4.07556 0.685923 4.13557C0.625911 4.19558 0.544517 4.2293 0.459648 4.2293Z" fill="white"/>
</svg>
