<svg width="15" height="13" viewBox="0 0 15 13" fill="none" xmlns="http://www.w3.org/2000/svg">
<path d="M2.30008 10.0907H1.58008C1.3233 10.091 1.07624 9.99256 0.890078 9.8157C0.703915 9.63885 0.592917 9.39716 0.580078 9.1407V1.1407C0.580078 0.875484 0.685435 0.62113 0.872971 0.433594C1.06051 0.246058 1.31486 0.140701 1.58008 0.140701H13.0801C13.2096 0.139058 13.338 0.164192 13.4573 0.214526C13.5767 0.26486 13.6843 0.339308 13.7735 0.433201C13.8627 0.527093 13.9315 0.638404 13.9757 0.760152C14.0198 0.8819 14.0384 1.01146 14.0301 1.1407V9.1407C14.0314 9.26583 14.0078 9.38996 13.9605 9.50583C13.9132 9.62169 13.8433 9.72695 13.7548 9.81544C13.6663 9.90392 13.5611 9.97384 13.4452 10.0211C13.3293 10.0684 13.2052 10.092 13.0801 10.0907H5.47008L2.30008 12.7507V10.0907Z" fill="#FF6B97"/>
</svg>
