<svg width="9" height="5" viewBox="0 0 9 5" fill="none" xmlns="http://www.w3.org/2000/svg">
<path d="M6.00039 0.939762H3.00039C2.31428 0.939742 1.65597 1.21092 1.16895 1.6942C0.681924 2.17748 0.405668 2.83367 0.400391 3.51976V4.76976H1.40039V3.51976C1.40286 3.09338 1.5713 2.68473 1.86999 2.38044C2.16868 2.07615 2.57413 1.90016 3.00039 1.88976H6.00039C6.43269 1.88976 6.84729 2.06149 7.15298 2.36718C7.45866 2.67286 7.63039 3.08746 7.63039 3.51976V4.76976H8.63039V3.51976C8.62911 3.17709 8.55984 2.83808 8.42659 2.52237C8.29335 2.20666 8.09878 1.92053 7.85416 1.68056C7.60953 1.44058 7.31972 1.25154 7.00151 1.12438C6.68331 0.997219 6.34303 0.934468 6.00039 0.939762Z" fill="#D9113D"/>
</svg>
