<svg width="24" height="21" viewBox="0 0 24 21" fill="none" xmlns="http://www.w3.org/2000/svg">
<path d="M11.0897 1.09039C11.1866 0.924402 11.3253 0.786693 11.492 0.690988C11.6586 0.595282 11.8475 0.544922 12.0397 0.544922C12.2319 0.544922 12.4208 0.595282 12.5874 0.690988C12.7541 0.786693 12.8928 0.924402 12.9897 1.09039L18.0797 9.91039L23.1697 18.7304C23.2659 18.9009 23.315 19.0939 23.3117 19.2897C23.3084 19.4854 23.2529 19.6767 23.151 19.8439C23.0491 20.011 22.9044 20.1479 22.7319 20.2405C22.5594 20.333 22.3653 20.3779 22.1697 20.3704H1.8597C1.66712 20.372 1.47756 20.3225 1.31031 20.227C1.14306 20.1315 1.00409 19.9934 0.907559 19.8268C0.811025 19.6601 0.760368 19.4709 0.760744 19.2783C0.76112 19.0857 0.812516 18.8967 0.909701 18.7304L5.9997 9.91039L11.0897 1.09039Z" fill="#D9113D"/>
</svg>
