<svg width="15" height="15" viewBox="0 0 15 15" fill="none" xmlns="http://www.w3.org/2000/svg">
<path d="M13.0795 1.71945C13.1962 1.71945 13.3081 1.76581 13.3906 1.84833C13.4732 1.93084 13.5195 2.04276 13.5195 2.15945V10.1595C13.5195 10.2168 13.5081 10.2735 13.4859 10.3263C13.4636 10.3792 13.4311 10.427 13.3901 10.4671C13.3491 10.5072 13.3005 10.5386 13.2471 10.5596C13.1938 10.5806 13.1368 10.5908 13.0795 10.5895H5.28952L4.99952 10.8195L2.81951 12.6395V10.5695H1.57951C1.52185 10.5722 1.46423 10.5631 1.41026 10.5426C1.35629 10.5221 1.30712 10.4907 1.26583 10.4503C1.22454 10.41 1.19201 10.3615 1.17028 10.308C1.14855 10.2546 1.13807 10.1972 1.13951 10.1395V2.13945C1.13951 2.02276 1.18587 1.91084 1.26839 1.82833C1.3509 1.74581 1.46282 1.69945 1.57951 1.69945H13.0795V1.71945ZM13.0795 0.699453H1.57951C1.38695 0.698134 1.19602 0.734925 1.01773 0.807706C0.839434 0.880487 0.677303 0.987821 0.540668 1.12353C0.404034 1.25923 0.295596 1.42063 0.2216 1.59842C0.147603 1.77621 0.10951 1.96688 0.109515 2.15945V10.1595C0.106823 10.3532 0.143007 10.5456 0.215928 10.7252C0.28885 10.9047 0.397028 11.0679 0.53407 11.2049C0.671112 11.3419 0.834236 11.4501 1.0138 11.523C1.19337 11.596 1.38573 11.6321 1.57951 11.6295H1.77951V14.8795L5.65951 11.6295H13.0795C13.4694 11.6295 13.8433 11.4746 14.119 11.1989C14.3946 10.9232 14.5495 10.5493 14.5495 10.1595V2.15945C14.5495 1.76958 14.3946 1.39568 14.119 1.12001C13.8433 0.844328 13.4694 0.689453 13.0795 0.689453V0.699453Z" fill="white"/>
</svg>
