<svg width="2" height="9" viewBox="0 0 2 9" fill="none" xmlns="http://www.w3.org/2000/svg">
<path d="M1.79974 7.63937C1.80536 7.84329 1.72983 8.0411 1.58974 8.18938C1.51751 8.26452 1.4304 8.32379 1.33398 8.36339C1.23756 8.40299 1.13394 8.42206 1.02974 8.41938C0.92862 8.41807 0.828747 8.39686 0.735825 8.35695C0.642903 8.31705 0.558752 8.25923 0.488178 8.1868C0.417604 8.11436 0.361988 8.02874 0.324508 7.93481C0.287029 7.84089 0.268419 7.74049 0.269741 7.63937C0.267337 7.53908 0.285631 7.43936 0.323483 7.34646C0.361335 7.25355 0.417932 7.16944 0.48974 7.09938C0.63394 6.95809 0.82786 6.87908 1.02974 6.87937C1.23812 6.87597 1.4394 6.95505 1.58974 7.09938C1.65975 7.17029 1.71449 7.25478 1.75061 7.34765C1.78672 7.44052 1.80345 7.5398 1.79974 7.63937ZM1.70974 0.859375V5.69938H0.36974V0.859375H1.70974Z" fill="white"/>
</svg>
