<svg width="30" height="30" viewBox="0 0 30 30" fill="none" xmlns="http://www.w3.org/2000/svg">
<path d="M14.7197 17.3398C11.3997 17.3398 4.71973 19.0898 4.71973 22.5698V26.2998H24.6897V22.5698C24.6897 19.0898 17.9997 17.3398 14.7197 17.3398Z" fill="#D9113D"/>
<path d="M14.8302 16.0002C14.5798 16.0032 14.3361 15.919 14.1409 15.7621C13.9458 15.6052 13.8111 15.3854 13.7602 15.1402L13.6302 14.5702L13.4702 14.5102L13.0502 14.9002C12.9496 14.998 12.8307 15.0749 12.7002 15.1264C12.5698 15.1779 12.4304 15.203 12.2902 15.2002C12.0333 15.1996 11.7852 15.1074 11.5902 14.9402L10.8202 14.3002C10.6097 14.1292 10.4705 13.8859 10.4298 13.6178C10.3891 13.3496 10.4499 13.076 10.6002 12.8502L10.8902 12.3702C10.8576 12.3201 10.8308 12.2664 10.8102 12.2102H10.2202C9.94865 12.1971 9.69186 12.0829 9.50016 11.8902C9.30457 11.6995 9.18694 11.4429 9.17016 11.1702L9.08016 10.1702C9.0496 9.90394 9.12106 9.63596 9.28016 9.42023C9.43953 9.20034 9.67462 9.04718 9.94016 8.99023L10.5002 8.87023L10.5602 8.69023L10.1602 8.26023C9.98255 8.05892 9.8863 7.79867 9.89016 7.53023C9.88848 7.25917 9.98431 6.99653 10.1602 6.79023L10.8102 6.00023C10.9775 5.7918 11.2163 5.65284 11.4802 5.61023C11.6127 5.58348 11.7492 5.58386 11.8815 5.61136C12.0139 5.63886 12.1393 5.69291 12.2502 5.77023L12.7302 6.09023L12.8902 6.00023V5.40023C12.8979 5.13145 13.0048 4.87501 13.1902 4.68023C13.2782 4.57966 13.3855 4.49775 13.5057 4.43935C13.626 4.38095 13.7567 4.34725 13.8902 4.34023L14.8902 4.24023H15.0002C15.2506 4.24429 15.4922 4.33372 15.685 4.49374C15.8777 4.65376 16.0101 4.87477 16.0602 5.12023L16.1902 5.69023L16.3602 5.75023L16.7802 5.34023C16.9836 5.14959 17.2514 5.04249 17.5302 5.04023C17.7943 5.0433 18.0491 5.13883 18.2502 5.31023L19.0102 5.94023C19.2169 6.11604 19.3521 6.36151 19.3902 6.63023C19.4274 6.89449 19.3708 7.16344 19.2302 7.39023L18.9202 7.89023C18.9499 7.92456 18.9767 7.96136 19.0002 8.00023H20.0002V8.09023C20.1731 8.16478 20.3244 8.28172 20.4402 8.43023C20.5516 8.58287 20.6206 8.76228 20.6402 8.95023L20.7402 9.95023C20.7674 10.2209 20.6925 10.492 20.5302 10.7102C20.3742 10.9272 20.142 11.0772 19.8802 11.1302L19.3202 11.2602C19.3108 11.3201 19.2905 11.3778 19.2602 11.4302L19.6602 11.8602C19.8445 12.058 19.9511 12.3157 19.9603 12.5859C19.9695 12.8561 19.8806 13.1204 19.7102 13.3302L19.0702 14.1002C18.97 14.2299 18.8395 14.3329 18.6902 14.4002C18.5409 14.4729 18.376 14.5072 18.2102 14.5002C17.9994 14.5039 17.7929 14.4409 17.6202 14.3202L17.1202 14.0002L16.9602 14.0802V14.6702C16.9566 14.941 16.8534 15.2009 16.6702 15.4002C16.4815 15.5888 16.235 15.7086 15.9702 15.7402L14.9702 15.8302L14.8302 16.0002ZM14.5902 8.56024C14.3589 8.56915 14.1318 8.62409 13.9221 8.72185C13.7124 8.8196 13.5243 8.9582 13.3688 9.12954C13.2133 9.30088 13.0935 9.50151 13.0165 9.7197C12.9394 9.93788 12.9067 10.1692 12.9202 10.4002C12.956 10.853 13.1675 11.2738 13.5094 11.5728C13.8514 11.8717 14.2966 12.0251 14.7502 12.0002H14.9202C15.3831 11.9779 15.8182 11.773 16.1302 11.4302C16.2868 11.2614 16.4083 11.063 16.4872 10.8466C16.5662 10.6303 16.6012 10.4003 16.5902 10.1702C16.5514 9.71883 16.3401 9.29976 16.0002 9.00023C15.6526 8.68786 15.1972 8.5229 14.7302 8.54023L14.5902 8.56024Z" fill="#D9113D"/>
<path d="M14.9996 4.6493C15.154 4.64906 15.3036 4.70297 15.4224 4.80163C15.5412 4.90029 15.6216 5.03747 15.6496 5.1893L15.8396 6.0493C16.0536 6.09873 16.264 6.1622 16.4696 6.2393L17.0896 5.6693C17.1444 5.60262 17.2126 5.54813 17.2896 5.5093C17.3685 5.47216 17.453 5.4485 17.5396 5.4393C17.6997 5.43734 17.8542 5.4984 17.9696 5.6093L18.7396 6.2393C18.8594 6.34686 18.9403 6.49101 18.9696 6.6493C18.9919 6.80517 18.9601 6.96396 18.8796 7.0993L18.4196 7.8293C18.5419 8.01364 18.6489 8.20761 18.7396 8.4093H19.5996C19.7634 8.4135 19.9199 8.47753 20.0396 8.5893C20.1589 8.70173 20.2305 8.85564 20.2396 9.0193L20.3396 10.0193C20.3528 10.1801 20.3065 10.3402 20.2096 10.4693C20.1127 10.6021 19.9704 10.6946 19.8096 10.7293L18.9496 10.9193C18.9015 11.1369 18.838 11.3507 18.7596 11.5593L19.3296 12.1793C19.4305 12.3002 19.4869 12.4519 19.4896 12.6093C19.4886 12.767 19.4319 12.9193 19.3296 13.0393L18.6996 13.8193C18.6344 13.89 18.5564 13.9477 18.4696 13.9893C18.3842 14.0371 18.2875 14.0613 18.1896 14.0593C18.0584 14.058 17.9302 14.0199 17.8196 13.9493L17.1096 13.4893C16.9239 13.6122 16.7262 13.716 16.5196 13.7993V14.6593C16.521 14.8271 16.4563 14.9887 16.3396 15.1093C16.2285 15.2303 16.0738 15.3022 15.9096 15.3093L14.9096 15.4093H14.8496C14.6973 15.405 14.5502 15.3525 14.4296 15.2593C14.3114 15.163 14.2301 15.0287 14.1996 14.8793L13.9996 13.9993C13.7819 13.9478 13.568 13.881 13.3596 13.7993L12.7396 14.3793C12.6196 14.4816 12.4673 14.5382 12.3096 14.5393C12.1523 14.5366 12.0005 14.4801 11.8796 14.3793L11.1196 13.7393C10.9999 13.6317 10.919 13.4876 10.8896 13.3293C10.869 13.1735 10.9007 13.0152 10.9796 12.8793L11.4296 12.1593C11.3126 11.9701 11.209 11.773 11.1196 11.5693H10.2596C10.0943 11.5633 9.93732 11.4955 9.81964 11.3793C9.69947 11.283 9.61499 11.1492 9.57964 10.9993L9.49964 9.9993C9.5075 9.84898 9.56361 9.70521 9.65964 9.5893C9.743 9.47566 9.86314 9.39438 9.99964 9.3593L10.8596 9.1693C10.9111 8.95152 10.978 8.73765 11.0596 8.5293L10.4796 7.9093C10.3823 7.78712 10.3293 7.63552 10.3293 7.4793C10.3293 7.32307 10.3823 7.17147 10.4796 7.0493L11.1196 6.2893C11.1777 6.19681 11.2591 6.12129 11.3557 6.07037C11.4522 6.01945 11.5605 5.99493 11.6696 5.9993C11.7982 5.99709 11.9242 6.0356 12.0296 6.1093L12.7396 6.5593C12.9276 6.44617 13.1212 6.3427 13.3196 6.2493V5.4293C13.3298 5.26793 13.3972 5.11548 13.5096 4.9993C13.6218 4.87655 13.7745 4.79843 13.9396 4.7793L14.9396 4.6893H14.9996V4.6493ZM14.8296 12.4893H14.9996C15.2868 12.4545 15.5649 12.3663 15.8196 12.2293C16.0713 12.0875 16.2922 11.8972 16.4696 11.6693C16.6501 11.4452 16.7828 11.1866 16.8596 10.9093C16.9593 10.5817 16.981 10.2354 16.9232 9.89789C16.8654 9.56039 16.7297 9.24105 16.5267 8.96527C16.3238 8.6895 16.0592 8.4649 15.7542 8.30935C15.4492 8.1538 15.112 8.07161 14.7696 8.0693H14.5696C14.0184 8.13612 13.5138 8.41169 13.1596 8.8393C12.8944 9.15418 12.7233 9.53746 12.6659 9.94517C12.6085 10.3529 12.6673 10.7685 12.8354 11.1443C13.0034 11.5202 13.2741 11.841 13.6162 12.0701C13.9583 12.2991 14.3581 12.4271 14.7696 12.4393L14.8296 12.4893ZM14.9996 3.7793H14.8596L13.8596 3.8693C13.4776 3.90496 13.1219 4.07926 12.8596 4.3593C12.6079 4.63213 12.4655 4.98813 12.4596 5.3593C12.2356 5.21921 11.9799 5.13757 11.7161 5.12185C11.4523 5.10612 11.1888 5.15682 10.9496 5.2693C10.743 5.36206 10.5613 5.50258 10.4196 5.6793L9.77964 6.4393C9.55116 6.72635 9.43266 7.08555 9.4455 7.45222C9.45833 7.81888 9.60165 8.16892 9.84964 8.4393C9.48408 8.51738 9.1601 8.72742 8.93964 9.0293C8.72235 9.33423 8.61966 9.70607 8.64964 10.0793L8.73964 11.0793C8.77353 11.4597 8.94404 11.8149 9.21964 12.0793C9.48945 12.3383 9.84579 12.488 10.2196 12.4993C10.0233 12.8161 9.9485 13.1935 10.0092 13.5612C10.0699 13.929 10.2619 14.2623 10.5496 14.4993L11.3096 15.1293C11.5938 15.3631 11.9531 15.4858 12.3209 15.4748C12.6887 15.4638 13.04 15.3197 13.3096 15.0693C13.3818 15.411 13.5732 15.7159 13.8496 15.9293C14.1303 16.1609 14.486 16.2819 14.8496 16.2693H14.9996L15.9996 16.1793C16.3705 16.1386 16.7142 15.9655 16.9677 15.6918C17.2212 15.4181 17.3674 15.0622 17.3796 14.6893C17.6339 14.8589 17.9341 14.9461 18.2396 14.9393C18.4651 14.9409 18.6877 14.8895 18.8896 14.7893C19.0943 14.6932 19.2752 14.5532 19.4196 14.3793L20.0496 13.6093C20.2841 13.3296 20.4085 12.9741 20.3996 12.6093C20.3892 12.2372 20.2434 11.8817 19.9896 11.6093C20.3505 11.5206 20.669 11.3083 20.8896 11.0093C21.0987 10.7194 21.2012 10.3661 21.1796 10.0093L21.0896 9.0093C21.0677 8.79215 21.0031 8.58146 20.8996 8.3893C20.792 8.20058 20.6454 8.03695 20.4696 7.9093V7.6493H19.6096C19.8115 7.3353 19.8898 6.95768 19.8296 6.5893C19.7704 6.22056 19.5783 5.88622 19.2896 5.6493L18.4896 4.9993C18.2183 4.7413 17.8636 4.58879 17.4896 4.5693C17.1154 4.57869 16.7584 4.72864 16.4896 4.9893C16.4099 4.65073 16.2199 4.34823 15.9496 4.1293C15.6677 3.90007 15.3129 3.77945 14.9496 3.7893L14.9996 3.7793ZM14.7896 11.5793C14.6168 11.5864 14.4442 11.5627 14.2796 11.5093C14.1169 11.4487 13.9674 11.357 13.8396 11.2393C13.5812 11.0024 13.4267 10.673 13.4099 10.3228C13.393 9.97262 13.5151 9.62993 13.7496 9.3693C13.9876 9.10885 14.3175 8.95108 14.6696 8.9293H14.7896C15.1185 8.93615 15.4342 9.06028 15.6796 9.2793C15.9202 9.50375 16.0667 9.81108 16.0896 10.1393C16.1078 10.3109 16.0908 10.4845 16.0396 10.6493C15.9901 10.8167 15.9086 10.9729 15.7996 11.1093C15.6911 11.2397 15.5587 11.3483 15.4096 11.4293C15.2553 11.5137 15.0849 11.5647 14.9096 11.5793H14.7896Z" fill="white"/>
<path d="M22.5498 27.5391C25.1732 27.5391 27.2998 25.4124 27.2998 22.7891C27.2998 20.1657 25.1732 18.0391 22.5498 18.0391C19.9265 18.0391 17.7998 20.1657 17.7998 22.7891C17.7998 25.4124 19.9265 27.5391 22.5498 27.5391Z" fill="#FF6B97" stroke="white" stroke-width="1.04" stroke-miterlimit="10"/>
<path d="M21.0996 23.6504L23.0996 21.6504L23.9796 22.5304L21.9796 24.5304L21.0996 23.6504Z" fill="white"/>
<path d="M24.18 22.3606L23.29 21.4706C23.42 21.3406 23.54 21.2006 23.68 21.0706C23.82 20.9406 23.84 21.0206 23.92 21.0706L24.39 21.5406C24.44 21.5906 24.5 21.6406 24.54 21.6906C24.5607 21.7054 24.5775 21.7249 24.5891 21.7475C24.6007 21.7701 24.6068 21.7952 24.6068 21.8206C24.6068 21.846 24.6007 21.871 24.5891 21.8936C24.5775 21.9162 24.5607 21.9357 24.54 21.9506L24.18 22.3606Z" fill="white"/>
<path d="M20.9996 23.8105L21.8796 24.6905L20.8096 24.8705L20.9996 23.8105Z" fill="white"/>
</svg>
