<svg width="30" height="30" viewBox="0 0 30 30" fill="none" xmlns="http://www.w3.org/2000/svg">
<path d="M14 17.3398C10.68 17.3398 4 19.0898 4 22.5698V26.2998H24V22.5698C24 19.0898 17.31 17.3398 14 17.3398Z" fill="#3D3D4E"/>
<path d="M14.1 16.0002C13.8389 16.0022 13.5855 15.912 13.3843 15.7455C13.1831 15.5791 13.0471 15.3471 13 15.0902L12.87 14.5202L12.72 14.4602L12.29 14.8502C12.191 14.9473 12.0738 15.0238 11.945 15.0752C11.8163 15.1267 11.6786 15.1522 11.54 15.1502C11.2799 15.1511 11.0281 15.0588 10.83 14.8902L10.07 14.2502C9.86134 14.0773 9.71981 13.8367 9.67002 13.5702C9.62861 13.3013 9.68925 13.0267 9.84002 12.8002L10.14 12.3202C10.1042 12.2704 10.074 12.2167 10.05 12.1602H9.50002C9.23351 12.1492 8.98009 12.0417 8.78693 11.8577C8.59377 11.6738 8.47404 11.4259 8.45002 11.1602L8.35002 10.1602C8.32332 9.89273 8.39829 9.62498 8.56002 9.41023C8.71562 9.191 8.94739 9.03767 9.21002 8.98023L9.78002 8.86023L9.83002 8.68023L9.43002 8.25023C9.25641 8.04655 9.16073 7.78786 9.16002 7.52023C9.1626 7.24992 9.25791 6.98869 9.43002 6.78023L10.08 6.00023C10.2498 5.78966 10.4925 5.65048 10.76 5.61023C10.891 5.58487 11.0257 5.58596 11.1562 5.61344C11.2867 5.64092 11.4104 5.69423 11.52 5.77023L12.01 6.09023L12.16 6.00023V5.40023C12.1723 5.13243 12.2785 4.87749 12.46 4.68023C12.6461 4.48241 12.8993 4.36117 13.17 4.34023L14.17 4.24023H14.25C14.5019 4.24212 14.7454 4.33037 14.94 4.49023C15.1311 4.65391 15.2644 4.87484 15.32 5.12023L15.44 5.69023L15.62 5.75023L16.04 5.34023C16.2392 5.15753 16.4997 5.05616 16.77 5.05616C17.0403 5.05616 17.3008 5.15753 17.5 5.34023L18.26 5.97023C18.4691 6.1456 18.6076 6.39069 18.65 6.66023C18.6889 6.92586 18.6283 7.19648 18.48 7.42023L18.17 7.92023L18.26 8.08023H19.26V8.17023C19.4359 8.23969 19.5884 8.35758 19.7 8.51023C19.8104 8.66436 19.8824 8.84265 19.91 9.03023L20 10.0002C20.0328 10.2693 19.9622 10.5407 19.8026 10.7597C19.6429 10.9787 19.4062 11.129 19.14 11.1802L18.58 11.3102C18.5707 11.3701 18.5504 11.4278 18.52 11.4802L18.93 11.9102C19.1035 12.1159 19.1986 12.3762 19.1986 12.6452C19.1986 12.9143 19.1035 13.1746 18.93 13.3802L18.3 14.1502C18.1934 14.2774 18.0603 14.3798 17.91 14.4502C17.7638 14.5213 17.6025 14.5556 17.44 14.5502C17.2265 14.5521 17.0173 14.4893 16.84 14.3702L16.39 14.0002L16.24 14.0802V14.6702C16.2284 14.9412 16.1223 15.1994 15.94 15.4002C15.7538 15.5922 15.506 15.7125 15.24 15.7402L14.24 15.8302L14.1 16.0002ZM13.86 8.56024C13.3948 8.58354 12.9579 8.79029 12.6448 9.13518C12.3318 9.48007 12.1683 9.93498 12.19 10.4002C12.2258 10.8494 12.4345 11.2671 12.7721 11.5655C13.1097 11.864 13.5499 12.0198 14 12.0002H14.16C14.3903 11.9913 14.6166 11.9367 14.8256 11.8395C15.0347 11.7424 15.2223 11.6047 15.3777 11.4344C15.5331 11.2642 15.6531 11.0648 15.7307 10.8477C15.8084 10.6307 15.8421 10.4004 15.83 10.1702C15.8084 9.72499 15.6148 9.30553 15.29 9.00023C15.1188 8.83634 14.9163 8.70852 14.6947 8.62434C14.4731 8.54017 14.2369 8.50137 14 8.51023L13.86 8.56024Z" fill="#3D3D4E"/>
<path d="M14.2296 4.6493C14.3862 4.6467 14.5386 4.69986 14.6596 4.7993C14.7768 4.90071 14.8575 5.03768 14.8896 5.1893L15.0796 6.0493C15.2906 6.09743 15.4978 6.16094 15.6996 6.2393L16.3196 5.6693C16.3779 5.60216 16.4494 5.5477 16.5296 5.5093C16.608 5.47101 16.6927 5.44729 16.7796 5.4393C16.9393 5.43941 17.093 5.50018 17.2096 5.6093L17.9696 6.2393C18.0916 6.34241 18.1728 6.48574 18.1985 6.64343C18.2242 6.80112 18.1926 6.9628 18.1096 7.0993L17.6596 7.8293C17.7748 8.01607 17.8783 8.20977 17.9696 8.4093H18.8296C18.9937 8.41159 19.1509 8.47589 19.2696 8.5893C19.3917 8.70071 19.4668 8.85447 19.4796 9.0193L19.5696 10.0193C19.5856 10.1789 19.543 10.3389 19.4496 10.4693C19.3527 10.6021 19.2103 10.6946 19.0496 10.7293L18.1896 10.9193C18.1381 11.1371 18.0713 11.3509 17.9896 11.5593L18.5696 12.1793C18.6675 12.3011 18.7205 12.453 18.7196 12.6093C18.7222 12.7659 18.669 12.9183 18.5696 13.0393L17.9296 13.8193C17.8663 13.8921 17.7878 13.9501 17.6996 13.9893C17.6145 14.0381 17.5176 14.0623 17.4196 14.0593C17.2884 14.058 17.1602 14.0199 17.0496 13.9493L16.3396 13.4893C16.1573 13.6121 15.963 13.716 15.7596 13.7993V14.6593C15.7511 14.8251 15.6877 14.9834 15.5796 15.1093C15.4629 15.2284 15.306 15.2997 15.1396 15.3093L14.1396 15.4093H14.0796C13.9263 15.4068 13.7783 15.3534 13.6588 15.2574C13.5393 15.1614 13.4551 15.0284 13.4196 14.8793L13.2496 13.9993C13.0351 13.9478 12.8245 13.881 12.6196 13.7993L11.9996 14.3793C11.8787 14.4801 11.727 14.5366 11.5696 14.5393C11.4119 14.5382 11.2596 14.4816 11.1396 14.3793L10.3696 13.7393C10.2496 13.6333 10.1716 13.4879 10.1496 13.3293C10.12 13.1746 10.1485 13.0143 10.2296 12.8793L10.6796 12.1593C10.5664 11.968 10.463 11.771 10.3696 11.5693H9.5096C9.34474 11.5615 9.18835 11.4939 9.0696 11.3793C8.95679 11.2815 8.88236 11.1468 8.8596 10.9993L8.7696 9.9993C8.78191 9.84997 8.83751 9.70749 8.9296 9.5893C9.02738 9.47648 9.16205 9.40206 9.3096 9.3793L10.1696 9.1893C10.213 8.97055 10.2766 8.7563 10.3596 8.5493L9.7896 7.9293C9.68681 7.80961 9.6303 7.65706 9.6303 7.4993C9.6303 7.34153 9.68681 7.18898 9.7896 7.0693L10.4196 6.3093C10.4842 6.23259 10.5621 6.16822 10.6496 6.1193C10.7363 6.05846 10.8353 6.01749 10.9396 5.9993C11.0684 5.99567 11.1948 6.03431 11.2996 6.1093L11.9996 6.5993C12.1909 6.48614 12.3879 6.38267 12.5896 6.2893V5.4293C12.5989 5.26772 12.6664 5.11498 12.7796 4.9993C12.8948 4.88055 13.0459 4.80321 13.2096 4.7793L14.2096 4.6893H14.2696L14.2296 4.6493ZM14.0596 12.4893H14.2596C14.5433 12.4531 14.8178 12.3649 15.0696 12.2293C15.3261 12.0905 15.5509 11.8998 15.7296 11.6693C15.9063 11.4428 16.0386 11.1849 16.1196 10.9093C16.2177 10.5794 16.2374 10.2311 16.1771 9.89216C16.1168 9.55326 15.9782 9.23313 15.7723 8.95729C15.5664 8.68145 15.2989 8.45752 14.9911 8.30335C14.6833 8.14918 14.3438 8.06903 13.9996 8.0693H13.7896C13.239 8.13808 12.7351 8.41328 12.3796 8.8393C12.0215 9.25819 11.8388 9.79907 11.8696 10.3493C11.89 10.904 12.1221 11.4298 12.5183 11.8185C12.9145 12.2073 13.4446 12.4294 13.9996 12.4393L14.0596 12.4893ZM14.2296 3.7793H14.0996L13.0996 3.8693C12.7253 3.908 12.3779 4.08154 12.1221 4.35754C11.8664 4.63354 11.7197 4.99315 11.7096 5.3693C11.4556 5.2002 11.1545 5.11616 10.8496 5.1293C10.6253 5.13055 10.4041 5.18141 10.2019 5.27823C9.99958 5.37505 9.82123 5.51542 9.6796 5.6893L8.9996 6.4493C8.76782 6.73433 8.64633 7.09325 8.65735 7.46046C8.66837 7.82768 8.81115 8.17867 9.0596 8.4493C8.69404 8.52738 8.37007 8.73742 8.1496 9.0393C7.93232 9.34423 7.82962 9.71607 7.8596 10.0893L7.9596 11.0893C7.9978 11.4603 8.16848 11.805 8.44032 12.0604C8.71217 12.3157 9.06695 12.4644 9.4396 12.4793C9.23183 12.7947 9.14977 13.1764 9.2096 13.5493C9.25809 13.9408 9.45496 14.2987 9.7596 14.5493L10.5196 15.1793C10.7997 15.4142 11.1541 15.5418 11.5196 15.5393C11.8934 15.528 12.2498 15.3783 12.5196 15.1193C12.5994 15.4579 12.7893 15.7604 13.0596 15.9793C13.3416 16.2085 13.6963 16.3291 14.0596 16.3193H14.1996L15.1996 16.2293C15.5829 16.1983 15.9403 16.0233 16.1996 15.7393C16.4558 15.4685 16.6019 15.112 16.6096 14.7393C16.8638 14.9089 17.1641 14.9961 17.4696 14.9893C17.6981 14.9895 17.9237 14.9383 18.1296 14.8393C18.3296 14.7404 18.5068 14.6007 18.6496 14.4293L19.2796 13.6593C19.513 13.3784 19.6403 13.0245 19.6396 12.6593C19.6302 12.285 19.4803 11.928 19.2196 11.6593C19.5805 11.5706 19.8989 11.3583 20.1196 11.0593C20.3322 10.7707 20.4382 10.4173 20.4196 10.0593L20.3196 9.0593C20.3022 8.84125 20.2374 8.62964 20.1296 8.4393C20.0249 8.24846 19.8778 8.08423 19.6996 7.9593V7.6493H18.8396C19.0414 7.3353 19.1198 6.95768 19.0596 6.5893C19.0004 6.22056 18.8083 5.88622 18.5196 5.6493L17.7696 4.9993C17.4968 4.7435 17.1429 4.59135 16.7696 4.5693C16.3807 4.57429 16.0085 4.72818 15.7296 4.9993C15.6509 4.65976 15.4601 4.35665 15.1879 4.13892C14.9157 3.92119 14.5781 3.80154 14.2296 3.7993V3.7793ZM14.0296 11.5793C13.8568 11.587 13.684 11.5633 13.5196 11.5093C13.3527 11.4511 13.1995 11.3592 13.0696 11.2393C12.812 11.0003 12.6577 10.6702 12.6396 10.3193C12.6286 9.96784 12.7551 9.62595 12.9923 9.36636C13.2295 9.10677 13.5586 8.94996 13.9096 8.9293H13.9996C14.3252 8.93764 14.6372 9.06173 14.8796 9.2793C15.1192 9.50561 15.2684 9.81121 15.2996 10.1393C15.3127 10.3109 15.2958 10.4835 15.2496 10.6493C15.2001 10.8167 15.1186 10.9729 15.0096 11.1093C14.8974 11.24 14.7617 11.3485 14.6096 11.4293C14.4587 11.5134 14.2917 11.5646 14.1196 11.5793H14.0296Z" fill="white"/>
<path d="M21.8203 27.5391C24.4437 27.5391 26.5703 25.4124 26.5703 22.7891C26.5703 20.1657 24.4437 18.0391 21.8203 18.0391C19.197 18.0391 17.0703 20.1657 17.0703 22.7891C17.0703 25.4124 19.197 27.5391 21.8203 27.5391Z" fill="#3D3D4E" stroke="white" stroke-width="1.04" stroke-miterlimit="10"/>
<path d="M20.3799 23.6504L22.3799 21.6504L23.2499 22.5304L21.2499 24.5304L20.3799 23.6504Z" fill="white"/>
<path d="M23.4596 22.3607L22.5596 21.4707L22.9496 21.0707C23.0196 21.0007 23.1096 21.0207 23.1996 21.0707L23.6696 21.5407L23.8196 21.6907C23.8402 21.7055 23.857 21.725 23.8686 21.7476C23.8802 21.7702 23.8863 21.7953 23.8863 21.8207C23.8863 21.8461 23.8802 21.8712 23.8686 21.8938C23.857 21.9164 23.8402 21.9359 23.8196 21.9507C23.6996 22.1207 23.5796 22.2407 23.4596 22.3607Z" fill="white"/>
<path d="M20.22 23.8105L21.1 24.6905L20 24.8705L20.22 23.8105Z" fill="white"/>
</svg>
