<svg width="22" height="22" viewBox="0 0 22 22" fill="none" xmlns="http://www.w3.org/2000/svg">
<path d="M1.83301 6.41667C1.83301 4.85295 1.83301 4.07109 2.2463 3.53248C2.3527 3.39381 2.47682 3.26969 2.61548 3.16329C3.1541 2.75 3.93596 2.75 5.49967 2.75H16.4997C18.0634 2.75 18.8453 2.75 19.3839 3.16329C19.5225 3.26969 19.6466 3.39381 19.753 3.53248C20.1663 4.07109 20.1663 4.85295 20.1663 6.41667C20.1663 7.19852 20.1663 7.58945 19.9597 7.85876C19.9065 7.92809 19.8444 7.99015 19.7751 8.04335C19.5058 8.25 19.1149 8.25 18.333 8.25H3.66634C2.88448 8.25 2.49355 8.25 2.22425 8.04335C2.15491 7.99015 2.09285 7.92809 2.03965 7.85876C1.83301 7.58945 1.83301 7.19852 1.83301 6.41667Z" fill="#3D3D4E"/>
<path fill-rule="evenodd" clip-rule="evenodd" d="M4.54567 18.372C3.66699 17.4933 3.66699 16.0791 3.66699 13.2507V10.084H18.3337V13.2507C18.3337 16.0791 18.3337 17.4933 17.455 18.372C16.5763 19.2507 15.1621 19.2507 12.3337 19.2507H9.66699C6.83856 19.2507 5.42435 19.2507 4.54567 18.372ZM9.16699 13.6673C8.61471 13.6673 8.16699 14.115 8.16699 14.6673C8.16699 15.2196 8.61471 15.6673 9.16699 15.6673H12.8337C13.3859 15.6673 13.8337 15.2196 13.8337 14.6673C13.8337 14.115 13.3859 13.6673 12.8337 13.6673H9.16699Z" fill="#3D3D4E"/>
</svg>
