<svg width="30" height="30" viewBox="0 0 30 30" fill="none" xmlns="http://www.w3.org/2000/svg">
<rect x="0.5" y="0.5" width="29" height="29" stroke="#D9D9D9"/>
<path d="M17.4 13.3V5H7.1V9.1H3V23.6H11.3V19.5H13.4V23.6H21.7V13.3H17.4ZM7.1 21.6H5V19.5H7.1V21.6ZM7.1 17.4H5V15.3H7.1V17.4ZM7.1 13.3H5V11.2H7.1V13.3ZM11.2 17.4H9.1V15.3H11.2V17.4ZM11.2 13.3H9.1V11.2H11.2V13.3ZM11.2 9.1H9.1V7H11.2V9.1ZM15.4 17.4H13.3V15.3H15.4V17.4ZM15.4 13.3H13.3V11.2H15.4V13.3ZM15.4 9.1H13.3V7H15.4V9.1ZM19.5 21.6H17.4V19.5H19.5V21.6ZM19.5 17.4H17.4V15.3H19.5V17.4Z" fill="#D9113D"/>
<path d="M20.6996 25.3008C20.3996 25.3008 20.1996 25.2008 19.9996 25.0008C19.7996 24.8008 19.6996 24.6008 19.5996 24.3008L19.4996 23.7008L19.2996 23.6008L18.7996 24.1008C18.5996 24.3008 18.2996 24.4008 17.9996 24.4008C17.6996 24.4008 17.4996 24.3008 17.2996 24.1008L16.4996 23.4008C16.2996 23.2008 16.0996 23.0008 16.0996 22.7008C16.0996 22.4008 16.0996 22.1008 16.2996 21.9008L16.5996 21.4008C16.5996 21.3008 16.4996 21.3008 16.4996 21.2008H15.7996C15.4996 21.2008 15.1996 21.1008 14.9996 20.9008C14.7996 20.7008 14.6996 20.4008 14.6996 20.1008L14.5996 19.0008C14.5996 18.7008 14.5996 18.4008 14.7996 18.2008C14.9996 18.0008 15.1996 17.8008 15.4996 17.8008L16.0996 17.7008L16.1996 17.5008L15.7996 17.1008C15.5996 16.9008 15.4996 16.6008 15.4996 16.3008C15.4996 16.0008 15.5996 15.7008 15.7996 15.5008L16.4996 14.7008C16.6996 14.5008 16.8996 14.3008 17.1996 14.3008C17.4996 14.3008 17.7996 14.3008 17.9996 14.5008L18.4996 14.8008L18.6996 14.7008V14.1008C18.6996 13.8008 18.7996 13.5008 18.9996 13.3008C19.1996 13.1008 19.4996 13.0008 19.6996 12.9008L20.7996 12.8008V12.8008C21.0996 12.8008 21.2996 12.9008 21.4996 13.1008C21.6996 13.3008 21.7996 13.5008 21.8996 13.8008L21.9996 14.4008L22.1996 14.5008L22.5996 14.1008C22.7996 13.9008 23.0996 13.8008 23.3996 13.8008C23.6996 13.8008 23.8996 13.9008 24.1996 14.1008L24.9996 14.8008C25.1996 15.0008 25.3996 15.2008 25.3996 15.5008C25.3996 15.8008 25.3996 16.1008 25.1996 16.3008L24.8996 16.8008C24.8996 16.9008 24.9996 16.9008 24.9996 17.0008H26.0996V17.1008C26.2996 17.2008 26.3996 17.3008 26.5996 17.5008C26.6996 17.7008 26.7996 17.8008 26.7996 18.0008L26.8996 19.1008C26.8996 19.4008 26.8996 19.7008 26.6996 19.9008C26.4996 20.1008 26.2996 20.3008 25.9996 20.3008L25.3996 20.4008C25.3996 20.5008 25.3996 20.5008 25.2996 20.6008L25.6996 21.1008C25.8996 21.3008 25.9996 21.6008 25.9996 21.9008C25.9996 22.2008 25.8996 22.5008 25.6996 22.7008L24.9996 23.5008C24.8996 23.6008 24.7996 23.7008 24.5996 23.8008C24.3996 23.9008 24.2996 23.9008 24.0996 23.9008C23.8996 23.9008 23.6996 23.8008 23.4996 23.7008L23.0996 23.3008L22.8996 23.4008V24.0008C22.8996 24.3008 22.7996 24.6008 22.5996 24.8008C22.3996 25.0008 22.0996 25.1008 21.8996 25.2008H20.7996L20.6996 25.3008ZM20.3996 17.4008C19.8996 17.4008 19.3996 17.6008 19.0996 18.0008C18.7996 18.4008 18.5996 18.8008 18.5996 19.3008C18.5996 19.8008 18.7996 20.3008 19.1996 20.6008C19.5996 20.9008 19.9996 21.1008 20.4996 21.1008H20.7996C21.2996 21.1008 21.7996 20.9008 22.0996 20.5008C22.3996 20.1008 22.5996 19.7008 22.5996 19.2008C22.5996 18.7008 22.3996 18.2008 21.9996 17.9008C21.5996 17.6008 21.1996 17.4008 20.6996 17.4008H20.3996Z" fill="#FF6B97"/>
<path d="M20.8 13.4004C21 13.4004 21.1 13.5004 21.2 13.6004C21.3 13.7004 21.4 13.8004 21.4 14.0004L21.6 14.9004C21.8 15.0004 22 15.0004 22.3 15.1004L23 14.5004C23.1 14.4004 23.1 14.4004 23.2 14.3004C23.3 14.3004 23.4 14.2004 23.5 14.2004C23.7 14.2004 23.8 14.3004 24 14.4004L24.8 15.1004C24.9 15.2004 25 15.4004 25 15.5004C25 15.7004 25 15.8004 24.9 16.0004L24.4 16.8004C24.5 17.0004 24.6 17.2004 24.7 17.4004H25.6C25.8 17.4004 25.9 17.5004 26.1 17.6004C26.2 17.7004 26.3 17.9004 26.3 18.1004L26.4 19.2004C26.4 19.4004 26.4 19.5004 26.3 19.7004C26.2 19.8004 26 19.9004 25.9 20.0004L25 20.2004C24.9 20.4004 24.9 20.7004 24.8 20.9004L25.4 21.6004C25.5 21.7004 25.6 21.9004 25.6 22.1004C25.6 22.3004 25.5 22.4004 25.4 22.6004L24.7 23.4004C24.6 23.5004 24.6 23.5004 24.5 23.6004C24.4 23.6004 24.3 23.7004 24.2 23.7004C24.1 23.7004 23.9 23.7004 23.8 23.6004L23 23.1004C22.8 23.2004 22.6 23.3004 22.4 23.4004V24.3004C22.4 24.5004 22.3 24.6004 22.2 24.8004C22.1 24.9004 21.9 25.0004 21.7 25.0004L20.6 25.1004H20.5C20.3 25.1004 20.2 25.0004 20.1 24.9004C20 24.8004 19.9 24.7004 19.9 24.5004L19.8 23.3004C19.6 23.2004 19.3 23.2004 19.1 23.1004L18.4 23.7004C18.3 23.8004 18.1 23.9004 17.9 23.9004C17.7 23.9004 17.6 23.8004 17.4 23.7004L16.6 23.0004C16.5 22.9004 16.4 22.7004 16.4 22.6004C16.4 22.4004 16.4 22.3004 16.5 22.1004L17 21.3004C16.9 21.1004 16.8 20.9004 16.7 20.7004H15.8C15.6 20.7004 15.5 20.6004 15.3 20.5004C15.2 20.4004 15.1 20.2004 15.1 20.0004L15 18.9004C15 18.7004 15.1 18.6004 15.2 18.5004C15.3 18.4004 15.4 18.3004 15.6 18.3004L16.5 18.1004C16.6 17.9004 16.6 17.6004 16.7 17.4004L16.1 16.7004C16 16.6004 15.9 16.4004 15.9 16.2004C15.9 16.0004 16 15.9004 16.1 15.7004L16.8 14.9004C16.9 14.8004 16.9 14.8004 17 14.7004C17.1 14.7004 17.2 14.6004 17.3 14.6004C17.4 14.6004 17.6 14.6004 17.7 14.7004L18.5 15.2004C18.7 15.1004 18.9 15.0004 19.1 14.9004V14.0004C19.1 13.8004 19.2 13.7004 19.3 13.5004C19.4 13.4004 19.6 13.3004 19.7 13.3004L20.8 13.4004ZM20.6 21.6004H20.8C21.1 21.6004 21.4 21.5004 21.7 21.3004C22 21.2004 22.2 21.0004 22.4 20.7004C22.6 20.5004 22.7 20.2004 22.8 19.9004C22.9 19.6004 22.9 19.3004 22.9 19.0004C22.9 18.4004 22.6 17.9004 22.2 17.5004C21.8 17.1004 21.2 16.9004 20.7 16.9004H20.5C19.9 17.0004 19.4 17.3004 19 17.7004C18.6 18.1004 18.4 18.7004 18.5 19.3004C18.5 19.9004 18.8 20.4004 19.2 20.8004C19.5 21.3004 20 21.6004 20.6 21.6004ZM20.8 12.4004H20.7L19.6 12.5004C19.2 12.5004 18.8 12.7004 18.6 13.0004C18.3 13.3004 18.2 13.7004 18.2 14.1004C17.9 13.9004 17.6 13.8004 17.3 13.8004C17.1 13.8004 16.8 13.9004 16.6 14.0004C16.4 14.1004 16.2 14.3004 16 14.4004L15.3 15.3004C15 15.6004 14.9 16.0004 14.9 16.4004C14.9 16.8004 15.1 17.2004 15.3 17.5004C14.9 17.6004 14.6 17.8004 14.3 18.1004C14.1 18.4004 14 18.8004 14 19.2004L14.1 20.3004C14.1 20.7004 14.3 21.1004 14.6 21.3004C14.9 21.6004 15.3 21.7004 15.7 21.7004C15.5 22.0004 15.4 22.4004 15.5 22.8004C15.6 23.2004 15.8 23.5004 16.1 23.8004L16.9 24.5004C17.2 24.8004 17.6 24.9004 18 24.9004C18.4 24.9004 18.8 24.7004 19.1 24.5004C19.2 24.9004 19.4 25.2004 19.7 25.4004C20 25.6004 20.3 25.8004 20.7 25.8004H20.8L21.9 25.7004C22.3 25.7004 22.7 25.5004 22.9 25.2004C23.2 24.9004 23.3 24.5004 23.3 24.1004C23.6 24.3004 23.9 24.4004 24.2 24.4004C24.4 24.4004 24.7 24.3004 24.9 24.2004C25.1 24.1004 25.3 23.9004 25.5 23.8004L26.2 23.0004C26.5 22.7004 26.6 22.3004 26.6 21.9004C26.6 21.5004 26.4 21.1004 26.2 20.8004C26.6 20.7004 26.9 20.5004 27.2 20.2004C27.4 19.9004 27.5 19.5004 27.5 19.1004L27.4 18.0004C27.4 17.8004 27.3 17.5004 27.2 17.3004C27.1 17.1004 26.9 16.9004 26.7 16.8004V16.6004H25.8C26 16.3004 26.1 15.9004 26 15.5004C25.9 15.1004 25.7 14.8004 25.4 14.5004L24.6 13.8004C24.3 13.5004 23.9 13.4004 23.6 13.3004C23.2 13.3004 22.8 13.5004 22.5 13.7004C22.4 13.3004 22.2 13.0004 21.9 12.8004C21.5 12.6004 21.2 12.5004 20.8 12.4004ZM20.6 20.7004C20.4 20.7004 20.2 20.7004 20.1 20.6004C19.9 20.5004 19.8 20.4004 19.6 20.3004C19.3 20.0004 19.2 19.7004 19.1 19.3004C19.1 18.9004 19.2 18.6004 19.5 18.3004C19.8 18.0004 20.1 17.9004 20.5 17.8004H20.6C20.9 17.8004 21.3 17.9004 21.5 18.2004C21.8 18.4004 21.9 18.8004 21.9 19.1004C21.9 19.3004 21.9 19.5004 21.8 19.6004C21.7 19.8004 21.7 19.9004 21.5 20.1004C21.4 20.2004 21.2 20.4004 21.1 20.4004C20.9 20.5004 20.8 20.5004 20.6 20.6004V20.7004Z" fill="white"/>
</svg>
