<svg width="30" height="30" viewBox="0 0 30 30" fill="none" xmlns="http://www.w3.org/2000/svg">
<path d="M17.909 10.9004C17.909 13.9004 15.709 16.3004 13.009 16.3004C10.309 16.3004 8.20898 13.9004 8.20898 10.9004H17.909Z" fill="#3D3D4E"/>
<path d="M17.909 8.40001H8.20898C8.20898 6.40001 9.20898 4.7 10.609 3.7L11.209 6.5C11.209 6.7 11.409 6.90001 11.709 6.90001H11.809C12.109 6.80001 12.209 6.6 12.209 6.3L11.509 3.3C12.009 3.1 12.509 3 13.009 3C13.609 3 14.109 3.1 14.609 3.3L14.009 6.3C13.909 6.6 14.109 6.80001 14.409 6.90001H14.509C14.709 6.90001 14.909 6.7 15.009 6.5L15.609 3.7C16.909 4.8 17.909 6.50001 17.909 8.40001Z" fill="#3D3D4E"/>
<path d="M18.2094 9.90001H7.80937C7.40937 9.90001 7.10938 9.6 7.10938 9.2C7.10938 8.8 7.40937 8.5 7.80937 8.5H18.2094C18.6094 8.5 18.9094 8.8 18.9094 9.2C18.9094 9.6 18.6094 9.90001 18.2094 9.90001Z" fill="#3D3D4E"/>
<path d="M16.109 16.9008C14.909 17.8008 13.109 17.7008 13.109 17.7008C13.109 17.7008 11.209 17.8008 10.109 16.9008C8.90898 16.0008 8.20898 16.7008 8.20898 16.7008L8.30898 25.6008H13.209H18.109L18.209 16.7008C18.009 16.7008 17.209 16.0008 16.109 16.9008Z" fill="#3D3D4E"/>
<path d="M6.30902 17.9004V25.0004C6.30902 25.0004 3.40902 24.2004 4.10902 21.6004C4.80902 19.0004 6.10902 17.9004 6.30902 17.9004Z" fill="#3D3D4E"/>
<path d="M19.709 17.9004V25.0004C19.709 25.0004 22.609 24.2004 21.909 21.6004C21.309 19.1004 19.909 17.9004 19.709 17.9004Z" fill="#3D3D4E"/>
<path d="M20.9092 26.3008C23.6706 26.3008 25.9092 24.0622 25.9092 21.3008C25.9092 18.5394 23.6706 16.3008 20.9092 16.3008C18.1478 16.3008 15.9092 18.5394 15.9092 21.3008C15.9092 24.0622 18.1478 26.3008 20.9092 26.3008Z" fill="#3D3D4E" stroke="white" stroke-width="1.0376" stroke-miterlimit="10"/>
<path d="M23.3088 21.7004H21.4088V23.6004H20.4088V21.7004H18.5088V20.8004H20.4088V18.9004H21.4088V20.8004H23.3088V21.7004Z" fill="white"/>
</svg>
