<svg width="30" height="30" viewBox="0 0 30 30" fill="none" xmlns="http://www.w3.org/2000/svg">
<path d="M16.4127 10.5C16.4127 13.4 14.3127 15.7 11.7127 15.7C9.1127 15.7 7.0127 13.4 7.0127 10.5H16.4127Z" fill="#3D3D4E"/>
<path d="M16.4127 8.1H7.0127C7.0127 6.2 7.9127 4.5 9.3127 3.6L9.9127 6.4C9.9127 6.6 10.1127 6.8 10.4127 6.8H10.5127C10.8127 6.7 10.9127 6.5 10.9127 6.2L10.3127 3.3C10.8127 3.1 11.3127 3 11.8127 3C12.3127 3 12.9127 3.1 13.3127 3.3L12.7127 6.2C12.6127 6.5 12.8127 6.7 13.1127 6.8H13.2127C13.4127 6.8 13.6127 6.7 13.7127 6.4L14.3127 3.7C15.5127 4.6 16.4127 6.2 16.4127 8.1Z" fill="#3D3D4E"/>
<path d="M16.7127 9.49961H6.7127C6.3127 9.49961 6.0127 9.19961 6.0127 8.79961C6.0127 8.39961 6.3127 8.09961 6.7127 8.09961H16.7127C17.1127 8.09961 17.4127 8.39961 17.4127 8.79961C17.3127 9.19961 17.0127 9.49961 16.7127 9.49961Z" fill="#3D3D4E"/>
<path d="M14.6121 16.2992C13.5121 17.0992 11.7121 16.9992 11.7121 16.9992C11.7121 16.9992 9.91211 17.0992 8.81211 16.2992C7.71211 15.3992 6.91211 16.0992 6.91211 16.0992L7.01211 24.6992H11.7121H16.4121L16.5121 16.0992C16.4121 16.0992 15.7121 15.3992 14.6121 16.2992Z" fill="#3D3D4E"/>
<path d="M5.21235 17.1992V24.0992C5.21235 24.0992 2.41235 23.2992 3.11235 20.8992C3.81235 18.4992 5.01235 17.1992 5.21235 17.1992Z" fill="#3D3D4E"/>
<path d="M18.1123 17.1992V24.0992C18.1123 24.0992 20.9123 23.2992 20.2123 20.8992C19.5123 18.4992 18.4123 17.1992 18.1123 17.1992Z" fill="#3D3D4E"/>
<path d="M20.4131 25.9008C20.1131 25.9008 19.9131 25.8008 19.7131 25.6008C19.5131 25.4008 19.4131 25.2008 19.3131 24.9008L19.2131 24.3008H18.9131L18.5131 24.7008C18.3131 24.9008 18.0131 25.0008 17.7131 25.0008C17.4131 25.0008 17.2131 24.9008 17.0131 24.7008L16.2131 24.0008C16.0131 23.8008 15.8131 23.6008 15.8131 23.3008C15.8131 23.0008 15.8131 22.7008 16.0131 22.5008L16.3131 22.0008C16.3131 21.9008 16.2131 21.9008 16.2131 21.8008H15.6131C15.3131 21.8008 15.0131 21.7008 14.8131 21.5008C14.6131 21.3008 14.5131 21.0008 14.5131 20.7008L14.4131 19.6008C14.4131 19.3008 14.4131 19.0008 14.6131 18.8008C14.8131 18.6008 15.0131 18.4008 15.3131 18.4008L15.9131 18.3008L16.0131 18.1008L15.6131 17.6008C15.4131 17.4008 15.3131 17.1008 15.3131 16.8008C15.3131 16.5008 15.4131 16.2008 15.6131 16.0008L16.3131 15.2008C16.5131 15.0008 16.7131 14.8008 17.0131 14.8008C17.3131 14.8008 17.6131 14.8008 17.8131 15.0008L18.3131 15.3008L18.5131 15.2008V14.6008C18.5131 14.3008 18.6131 14.0008 18.8131 13.8008C19.0131 13.6008 19.3131 13.5008 19.5131 13.4008L20.6131 13.3008H20.7131C21.0131 13.3008 21.2131 13.4008 21.4131 13.6008C21.6131 13.8008 21.7131 14.0008 21.8131 14.3008L21.9131 14.9008L22.1131 15.0008L22.5131 14.6008C22.7131 14.4008 23.0131 14.3008 23.3131 14.3008C23.6131 14.3008 23.8131 14.4008 24.1131 14.6008L24.9131 15.3008C25.1131 15.5008 25.3131 15.7008 25.3131 16.0008C25.3131 16.3008 25.3131 16.6008 25.1131 16.8008L24.8131 17.3008C24.8131 17.4008 24.9131 17.4008 24.9131 17.5008H26.0131V17.6008C26.2131 17.7008 26.3131 17.8008 26.5131 18.0008C26.7131 18.2008 26.7131 18.3008 26.7131 18.5008L26.8131 19.6008C26.8131 19.9008 26.8131 20.2008 26.6131 20.4008C26.4131 20.6008 26.2131 20.8008 25.9131 20.8008L25.1131 20.9008C25.1131 21.0008 25.1131 21.0008 25.0131 21.1008L25.4131 21.6008C25.6131 21.8008 25.7131 22.1008 25.7131 22.4008C25.7131 22.7008 25.6131 23.0008 25.4131 23.2008L24.8131 23.9008C24.7131 24.0008 24.6131 24.1008 24.4131 24.2008C24.2131 24.3008 24.1131 24.3008 23.9131 24.3008C23.7131 24.3008 23.5131 24.2008 23.3131 24.1008L22.8131 23.8008L22.6131 23.9008V24.5008C22.6131 24.8008 22.5131 25.1008 22.3131 25.3008C22.1131 25.5008 21.8131 25.6008 21.6131 25.7008L20.5131 25.8008L20.4131 25.9008ZM20.1131 18.0008C19.6131 18.0008 19.1131 18.2008 18.8131 18.6008C18.5131 19.0008 18.3131 19.4008 18.3131 19.9008C18.3131 20.4008 18.5131 20.9008 18.9131 21.2008C19.3131 21.5008 19.7131 21.7008 20.2131 21.7008H20.4131C20.9131 21.7008 21.4131 21.5008 21.7131 21.1008C22.0131 20.7008 22.2131 20.3008 22.2131 19.8008C22.2131 19.3008 22.0131 18.8008 21.6131 18.5008C21.2131 18.2008 20.8131 18.0008 20.3131 18.0008H20.1131Z" fill="#3D3D4E"/>
<path d="M20.5129 13.9C20.7129 13.9 20.8129 14 20.9129 14.1C21.0129 14.2 21.1129 14.3 21.1129 14.5L21.3129 15.4C21.5129 15.5 21.7129 15.5 22.0129 15.6L22.7129 15C22.8129 14.9 22.8129 14.9 22.9129 14.8C23.0129 14.8 23.1129 14.7 23.2129 14.7C23.4129 14.7 23.5129 14.8 23.7129 14.9L24.5129 15.6C24.6129 15.7 24.7129 15.9 24.7129 16C24.7129 16.2 24.7129 16.3 24.6129 16.5L24.1129 17.3C24.2129 17.5 24.3129 17.7 24.4129 17.9H25.3129C25.5129 17.9 25.6129 18 25.8129 18.1C25.9129 18.2 26.0129 18.4 26.0129 18.6L26.1129 19.7C26.1129 19.9 26.1129 20 26.0129 20.2C25.9129 20.3 25.7129 20.4 25.6129 20.5L24.7129 20.7C24.6129 20.9 24.6129 21.2 24.5129 21.4L25.1129 22.1C25.2129 22.2 25.3129 22.4 25.3129 22.6C25.3129 22.8 25.2129 22.9 25.1129 23.1L24.4129 23.9C24.3129 24 24.3129 24 24.2129 24.1C24.1129 23.9 24.0129 23.9 23.9129 23.9C23.8129 23.9 23.6129 23.9 23.5129 23.8L22.7129 23.3C22.5129 23.4 22.3129 23.5 22.1129 23.6V24.5C22.1129 24.7 22.0129 24.8 21.9129 25C21.8129 25.1 21.6129 25.2 21.4129 25.2L20.3129 25.3H20.2129C20.0129 25.3 19.9129 25.2 19.8129 25.1C19.7129 25 19.6129 24.9 19.6129 24.7L19.4129 23.8C19.2129 23.7 18.9129 23.7 18.7129 23.6L18.0129 24.2C17.9129 24.3 17.7129 24.4 17.5129 24.4C17.3129 24.4 17.2129 24.3 17.0129 24.2L16.2129 23.5C16.1129 23.4 16.0129 23.2 16.0129 23.1C16.0129 22.9 16.0129 22.8 16.1129 22.6L16.6129 21.8C16.5129 21.6 16.4129 21.4 16.3129 21.2H15.4129C15.2129 21.2 15.1129 21.1 14.9129 21C14.8129 20.9 14.7129 20.7 14.7129 20.5L14.6129 19.4C14.6129 19.2 14.7129 19.1 14.8129 19C14.9129 18.9 15.0129 18.8 15.2129 18.8L16.1129 18.6C16.2129 18.4 16.2129 18.1 16.3129 17.9L15.7129 17.2C15.6129 17.1 15.5129 16.9 15.5129 16.7C15.5129 16.5 15.6129 16.4 15.7129 16.2L16.4129 15.4C16.5129 15.3 16.5129 15.3 16.6129 15.2C16.7129 15.2 16.8129 15.1 16.9129 15.1C17.0129 15.1 17.2129 15.1 17.3129 15.2L18.1129 15.7C18.3129 15.6 18.5129 15.5 18.7129 15.4V14.5C18.7129 14.3 18.8129 14.2 18.9129 14C19.0129 13.9 19.2129 13.8 19.3129 13.8L20.5129 13.9ZM20.3129 22.2H20.5129C20.8129 22.2 21.1129 22.1 21.4129 21.9C21.7129 21.8 21.9129 21.6 22.1129 21.3C22.3129 21.1 22.4129 20.8 22.5129 20.5C22.6129 20.2 22.6129 19.9 22.6129 19.6C22.6129 19 22.3129 18.5 21.9129 18.1C21.5129 17.7 20.9129 17.5 20.4129 17.5H20.2129C19.6129 17.6 19.1129 17.9 18.7129 18.3C18.3129 18.7 18.1129 19.3 18.2129 19.9C18.2129 20.5 18.5129 21 18.9129 21.4C19.1129 21.9 19.7129 22.1 20.3129 22.2ZM20.5129 13H20.4129L19.3129 13.1C18.9129 13.1 18.5129 13.3 18.3129 13.6C18.0129 13.9 17.9129 14.3 17.9129 14.7C17.6129 14.5 17.3129 14.4 17.0129 14.4C16.8129 14.4 16.5129 14.5 16.3129 14.6C16.1129 14.7 15.9129 14.9 15.7129 15L15.0129 15.8C14.7129 16.1 14.6129 16.5 14.6129 16.9C14.6129 17.3 14.8129 17.7 15.0129 18C14.6129 18.1 14.3129 18.3 14.0129 18.6C13.8129 18.9 13.7129 19.3 13.7129 19.7L13.8129 20.8C13.8129 21.2 14.0129 21.6 14.3129 21.8C14.6129 22.1 15.0129 22.2 15.4129 22.2C15.2129 22.5 15.1129 22.9 15.2129 23.3C15.3129 23.7 15.5129 24 15.8129 24.3L16.6129 25C16.9129 25.3 17.3129 25.4 17.7129 25.4C18.1129 25.4 18.5129 25.2 18.8129 25C18.9129 25.4 19.1129 25.7 19.4129 25.9C19.7129 26.1 20.0129 26.3 20.4129 26.3H20.6129L21.7129 26.2C22.1129 26.2 22.5129 26 22.7129 25.7C23.0129 25.4 23.1129 25 23.1129 24.6C23.4129 24.8 23.7129 24.9 24.0129 24.9C24.2129 24.9 24.5129 24.8 24.7129 24.7C24.9129 24.6 25.1129 24.4 25.3129 24.3L26.0129 23.5C26.3129 23.2 26.4129 22.8 26.4129 22.4C26.4129 22 26.2129 21.6 26.0129 21.3C26.4129 21.2 26.7129 21 27.0129 20.7C27.2129 20.4 27.3129 20 27.3129 19.6L26.9129 18.5C26.9129 18.3 26.8129 18 26.7129 17.8C26.6129 17.6 26.4129 17.4 26.2129 17.3V17.1H25.3129C25.5129 16.8 25.6129 16.4 25.5129 16C25.4129 15.6 25.2129 15.3 24.9129 15L24.1129 14.3C23.8129 14 23.4129 13.9 23.1129 13.8C22.7129 13.8 22.3129 14 22.0129 14.2C21.9129 13.8 21.7129 13.5 21.4129 13.3C21.2129 13.2 20.9129 13 20.5129 13ZM20.3129 21.3C20.1129 21.3 19.9129 21.3 19.8129 21.2C19.6129 21.1 19.5129 21 19.3129 20.9C19.0129 20.6 18.9129 20.3 18.8129 19.9C18.8129 19.5 18.9129 19.2 19.2129 18.9C19.5129 18.6 19.8129 18.5 20.2129 18.4H20.3129C20.6129 18.4 21.0129 18.5 21.2129 18.8C21.5129 19 21.6129 19.4 21.6129 19.7C21.6129 19.9 21.6129 20.1 21.5129 20.2C21.4129 20.4 21.4129 20.5 21.2129 20.7C21.1129 20.8 20.9129 21 20.8129 21C20.6129 21.1 20.5129 21.1 20.3129 21.2V21.2V21.3Z" fill="white"/>
</svg>
