<svg width="30" height="30" viewBox="0 0 30 30" fill="none" xmlns="http://www.w3.org/2000/svg">
<path d="M17.9094 10.9004C17.9094 13.9004 15.7094 16.3004 13.0094 16.3004C10.3094 16.3004 8.10938 13.9004 8.10938 10.9004H17.9094Z" fill="#D9113D"/>
<path d="M17.909 8.40001H8.20898C8.20898 6.40001 9.20898 4.7 10.609 3.7L11.209 6.5C11.209 6.7 11.409 6.90001 11.709 6.90001H11.809C12.109 6.80001 12.209 6.6 12.209 6.3L11.509 3.3C12.009 3.1 12.509 3 13.009 3C13.609 3 14.109 3.1 14.609 3.3L14.009 6.3C13.909 6.6 14.109 6.80001 14.409 6.90001H14.509C14.709 6.90001 14.909 6.7 15.009 6.5L15.609 3.7C16.909 4.8 17.909 6.50001 17.909 8.40001Z" fill="#D9113D"/>
<path d="M18.2088 9.90001H7.70879C7.30879 9.90001 7.00879 9.6 7.00879 9.2C7.00879 8.8 7.30879 8.5 7.70879 8.5H18.1088C18.5088 8.5 18.8088 8.8 18.8088 9.2C18.9088 9.6 18.6088 9.90001 18.2088 9.90001Z" fill="#D9113D"/>
<path d="M16.0094 16.9008C14.8094 17.8008 13.0094 17.7008 13.0094 17.7008C13.0094 17.7008 11.1094 17.8008 10.0094 16.9008C8.80938 16.0008 8.10938 16.7008 8.10938 16.7008L8.20938 25.6008H13.0094H17.9094L18.0094 16.7008C17.9094 16.7008 17.2094 16.0008 16.0094 16.9008Z" fill="#D9113D"/>
<path d="M6.30902 17.9004V25.0004C6.30902 25.0004 3.40902 24.2004 4.10902 21.6004C4.70902 19.1004 6.00902 17.9004 6.30902 17.9004Z" fill="#D9113D"/>
<path d="M19.709 17.9004V25.0004C19.709 25.0004 22.609 24.2004 21.909 21.6004C21.209 19.0004 19.909 17.9004 19.709 17.9004Z" fill="#D9113D"/>
<path d="M20.8086 26.3008C23.57 26.3008 25.8086 24.0622 25.8086 21.3008C25.8086 18.5394 23.57 16.3008 20.8086 16.3008C18.0472 16.3008 15.8086 18.5394 15.8086 21.3008C15.8086 24.0622 18.0472 26.3008 20.8086 26.3008Z" fill="#FF6B97" stroke="white" stroke-width="1.0376" stroke-miterlimit="10"/>
<path d="M23.2092 21.7004H21.3092V23.6004H20.3092V21.7004H18.4092V20.8004H20.3092V18.9004H21.3092V20.8004H23.2092V21.7004Z" fill="white"/>
</svg>
