<svg width="30" height="30" viewBox="0 0 30 30" fill="none" xmlns="http://www.w3.org/2000/svg">
<path d="M16.3121 10.5996C16.3121 13.4996 14.2121 15.7996 11.6121 15.7996C9.01211 15.7996 6.91211 13.4996 6.91211 10.5996H16.3121Z" fill="#D9113D"/>
<path d="M16.3121 8.2H6.91211C6.91211 6.3 7.81211 4.6 9.21211 3.7L9.81211 6.4C9.81211 6.6 10.0121 6.8 10.3121 6.8H10.4121C10.7121 6.7 10.8121 6.5 10.8121 6.2L10.2121 3.3C10.7121 3.1 11.2121 3 11.7121 3C12.2121 3 12.8121 3.1 13.2121 3.3L12.6121 6.2C12.5121 6.5 12.7121 6.7 13.0121 6.8H13.1121C13.3121 6.8 13.5121 6.7 13.6121 6.4L14.2121 3.7C15.4121 4.7 16.3121 6.3 16.3121 8.2Z" fill="#D9113D"/>
<path d="M16.6121 9.59922H6.61211C6.21211 9.59922 5.91211 9.29922 5.91211 8.89922C5.91211 8.49922 6.21211 8.19922 6.61211 8.19922H16.6121C17.0121 8.19922 17.3121 8.49922 17.3121 8.89922C17.3121 9.29922 17.0121 9.59922 16.6121 9.59922Z" fill="#D9113D"/>
<path d="M14.6127 16.4008C13.5127 17.2008 11.7127 17.1008 11.7127 17.1008C11.7127 17.1008 9.91269 17.2008 8.81269 16.4008C7.71269 15.6008 7.0127 16.2008 7.0127 16.2008L7.1127 24.8008H11.8127H16.5127L16.6127 16.2008C16.4127 16.2008 15.7127 15.5008 14.6127 16.4008Z" fill="#D9113D"/>
<path d="M5.21234 17.3008V24.2008C5.21234 24.2008 2.41235 23.4008 3.11235 21.0008C3.81235 18.6008 4.91234 17.3008 5.21234 17.3008Z" fill="#D9113D"/>
<path d="M18.1123 17.3008V24.2008C18.1123 24.2008 20.9123 23.4008 20.2123 21.0008C19.5123 18.6008 18.3123 17.3008 18.1123 17.3008Z" fill="#D9113D"/>
<path d="M20.3115 26.0004C20.0115 26.0004 19.8115 25.9004 19.6115 25.7004C19.4115 25.5004 19.3115 25.3004 19.2115 25.0004L19.1115 24.4004L18.9115 24.3004L18.5115 24.7004C18.3115 24.9004 18.0115 25.0004 17.7115 25.0004C17.4115 25.0004 17.2115 24.9004 17.0115 24.7004L16.2115 24.0004C15.9115 24.0004 15.7115 23.7004 15.7115 23.4004C15.7115 23.1004 15.7115 22.8004 15.9115 22.6004L16.2115 22.1004C16.2115 22.0004 16.1115 22.0004 16.1115 21.9004H15.5115C15.2115 21.9004 14.9115 21.8004 14.7115 21.6004C14.5115 21.4004 14.4115 21.1004 14.4115 20.8004L14.3115 19.7004C14.3115 19.4004 14.3115 19.1004 14.5115 18.9004C14.7115 18.7004 14.9115 18.5004 15.2115 18.5004L15.8115 18.4004L15.9115 18.2004L15.5115 17.7004C15.3115 17.5004 15.2115 17.2004 15.2115 16.9004C15.2115 16.6004 15.3115 16.3004 15.5115 16.1004L16.2115 15.3004C16.4115 15.1004 16.6115 14.9004 16.9115 14.9004C17.2115 14.9004 17.5115 14.9004 17.7115 15.1004L18.2115 15.4004L18.4115 15.3004V14.7004C18.4115 14.4004 18.5115 14.1004 18.7115 13.9004C18.9115 13.7004 19.2115 13.6004 19.4115 13.5004L20.5115 13.4004H20.6115C20.9115 13.4004 21.1115 13.5004 21.3115 13.7004C21.5115 13.9004 21.6115 14.1004 21.7115 14.4004L21.8115 15.0004L22.0115 15.1004L22.4115 14.7004C22.6115 14.5004 22.9115 14.4004 23.2115 14.4004C23.5115 14.4004 23.7115 14.5004 24.0115 14.7004L24.8115 15.4004C25.0115 15.6004 25.2115 15.8004 25.2115 16.1004C25.2115 16.4004 25.2115 16.7004 25.0115 16.9004L24.7115 17.4004C24.7115 17.5004 24.8115 17.5004 24.8115 17.6004H25.9115V17.7004C26.1115 17.8004 26.2115 17.9004 26.4115 18.1004C26.6115 18.3004 26.6115 18.4004 26.6115 18.6004L26.7115 19.7004C26.7115 20.0004 26.7115 20.3004 26.5115 20.5004C26.3115 20.7004 26.1115 20.9004 25.8115 20.9004L25.0115 21.0004C25.0115 21.1004 25.0115 21.1004 24.9115 21.2004L25.3115 21.7004C25.5115 21.9004 25.6115 22.2004 25.6115 22.5004C25.6115 22.8004 25.5115 23.1004 25.3115 23.3004L24.8115 24.0004C24.7115 24.1004 24.6115 24.2004 24.4115 24.3004C24.2115 24.4004 24.1115 24.4004 23.9115 24.4004C23.7115 24.4004 23.5115 24.3004 23.3115 24.2004L22.7115 23.9004L22.6115 24.0004V24.6004C22.6115 24.9004 22.5115 25.2004 22.3115 25.4004C22.1115 25.6004 21.8115 25.7004 21.6115 25.8004L20.5115 25.9004L20.3115 26.0004ZM20.1115 18.1004C19.6115 18.1004 19.1115 18.3004 18.8115 18.7004C18.5115 19.1004 18.3115 19.5004 18.3115 20.0004C18.3115 20.5004 18.5115 21.0004 18.9115 21.3004C19.3115 21.6004 19.7115 21.8004 20.2115 21.8004H20.4115C20.9115 21.8004 21.4115 21.6004 21.7115 21.2004C22.0115 20.8004 22.2115 20.4004 22.2115 19.9004C22.2115 19.4004 22.0115 18.9004 21.6115 18.6004C21.2115 18.3004 20.8115 18.1004 20.3115 18.1004H20.1115Z" fill="#FF6B97"/>
<path d="M20.5119 13.9996C20.7119 13.9996 20.8119 14.0996 20.9119 14.1996C21.0119 14.2996 21.1119 14.3996 21.1119 14.5996L21.3119 15.4996C21.5119 15.5996 21.7119 15.5996 22.0119 15.6996L22.7119 15.0996C22.8119 14.9996 22.8119 14.9996 22.9119 14.8996C23.0119 14.8996 23.1119 14.7996 23.2119 14.7996C23.4119 14.7996 23.5119 14.8996 23.7119 14.9996L24.5119 15.6996C24.6119 15.7996 24.7119 15.9996 24.7119 16.0996C24.7119 16.2996 24.7119 16.3996 24.6119 16.5996L24.1119 17.3996C24.2119 17.5996 24.3119 17.7996 24.4119 17.9996H25.3119C25.5119 17.9996 25.6119 18.0996 25.8119 18.1996C25.9119 18.2996 26.0119 18.4996 26.0119 18.6996L26.1119 19.7996C26.1119 19.9996 26.1119 20.0996 26.0119 20.2996C25.9119 20.4996 25.7119 20.4996 25.6119 20.5996L24.7119 20.7996C24.6119 20.9996 24.6119 21.2996 24.5119 21.4996L25.1119 22.1996C25.2119 22.2996 25.3119 22.4996 25.3119 22.6996C25.3119 22.8996 25.2119 22.9996 25.1119 23.1996L24.4119 23.9996C24.3119 24.0996 24.3119 24.0996 24.2119 24.1996C24.1119 24.1996 24.0119 24.2996 23.9119 24.2996C23.8119 24.2996 23.6119 24.2996 23.5119 24.1996L22.7119 23.3996C22.5119 23.4996 22.3119 23.5996 22.1119 23.6996V24.5996C22.1119 24.7996 22.0119 24.8996 21.9119 25.0996C21.8119 25.1996 21.6119 25.2996 21.4119 25.2996L20.3119 25.3996H20.2119C20.0119 25.3996 19.9119 25.2996 19.8119 25.1996C19.7119 25.0996 19.6119 24.9996 19.6119 24.7996L19.4119 23.8996C19.2119 23.7996 18.9119 23.7996 18.7119 23.6996L18.0119 24.2996C17.9119 24.3996 17.7119 24.4996 17.5119 24.4996C17.3119 24.4996 17.2119 24.3996 17.0119 24.2996L16.2119 23.5996C16.1119 23.4996 16.0119 23.2996 16.0119 23.1996C16.0119 22.9996 16.0119 22.8996 16.1119 22.6996L16.7119 21.9996C16.6119 21.7996 16.5119 21.5996 16.4119 21.3996H15.5119C15.3119 21.3996 15.2119 21.2996 15.0119 21.1996C14.9119 21.0996 14.8119 20.8996 14.8119 20.6996L14.7119 19.6996C14.7119 19.4996 14.8119 19.3996 14.9119 19.2996C15.0119 19.1996 15.1119 19.0996 15.3119 19.0996L16.2119 18.8996C16.3119 18.6996 16.3119 18.3996 16.4119 18.1996L15.8119 17.4996C15.7119 17.3996 15.6119 17.1996 15.6119 16.9996C15.6119 16.7996 15.7119 16.6996 15.8119 16.4996L16.5119 15.6996C16.6119 15.5996 16.6119 15.5996 16.7119 15.4996C16.8119 15.4996 16.9119 15.3996 17.0119 15.3996C17.1119 15.3996 17.3119 15.3996 17.4119 15.4996L18.2119 15.9996C18.4119 15.8996 18.6119 15.7996 18.8119 15.6996V14.7996C18.8119 14.5996 18.9119 14.4996 19.0119 14.2996C19.1119 14.1996 19.3119 14.0996 19.4119 14.0996L20.5119 13.9996ZM20.3119 22.2996H20.5119C20.8119 22.2996 21.1119 22.1996 21.4119 21.9996C21.7119 21.8996 21.9119 21.6996 22.1119 21.3996C22.3119 21.1996 22.4119 20.8996 22.5119 20.5996C22.6119 20.2996 22.6119 19.9996 22.6119 19.6996C22.6119 19.0996 22.3119 18.5996 21.9119 18.1996C21.5119 17.7996 20.9119 17.5996 20.4119 17.5996H20.2119C19.6119 17.6996 19.1119 17.9996 18.7119 18.3996C18.3119 18.7996 18.1119 19.3996 18.2119 19.9996C18.2119 20.5996 18.5119 21.0996 18.9119 21.4996C19.1119 21.9996 19.7119 22.1996 20.3119 22.2996ZM20.5119 13.0996H20.4119L19.3119 13.1996C18.9119 13.1996 18.5119 13.3996 18.3119 13.6996C18.0119 13.9996 17.9119 14.3996 17.9119 14.7996C17.6119 14.5996 17.3119 14.4996 17.0119 14.4996C16.8119 14.4996 16.5119 14.5996 16.3119 14.6996C16.1119 14.7996 15.9119 14.9996 15.7119 15.0996L15.0119 15.8996C14.7119 16.1996 14.6119 16.5996 14.6119 16.9996C14.6119 17.3996 14.8119 17.7996 15.0119 18.0996C14.6119 18.1996 14.3119 18.3996 14.0119 18.6996C13.8119 18.9996 13.7119 19.3996 13.7119 19.7996L13.8119 20.8996C13.8119 21.2996 14.0119 21.6996 14.3119 21.8996C14.6119 22.1996 15.0119 22.2996 15.4119 22.2996C15.2119 22.5996 15.1119 22.9996 15.2119 23.3996C15.3119 23.7996 15.5119 24.0996 15.8119 24.3996L16.6119 25.0996C16.9119 25.3996 17.3119 25.4996 17.7119 25.4996C18.1119 25.4996 18.5119 25.2996 18.8119 25.0996C18.9119 25.4996 19.1119 25.7996 19.4119 25.9996C19.7119 26.1996 20.0119 26.3996 20.4119 26.3996H20.6119L21.7119 26.2996C22.1119 26.2996 22.5119 26.0996 22.7119 25.7996C23.0119 25.4996 23.1119 25.0996 23.1119 24.6996C23.4119 24.8996 23.7119 24.9996 24.0119 24.9996C24.2119 24.9996 24.5119 24.8996 24.7119 24.7996C24.9119 24.6996 25.1119 24.4996 25.3119 24.3996L26.0119 23.5996C26.3119 23.2996 26.4119 22.8996 26.4119 22.4996C26.4119 22.0996 26.2119 21.6996 26.0119 21.3996C26.4119 21.2996 26.7119 21.0996 27.0119 20.7996C27.2119 20.4996 27.3119 20.0996 27.3119 19.6996L27.2119 18.5996C27.2119 18.3996 27.1119 18.0996 27.0119 17.8996C26.9119 17.6996 26.7119 17.4996 26.5119 17.3996V17.1996H25.6119C25.8119 16.8996 25.9119 16.4996 25.8119 16.0996C25.7119 15.6996 25.5119 15.3996 25.2119 15.0996L24.4119 14.3996C24.1119 14.0996 23.7119 13.9996 23.4119 13.8996C23.0119 13.8996 22.6119 14.0996 22.3119 14.2996C22.2119 13.8996 22.0119 13.5996 21.7119 13.3996C21.2119 13.2996 20.8119 13.0996 20.5119 13.0996ZM20.2119 21.3996C20.0119 21.3996 19.8119 21.3996 19.7119 21.2996C19.5119 21.1996 19.4119 21.0996 19.2119 20.9996C18.9119 20.6996 18.8119 20.3996 18.7119 19.9996C18.7119 19.5996 18.8119 19.2996 19.1119 18.9996C19.4119 18.6996 19.7119 18.5996 20.1119 18.4996H20.2119C20.5119 18.4996 20.9119 18.5996 21.1119 18.8996C21.4119 19.0996 21.5119 19.4996 21.5119 19.7996C21.5119 19.9996 21.5119 20.1996 21.4119 20.2996C21.3119 20.4996 21.3119 20.5996 21.1119 20.7996C21.0119 20.8996 20.8119 21.0996 20.7119 21.0996C20.5119 21.1996 20.4119 21.1996 20.2119 21.2996V21.3996Z" fill="white"/>
</svg>
