<svg width="30" height="30" viewBox="0 0 30 30" fill="none" xmlns="http://www.w3.org/2000/svg">
<path d="M14.9403 28.7302C22.2083 28.7302 28.1003 22.8382 28.1003 15.5702C28.1003 8.30209 22.2083 2.41016 14.9403 2.41016C7.67221 2.41016 1.78027 8.30209 1.78027 15.5702C1.78027 22.8382 7.67221 28.7302 14.9403 28.7302Z" fill="#FF6B97" stroke="white" stroke-width="0.83" stroke-miterlimit="10"/>
<path d="M9.49039 23.5003C11.1969 23.5003 12.5804 22.1169 12.5804 20.4103C12.5804 18.7038 11.1969 17.3203 9.49039 17.3203C7.78383 17.3203 6.40039 18.7038 6.40039 20.4103C6.40039 22.1169 7.78383 23.5003 9.49039 23.5003Z" fill="white"/>
<path d="M9.48953 22.1295C10.4395 22.1295 11.2095 21.3594 11.2095 20.4095C11.2095 19.4595 10.4395 18.6895 9.48953 18.6895C8.5396 18.6895 7.76953 19.4595 7.76953 20.4095C7.76953 21.3594 8.5396 22.1295 9.48953 22.1295Z" fill="#FF6B97"/>
<path d="M20.3898 23.5003C22.0964 23.5003 23.4798 22.1169 23.4798 20.4103C23.4798 18.7038 22.0964 17.3203 20.3898 17.3203C18.6832 17.3203 17.2998 18.7038 17.2998 20.4103C17.2998 22.1169 18.6832 23.5003 20.3898 23.5003Z" fill="white"/>
<path d="M20.3899 22.1295C21.3399 22.1295 22.1099 21.3594 22.1099 20.4095C22.1099 19.4595 21.3399 18.6895 20.3899 18.6895C19.44 18.6895 18.6699 19.4595 18.6699 20.4095C18.6699 21.3594 19.44 22.1295 20.3899 22.1295Z" fill="#FF6B97"/>
<path d="M14.9004 12.3105V15.5705" stroke="#D9113D" stroke-width="0.76" stroke-miterlimit="10"/>
<path d="M9.49023 17.3205V15.3105H20.3902V17.3205" stroke="#D9113D" stroke-width="0.76" stroke-miterlimit="10"/>
<path d="M14.8996 12.4691C16.6061 12.4691 17.9896 11.0856 17.9896 9.37906C17.9896 7.6725 16.6061 6.28906 14.8996 6.28906C13.193 6.28906 11.8096 7.6725 11.8096 9.37906C11.8096 11.0856 13.193 12.4691 14.8996 12.4691Z" fill="white"/>
<path d="M14.8997 11.1002C15.8496 11.1002 16.6197 10.3301 16.6197 9.38016C16.6197 8.43023 15.8496 7.66016 14.8997 7.66016C13.9498 7.66016 13.1797 8.43023 13.1797 9.38016C13.1797 10.3301 13.9498 11.1002 14.8997 11.1002Z" fill="#D9113D"/>
</svg>
