<svg width="30" height="30" viewBox="0 0 30 30" fill="none" xmlns="http://www.w3.org/2000/svg">
<path d="M13.9001 12.8C16.2001 12.8 18.1001 10.8 18.1001 8.4C18.1001 6 16.2001 4 13.9001 4C11.6001 4 9.70006 6 9.70006 8.4C9.60006 10.8 11.5001 12.8 13.9001 12.8Z" fill="#D9113D"/>
<path d="M13.9 15.8008C10.6 15.8008 4 17.5008 4 21.0008V24.7008H23.7V21.0008C23.7 17.5008 17.1 15.8008 13.9 15.8008Z" fill="#D9113D"/>
<path d="M21.6003 15.7L22.5003 18.4C22.6003 18.7 22.8003 18.8 23.1003 18.8H26.0003C26.6003 18.8 26.8003 19.6 26.4003 19.9L24.1003 21.6C23.9003 21.8 23.8003 22 23.9003 22.3L24.8003 25C25.0003 25.6 24.3003 26 23.9003 25.7L21.6003 24C21.4003 23.8 21.1003 23.8 20.9003 24L18.6003 25.7C18.1003 26 17.5003 25.6 17.7003 25L18.3003 22.3C18.4003 22 18.3003 21.8 18.1003 21.6L15.8003 19.9C15.3003 19.6 15.6003 18.8 16.2003 18.8H19.1003C19.4003 18.8 19.6003 18.6 19.7003 18.4L20.6003 15.7C20.7003 15.1 21.5003 15.1 21.6003 15.7Z" fill="#FF6B97" stroke="white" stroke-width="0.6235" stroke-miterlimit="10"/>
</svg>
