<svg width="30" height="30" viewBox="0 0 30 30" fill="none" xmlns="http://www.w3.org/2000/svg">
<path d="M13.9002 12.8C16.2002 12.8 18.1002 10.8 18.1002 8.4C18.1002 6 16.2002 4 13.9002 4C11.6002 4 9.7002 6 9.7002 8.4C9.7002 10.8 11.6002 12.8 13.9002 12.8Z" fill="#3D3D4E"/>
<path d="M13.9 15.8008C10.6 15.8008 4 17.5008 4 21.0008V24.7008H23.7V21.0008C23.8 17.5008 17.2 15.8008 13.9 15.8008Z" fill="#3D3D4E"/>
<path d="M21.6997 15.7L22.5997 18.4C22.6997 18.7 22.8997 18.8 23.1997 18.8H26.0997C26.6997 18.8 26.8997 19.6 26.4997 19.9L24.1997 21.6C23.9997 21.8 23.8997 22 23.9997 22.3L24.8997 25C25.0997 25.6 24.3997 26 23.9997 25.7L21.6997 24C21.4997 23.8 21.1997 23.8 20.9997 24L18.6997 25.7C18.1997 26 17.5997 25.6 17.7997 25L18.6997 22.3C18.7997 22 18.6997 21.8 18.4997 21.6L16.1997 19.9C15.6997 19.6 15.9997 18.8 16.5997 18.8H19.4997C19.7997 18.8 19.9997 18.6 20.0997 18.4L20.9997 15.7C20.6997 15.1 21.4997 15.1 21.6997 15.7Z" fill="#3D3D4E" stroke="white" stroke-width="0.6235" stroke-miterlimit="10"/>
</svg>
