<svg width="22" height="23" viewBox="0 0 22 23" fill="none" xmlns="http://www.w3.org/2000/svg">
<path fill-rule="evenodd" clip-rule="evenodd" d="M10.917 2.8125V7.22917L10.917 7.28357C10.9169 7.70764 10.9168 8.11977 10.9625 8.45969C11.014 8.84289 11.1396 9.28016 11.5028 9.64338C11.866 10.0066 12.3033 10.1321 12.6865 10.1836C13.0264 10.2293 13.4385 10.2293 13.8626 10.2292H13.8626L13.917 10.2292H18.3337V15.6458C18.3337 18.2386 18.3337 19.5349 17.5282 20.3404C16.7227 21.1458 15.4264 21.1458 12.8337 21.1458H9.16699C6.57427 21.1458 5.2779 21.1458 4.47245 20.3404C3.66699 19.5349 3.66699 18.2386 3.66699 15.6458V8.3125C3.66699 5.71977 3.66699 4.42341 4.47245 3.61796C5.2779 2.8125 6.57427 2.8125 9.16699 2.8125H10.917ZM12.917 2.81922V7.22917C12.917 7.72884 12.9191 8.003 12.9447 8.19319L12.9457 8.20047L12.953 8.20147C13.1432 8.22704 13.4173 8.22917 13.917 8.22917H18.3269C18.3152 7.89756 18.2829 7.66796 18.1941 7.45364C18.0545 7.11673 17.7896 6.85178 17.2597 6.3219L17.2597 6.32189L14.8243 3.88644C14.2944 3.35655 14.0294 3.09161 13.6925 2.95205C13.4782 2.86328 13.2486 2.83098 12.917 2.81922ZM7.25033 12.8958C7.25033 12.3435 7.69804 11.8958 8.25033 11.8958L13.7503 11.8958C14.3026 11.8958 14.7503 12.3435 14.7503 12.8958C14.7503 13.4481 14.3026 13.8958 13.7503 13.8958L8.25033 13.8958C7.69804 13.8958 7.25033 13.4481 7.25033 12.8958ZM8.25033 15.5625C7.69804 15.5625 7.25033 16.0102 7.25033 16.5625C7.25033 17.1148 7.69804 17.5625 8.25033 17.5625H11.917C12.4693 17.5625 12.917 17.1148 12.917 16.5625C12.917 16.0102 12.4693 15.5625 11.917 15.5625H8.25033Z" fill="#3D3D4E"/>
</svg>
