<svg width="30" height="30" viewBox="0 0 30 30" fill="none" xmlns="http://www.w3.org/2000/svg">
<path d="M22.8801 26.4793C22.331 27.0314 21.6781 27.4695 20.959 27.7684C20.2399 28.0674 19.4689 28.2213 18.6902 28.2213C17.9114 28.2213 17.1404 28.0674 16.4213 27.7684C15.7022 27.4695 15.0493 27.0314 14.5002 26.4793L10.5602 22.5493L6.32015 18.2993C5.76805 17.7501 5.32994 17.0972 5.03098 16.3781C4.73203 15.6591 4.57813 14.888 4.57812 14.1093C4.57813 13.3305 4.73203 12.5595 5.03098 11.8404C5.32994 11.1213 5.76805 10.4685 6.32015 9.91926C7.43199 8.80909 8.93896 8.18555 10.5102 8.18555C12.0813 8.18555 13.5883 8.80909 14.7002 9.91926L19.0002 14.1893L22.9202 18.0993C24.025 19.2164 24.6414 20.7263 24.6339 22.2975C24.6264 23.8687 23.9956 25.3727 22.8801 26.4793Z" fill="#FF6B97"/>
<path d="M19.0002 14.1893L14.7002 9.91926C13.5883 8.80909 12.0813 8.18555 10.5102 8.18555C8.93896 8.18555 7.43199 8.80909 6.32015 9.91926C5.76805 10.4685 5.32994 11.1213 5.03098 11.8404C4.73203 12.5595 4.57813 13.3305 4.57812 14.1093C4.57813 14.888 4.73203 15.6591 5.03098 16.3781C5.32994 17.0972 5.76805 17.7501 6.32015 18.2993L10.5602 22.5493L19.0002 14.1893Z" fill="#D9113D"/>
<path d="M6.8896 13.4004C6.75257 13.921 6.74661 14.4675 6.87224 14.991C6.99788 15.5144 7.25121 15.9987 7.6096 16.4004C8.8096 17.8104 11.2096 20.2504 11.2096 20.2504" stroke="white" stroke-width="0.5" stroke-miterlimit="10" stroke-linecap="round"/>
<path d="M20.0004 26.5097C19.4788 26.6436 18.9323 26.6471 18.4091 26.5198C17.8859 26.3924 17.4021 26.1383 17.0004 25.7797C15.5904 24.5797 13.1504 22.1797 13.1504 22.1797" stroke="white" stroke-width="0.5" stroke-miterlimit="10" stroke-linecap="round"/>
<path d="M16.3797 13.3902C19.2516 13.3902 21.5797 11.0621 21.5797 8.19023C21.5797 5.31835 19.2516 2.99023 16.3797 2.99023C13.5078 2.99023 11.1797 5.31835 11.1797 8.19023C11.1797 11.0621 13.5078 13.3902 16.3797 13.3902Z" fill="#FF6B97" stroke="white" stroke-width="0.8" stroke-miterlimit="10"/>
<path d="M18.8446 6.72954C19.1219 6.45226 19.1234 6.0043 18.8481 5.72898C18.5728 5.45366 18.1248 5.45524 17.8476 5.73251L13.909 9.6711C13.6317 9.94837 13.6301 10.3963 13.9054 10.6717C14.1808 10.947 14.6287 10.9454 14.906 10.6681L18.8446 6.72954Z" fill="white"/>
</svg>
