<svg width="30" height="30" viewBox="0 0 30 30" fill="none" xmlns="http://www.w3.org/2000/svg">
<path d="M11.1002 12.2C13.3002 12.2 15.0002 10.4 15.0002 8.1C15.0002 5.8 13.3002 4 11.1002 4C8.9002 4 7.2002 5.8 7.2002 8.1C7.2002 10.3 8.9002 12.2 11.1002 12.2Z" fill="#3D3D4E"/>
<path d="M11.1 14.9004C8.1 14.9004 2 16.5004 2 19.7004V23.1004H20.2V19.7004C20.2 16.5004 14.1 14.9004 11.1 14.9004Z" fill="#3D3D4E"/>
<path d="M20.3998 25.8C20.0998 25.8 19.7998 25.7 19.5998 25.5C19.3998 25.3 19.1998 25.1 19.1998 24.8L19.0998 24.1L18.8998 24L18.3998 24.4C18.1998 24.6 17.8998 24.7 17.4998 24.7C17.1998 24.7 16.8998 24.6 16.6998 24.4L15.7998 23.7C15.5998 23.5 15.3998 23.2 15.3998 22.9C15.3998 22.6 15.3998 22.3 15.5998 22L15.8998 21.5C15.8998 21.4 15.7998 21.4 15.7998 21.3H15.0998C14.7998 21.3 14.4998 21.2 14.2998 20.9C14.0998 20.7 13.8998 20.4 13.8998 20.1L13.7998 19C13.7998 18.7 13.8998 18.4 13.9998 18.1C14.1998 17.9 14.3998 17.7 14.6998 17.6L15.2998 17.5L15.3998 17.3L15.0998 17C14.8998 16.8 14.7998 16.5 14.7998 16.2C14.7998 15.9 14.8998 15.6 15.0998 15.4L15.7998 14.5C15.9998 14.3 16.2998 14.1 16.5998 14.1C16.8998 14.1 17.1998 14.1 17.4998 14.3L17.9998 14.7L18.1998 14.6V13.8C18.1998 13.5 18.2998 13.2 18.4998 13C18.6998 12.8 18.9998 12.6 19.2998 12.6L20.3998 12.5H20.4998C20.7998 12.5 21.0998 12.6 21.2998 12.8C21.4998 13 21.6998 13.2 21.6998 13.5L21.7998 14.1L21.9998 14.2L22.4998 13.7C22.6998 13.5 22.9998 13.4 23.2998 13.4C23.5998 13.4 23.8998 13.5 24.0998 13.7L24.9998 14.4C25.1998 14.6 25.3998 14.9 25.3998 15.2C25.3998 15.5 25.3998 15.8 25.1998 16.1L24.9998 16.6C24.9998 16.7 25.0998 16.7 25.0998 16.8H26.1998V16.9C26.3998 17 26.5998 17.1 26.6998 17.3C26.7998 17.5 26.8998 17.7 26.8998 17.9L26.9998 19C26.9998 19.3 26.8998 19.6 26.7998 19.9C26.5998 20.1 26.3998 20.3 26.0998 20.4L25.4998 20.5C25.4998 20.6 25.4998 20.6 25.3998 20.7L25.8998 21.2C26.0998 21.4 26.1998 21.7 26.1998 22C26.1998 22.3 26.0998 22.6 25.8998 22.8L25.1998 23.7C25.0998 23.8 24.9998 24 24.7998 24C24.5998 24.1 24.3998 24.1 24.2998 24.1C24.0998 24.1 23.7998 24 23.5998 23.9L22.9998 23.6L22.7998 23.7V24.4C22.7998 24.7 22.6998 25 22.4998 25.2C22.2998 25.4 21.9998 25.6 21.6998 25.6L20.5998 25.7L20.3998 25.8ZM20.1998 17.3C19.6998 17.3 19.1998 17.6 18.7998 17.9C18.3998 18.3 18.2998 18.8 18.2998 19.3C18.2998 19.8 18.5998 20.3 18.8998 20.7C19.2998 21.1 19.7998 21.2 20.2998 21.2H20.4998C20.9998 21.2 21.4998 20.9 21.8998 20.6C22.2998 20.2 22.3998 19.7 22.3998 19.2C22.3998 18.7 22.0998 18.2 21.7998 17.8C21.3998 17.4 20.8998 17.3 20.3998 17.3H20.1998V17.3Z" fill="#3D3D4E"/>
<path d="M20.6002 13C20.8002 13 20.9002 13.1 21.1002 13.2C21.2002 13.3 21.3002 13.5 21.4002 13.6L21.6002 14.6C21.8002 14.7 22.1002 14.7 22.3002 14.8L23.0002 14.1C23.0002 14 23.1002 14 23.2002 13.9C23.3002 13.9 23.4002 13.8 23.5002 13.8C23.7002 13.8 23.9002 13.9 24.0002 14L24.9002 14.7C25.0002 14.8 25.1002 15 25.2002 15.2C25.2002 15.4 25.2002 15.6 25.1002 15.7L24.6002 16.5C24.7002 16.7 24.9002 16.9 25.0002 17.2H26.0002C26.2002 17.2 26.4002 17.3 26.5002 17.4C26.6002 17.5 26.7002 17.7 26.7002 17.9L26.8002 19C26.8002 19.2 26.8002 19.4 26.7002 19.5C26.6002 19.6 26.4002 19.8 26.3002 19.8L25.3002 20C25.2002 20.2 25.2002 20.5 25.1002 20.7L25.8002 21.4C25.9002 21.5 26.0002 21.7 26.0002 21.9C26.0002 22.1 25.9002 22.3 25.8002 22.4L25.1002 23.3C25.0002 23.4 24.9002 23.5 24.8002 23.5C24.7002 23.5 24.6002 23.6 24.5002 23.6C24.4002 23.6 24.2002 23.6 24.1002 23.5L23.0002 23C22.8002 23.1 22.6002 23.3 22.3002 23.4V24.4C22.3002 24.6 22.2002 24.8 22.1002 24.9C22.0002 24.9 21.8002 25 21.6002 25L20.5002 25.1H20.4002C20.2002 25.1 20.1002 25 19.9002 24.9C19.8002 24.8 19.7002 24.6 19.6002 24.5L19.4002 23.5C19.2002 23.4 18.9002 23.4 18.7002 23.3L18.0002 24C17.9002 24.1 17.7002 24.2 17.5002 24.2C17.3002 24.2 17.1002 24.1 17.0002 24L16.1002 23.3C16.0002 23.2 15.9002 23 15.8002 22.8C15.8002 22.6 15.8002 22.4 15.9002 22.3L16.4002 21.5C16.3002 21.3 16.2002 21.1 16.0002 20.8H15.0002C14.8002 20.8 14.6002 20.7 14.5002 20.6C14.4002 20.5 14.3002 20.3 14.3002 20.1L14.4002 19C14.4002 18.8 14.5002 18.7 14.6002 18.5C14.7002 18.4 14.9002 18.3 15.0002 18.3L16.0002 18.1C16.1002 17.9 16.1002 17.6 16.2002 17.4L15.5002 16.7C15.4002 16.6 15.3002 16.4 15.3002 16.2C15.3002 16 15.4002 15.8 15.5002 15.7L16.2002 14.8C16.3002 14.7 16.4002 14.6 16.5002 14.6C16.6002 14.6 16.7002 14.5 16.8002 14.5C16.9002 14.5 17.1002 14.5 17.2002 14.6L18.0002 15.1C18.2002 15 18.4002 14.8 18.7002 14.7V13.7C18.7002 13.5 18.8002 13.3 18.9002 13.2C19.0002 13.1 19.2002 13 19.4002 13H20.6002ZM20.4002 21.8H20.6002C20.9002 21.8 21.2002 21.7 21.5002 21.5C21.8002 21.3 22.0002 21.1 22.2002 20.9C22.4002 20.6 22.6002 20.4 22.6002 20C22.7002 19.7 22.7002 19.4 22.7002 19C22.6002 18.4 22.4002 17.8 21.9002 17.4C21.4002 17 20.9002 16.8 20.2002 16.7H20.0002C19.4002 16.8 18.8002 17.1 18.4002 17.6C18.0002 18.1 17.8002 18.7 17.8002 19.3C17.8002 19.9 18.1002 20.5 18.5002 21C19.1002 21.5 19.7002 21.8 20.4002 21.8ZM20.6002 12H20.4002L19.3002 12.1C18.9002 12.1 18.5002 12.3 18.2002 12.7C17.9002 13 17.7002 13.4 17.7002 13.9C17.4002 13.7 17.1002 13.6 16.7002 13.6C16.4002 13.6 16.2002 13.7 16.0002 13.8C15.8002 13.9 15.6002 14.1 15.4002 14.3L14.7002 15C14.4002 15.3 14.3002 15.7 14.3002 16.2C14.3002 16.6 14.5002 17 14.8002 17.3C14.4002 17.4 14.0002 17.6 13.8002 18C13.6002 18.3 13.4002 18.8 13.5002 19.2L13.6002 20.3C13.6002 20.7 13.8002 21.1 14.1002 21.4C14.4002 21.7 14.8002 21.9 15.2002 21.9C15.0002 22.3 14.9002 22.7 14.9002 23.1C14.9002 23.5 15.2002 23.9 15.5002 24.2L16.4002 24.9C16.7002 25.2 17.1002 25.3 17.6002 25.3C18.0002 25.3 18.4002 25.1 18.7002 24.8C18.8002 25.2 19.0002 25.5 19.3002 25.8C19.6002 26 20.0002 26.2 20.4002 26.2H20.6002L21.7002 26.1C22.1002 26.1 22.5002 25.9 22.8002 25.6C23.1002 25.3 23.3002 24.9 23.3002 24.5C23.6002 24.7 23.9002 24.8 24.3002 24.8C24.6002 24.8 24.8002 24.7 25.0002 24.6C25.2002 24.5 25.4002 24.3 25.6002 24.1L26.3002 23.2C26.6002 22.9 26.7002 22.5 26.7002 22C26.7002 21.6 26.5002 21.2 26.2002 20.9C26.6002 20.8 27.0002 20.6 27.2002 20.2C27.4002 19.9 27.6002 19.4 27.5002 19L27.4002 17.9C27.4002 17.7 27.3002 17.4 27.2002 17.2C27.1002 17 26.9002 16.8 26.7002 16.7V16.4H25.7002C25.9002 16 26.0002 15.6 25.9002 15.2C25.8002 14.8 25.6002 14.4 25.3002 14.1L24.4002 13.4C24.1002 13.1 23.7002 12.9 23.3002 12.9C22.9002 12.9 22.4002 13.1 22.1002 13.4C22.0002 13 21.8002 12.7 21.5002 12.4C21.4002 12.1 21.0002 12 20.6002 12ZM20.3002 20.8C20.1002 20.8 19.9002 20.8 19.7002 20.7C19.5002 20.6 19.3002 20.5 19.2002 20.4C18.9002 20.1 18.7002 19.8 18.7002 19.4C18.7002 19 18.8002 18.6 19.1002 18.3C19.4002 18 19.7002 17.8 20.1002 17.8H20.2002C20.6002 17.8 20.9002 17.9 21.2002 18.2C21.5002 18.5 21.6002 18.8 21.7002 19.2C21.7002 19.4 21.7002 19.6 21.6002 19.8C21.5002 20 21.5002 20.2 21.3002 20.3C21.2002 20.5 21.0002 20.6 20.9002 20.7C20.7002 20.8 20.5002 20.9 20.3002 20.9V20.9V20.8Z" fill="white"/>
</svg>
