<svg width="30" height="30" viewBox="0 0 30 30" fill="none" xmlns="http://www.w3.org/2000/svg">
<path d="M11.1002 12.2C13.3002 12.2 15.0002 10.4 15.0002 8.1C15.0002 5.8 13.3002 4 11.1002 4C8.9002 4 7.2002 5.8 7.2002 8.1C7.2002 10.3 9.0002 12.2 11.1002 12.2Z" fill="#D9113D"/>
<path d="M11.1 14.9004C8.1 14.9004 2 16.5004 2 19.7004V23.1004H20.2V19.7004C20.2 16.5004 14.2 14.9004 11.1 14.9004Z" fill="#D9113D"/>
<path d="M20.5004 25.8C20.2004 25.8 19.9004 25.7 19.7004 25.5C19.5004 25.3 19.3004 25.1 19.3004 24.8L19.2004 24.1L19.0004 24L18.5004 24.4C18.3004 24.6 18.0004 24.7 17.6004 24.7C17.3004 24.7 17.0004 24.6 16.8004 24.4L15.9004 23.7C15.7004 23.5 15.5004 23.2 15.5004 22.9C15.5004 22.6 15.5004 22.3 15.7004 22L16.0004 21.5C16.0004 21.4 15.9004 21.4 15.9004 21.3H15.2004C14.9004 21.3 14.6004 21.2 14.4004 20.9C14.2004 20.7 14.0004 20.4 14.0004 20.1L13.9004 19C13.9004 18.7 14.0004 18.4 14.1004 18.1C14.3004 17.9 14.5004 17.7 14.8004 17.6L15.4004 17.5L15.5004 17.3L15.2004 17C15.0004 16.8 14.9004 16.5 14.9004 16.2C14.9004 15.9 15.0004 15.6 15.2004 15.4L15.9004 14.5C16.1004 14.3 16.4004 14.1 16.7004 14.1C17.0004 14.1 17.3004 14.1 17.6004 14.3L18.1004 14.7L18.3004 14.6V13.8C18.3004 13.5 18.4004 13.2 18.6004 13C18.8004 12.8 19.1004 12.6 19.4004 12.6L20.5004 12.5H20.7004C21.0004 12.5 21.3004 12.6 21.5004 12.8C21.7004 13 21.9004 13.2 21.9004 13.5L22.0004 14.1L22.2004 14.2L22.7004 13.7C22.9004 13.5 23.2004 13.4 23.5004 13.4C23.8004 13.4 24.1004 13.5 24.3004 13.7L25.2004 14.4C25.4004 14.6 25.6004 14.9 25.6004 15.2C25.6004 15.5 25.6004 15.8 25.4004 16.1L25.0004 16.7C25.0004 16.8 25.1004 16.8 25.1004 16.9H26.2004V17C26.4004 17.1 26.6004 17.2 26.7004 17.4C26.8004 17.6 26.9004 17.8 26.9004 18L27.0004 19.1C27.0004 19.4 26.9004 19.7 26.8004 20C26.6004 20.2 26.4004 20.4 26.1004 20.5L25.5004 20.6C25.5004 20.7 25.5004 20.7 25.4004 20.8L25.9004 21.3C26.1004 21.5 26.2004 21.8 26.2004 22.1C26.2004 22.4 26.1004 22.7 25.9004 22.9L25.2004 23.8C25.1004 23.9 24.9004 24.1 24.8004 24.1C24.6004 24.2 24.4004 24.2 24.3004 24.2C24.1004 24.2 23.8004 24.1 23.6004 24L23.0004 23.6L22.8004 23.7V24.4C22.8004 24.7 22.7004 25 22.5004 25.2C22.3004 25.4 22.0004 25.6 21.7004 25.6L20.6004 25.7L20.5004 25.8ZM20.2004 17.3C19.7004 17.3 19.2004 17.6 18.8004 17.9C18.4004 18.3 18.3004 18.8 18.3004 19.3C18.3004 19.8 18.6004 20.3 18.9004 20.7C19.3004 21.1 19.8004 21.2 20.3004 21.2H20.5004C21.0004 21.2 21.5004 20.9 21.9004 20.6C22.3004 20.2 22.4004 19.7 22.4004 19.2C22.4004 18.7 22.1004 18.2 21.8004 17.8C21.4004 17.4 20.9004 17.3 20.4004 17.3H20.2004V17.3Z" fill="#FF6B97"/>
<path d="M20.6002 13C20.8002 13 20.9002 13.1 21.1002 13.2C21.2002 13.3 21.3002 13.5 21.4002 13.6L21.6002 14.6C21.8002 14.7 22.1002 14.7 22.3002 14.8L23.0002 14.1C23.1002 14 23.1002 14 23.2002 13.9C23.3002 13.9 23.4002 13.8 23.5002 13.8C23.7002 13.8 23.9002 13.9 24.0002 14L24.9002 14.7C25.0002 14.8 25.1002 15 25.2002 15.2C25.2002 15.4 25.2002 15.6 25.1002 15.7L24.6002 16.5C24.7002 16.7 24.9002 16.9 25.0002 17.2H26.0002C26.2002 17.2 26.4002 17.3 26.5002 17.4C26.6002 17.5 26.7002 17.7 26.7002 17.9V19C26.7002 19.2 26.7002 19.4 26.6002 19.5C26.5002 19.6 26.3002 19.8 26.2002 19.8L25.2002 20C25.1002 20.2 25.1002 20.5 25.0002 20.7L25.7002 21.4C25.8002 21.5 25.9002 21.7 25.9002 21.9C25.9002 22.1 25.8002 22.3 25.7002 22.4L25.0002 23.3C24.9002 23.4 24.8002 23.5 24.7002 23.5C24.6002 23.5 24.5002 23.6 24.4002 23.6C24.3002 23.6 24.1002 23.6 24.0002 23.5L23.0002 23C22.8002 23.1 22.6002 23.3 22.3002 23.4V24.4C22.3002 24.6 22.2002 24.8 22.1002 24.9C22.0002 24.9 21.8002 25 21.7002 25L20.6002 25.1H20.5002C20.3002 25.1 20.2002 25 20.0002 24.9C19.9002 24.8 19.8002 24.6 19.7002 24.5L19.5002 23.5C19.3002 23.4 19.0002 23.4 18.8002 23.3L18.1002 24C18.0002 24.1 17.8002 24.2 17.6002 24.2C17.4002 24.2 17.2002 24.1 17.1002 24L16.2002 23.3C16.1002 23.2 16.0002 23 15.9002 22.8C15.9002 22.6 15.9002 22.4 16.0002 22.3L16.5002 21.5C16.4002 21.3 16.3002 21.1 16.1002 20.8H15.1002C14.9002 20.8 14.7002 20.7 14.6002 20.6C14.5002 20.5 14.4002 20.3 14.4002 20.1V19C14.4002 18.8 14.5002 18.7 14.6002 18.5C14.7002 18.4 14.9002 18.3 15.0002 18.3L16.0002 18.1C16.1002 17.9 16.1002 17.6 16.2002 17.4L15.5002 16.7C15.4002 16.6 15.3002 16.4 15.3002 16.2C15.3002 16 15.4002 15.8 15.5002 15.7L16.2002 14.8C16.3002 14.7 16.4002 14.6 16.5002 14.6C16.6002 14.6 16.7002 14.5 16.8002 14.5C16.9002 14.5 17.1002 14.5 17.2002 14.6L18.0002 15.1C18.2002 15 18.4002 14.8 18.7002 14.7V13.7C18.7002 13.5 18.8002 13.3 18.9002 13.2C19.0002 13.1 19.2002 13 19.4002 13H20.6002ZM20.4002 21.8H20.7002C21.0002 21.8 21.3002 21.7 21.6002 21.5C21.9002 21.3 22.1002 21.1 22.3002 20.9C22.5002 20.6 22.7002 20.4 22.7002 20C22.8002 19.7 22.8002 19.4 22.8002 19C22.7002 18.4 22.5002 17.8 22.0002 17.4C21.5002 17 21.0002 16.8 20.3002 16.7H20.1002C19.5002 16.8 18.9002 17.1 18.5002 17.6C18.1002 18.1 17.9002 18.7 17.9002 19.3C17.9002 19.9 18.2002 20.5 18.6002 21C19.2002 21.5 19.8002 21.8 20.4002 21.8ZM20.6002 12H20.4002L19.3002 12.1C18.9002 12.1 18.5002 12.3 18.2002 12.7C17.9002 13 17.7002 13.4 17.7002 13.9C17.4002 13.7 17.1002 13.6 16.7002 13.6C16.4002 13.6 16.2002 13.7 16.0002 13.8C15.8002 13.9 15.6002 14.1 15.4002 14.3L14.7002 15C14.4002 15.3 14.3002 15.7 14.3002 16.2C14.3002 16.6 14.5002 17 14.8002 17.3C14.4002 17.4 14.0002 17.6 13.8002 18C13.6002 18.3 13.4002 18.8 13.5002 19.2L13.6002 20.3C13.6002 20.7 13.8002 21.1 14.1002 21.4C14.4002 21.7 14.8002 21.9 15.2002 21.9C15.0002 22.3 14.9002 22.7 14.9002 23.1C15.0002 23.5 15.2002 23.9 15.5002 24.2L16.4002 24.9C16.7002 25.2 17.1002 25.3 17.6002 25.3C18.0002 25.3 18.4002 25.1 18.7002 24.8C18.8002 25.2 19.0002 25.5 19.3002 25.8C19.6002 26 20.0002 26.2 20.4002 26.2H20.6002L21.7002 26.1C22.1002 26.1 22.5002 25.9 22.8002 25.6C23.1002 25.3 23.3002 24.9 23.3002 24.5C23.6002 24.7 23.9002 24.8 24.3002 24.8C24.6002 24.8 24.8002 24.7 25.0002 24.6C25.2002 24.5 25.4002 24.3 25.6002 24.1L26.3002 23.2C26.6002 22.9 26.7002 22.5 26.7002 22C26.7002 21.6 26.5002 21.2 26.2002 20.9C26.6002 20.8 27.0002 20.6 27.2002 20.2C27.4002 19.9 27.6002 19.4 27.5002 19L27.4002 17.9C27.4002 17.7 27.3002 17.4 27.2002 17.2C27.1002 17 26.9002 16.8 26.7002 16.7V16.4H25.7002C25.9002 16 26.0002 15.6 25.9002 15.2C25.8002 14.8 25.6002 14.4 25.3002 14.1L24.4002 13.4C24.1002 13.1 23.7002 12.9 23.3002 12.9C22.9002 12.9 22.4002 13.1 22.1002 13.4C22.0002 13 21.8002 12.7 21.5002 12.4C21.4002 12.1 21.0002 12 20.6002 12ZM20.4002 20.8C20.2002 20.8 20.0002 20.8 19.8002 20.7C19.6002 20.6 19.4002 20.5 19.3002 20.4C19.0002 20.1 18.8002 19.8 18.8002 19.4C18.8002 19 18.9002 18.6 19.2002 18.3C19.5002 18 19.8002 17.8 20.2002 17.8H20.3002C20.7002 17.8 21.0002 17.9 21.3002 18.2C21.6002 18.5 21.7002 18.8 21.8002 19.2C21.8002 19.4 21.8002 19.6 21.7002 19.8C21.6002 20 21.6002 20.2 21.4002 20.3C21.3002 20.5 21.1002 20.6 21.0002 20.7C20.8002 20.8 20.6002 20.9 20.4002 20.9V20.8Z" fill="white"/>
</svg>
