<svg width="32" height="30" viewBox="0 0 32 30" fill="none" xmlns="http://www.w3.org/2000/svg">
<g clip-path="url(#clip0_2489_56030)">
<path d="M30.7585 16.9863H1.24805V29.2576H30.7585V16.9863Z" fill="#2C80FF"/>
<path d="M25.8854 2.7793H6.11553C5.90502 2.7793 5.73438 2.95329 5.73438 3.16793V4.37085C5.73438 4.58549 5.90502 4.75949 6.11553 4.75949H25.8854C26.0959 4.75949 26.2666 4.58549 26.2666 4.37085V3.16793C26.2666 2.95329 26.0959 2.7793 25.8854 2.7793Z" fill="#1D1E1B"/>
<path d="M31.6188 15.0059H0.38115C0.170647 15.0059 0 15.1799 0 15.3945V16.5974C0 16.8121 0.170647 16.986 0.38115 16.986H31.6188C31.8294 16.986 32 16.8121 32 16.5974V15.3945C32 15.1799 31.8294 15.0059 31.6188 15.0059Z" fill="#1D1E1B"/>
<path d="M25.0699 4.71484H6.93652V29.2575H25.0699V4.71484Z" fill="#FF6B97"/>
<path d="M12.6611 8.29102H9.90527V11.1009H12.6611V8.29102Z" fill="white"/>
<path d="M17.3818 8.29102H14.626V11.1009H17.3818V8.29102Z" fill="white"/>
<path d="M21.9853 8.29102H19.2295V11.1009H21.9853V8.29102Z" fill="white"/>
<path d="M12.7157 13.584H9.95996V16.3939H12.7157V13.584Z" fill="white"/>
<path d="M17.4364 13.584H14.6807V16.3939H17.4364V13.584Z" fill="white"/>
<path d="M22.04 13.584H19.2842V16.3939H22.04V13.584Z" fill="white"/>
<path d="M20.1193 19.6035H12.6611V29.2562H20.1193V19.6035Z" fill="white"/>
<path d="M19.1074 0H13.6699V4.8271H19.1074V0Z" fill="#2C80FF"/>
<path d="M17.6101 2.41406H15.1689" stroke="#F5F5F7" stroke-miterlimit="10"/>
<path d="M16.3896 1.16992V3.65904" stroke="#F5F5F7" stroke-miterlimit="10"/>
</g>
<defs>
<clipPath id="clip0_2489_56030">
<rect width="32" height="29.2571" fill="white"/>
</clipPath>
</defs>
</svg>
