<svg width="37" height="36" viewBox="0 0 37 36" fill="none" xmlns="http://www.w3.org/2000/svg">
<circle cx="18.5" cy="18" r="18" fill="#DADADA"/>
<path d="M23.24 21.54C23.24 22.2333 23.0733 22.88 22.74 23.48C22.4067 24.0667 21.9 24.54 21.22 24.9C20.54 25.26 19.7067 25.44 18.72 25.44C17.76 25.44 16.9 25.2733 16.14 24.94C15.38 24.5933 14.7733 24.1133 14.32 23.5C13.8667 22.8867 13.6067 22.18 13.54 21.38H15.98C16.0467 21.9933 16.3067 22.52 16.76 22.96C17.2267 23.4 17.8467 23.62 18.62 23.62C19.3133 23.62 19.8467 23.4333 20.22 23.06C20.6067 22.6867 20.8 22.2067 20.8 21.62C20.8 21.1133 20.66 20.7 20.38 20.38C20.1 20.0467 19.7533 19.7867 19.34 19.6C18.9267 19.4133 18.36 19.2 17.64 18.96C16.76 18.68 16.04 18.4 15.48 18.12C14.9333 17.84 14.4667 17.4333 14.08 16.9C13.6933 16.3667 13.5 15.6667 13.5 14.8C13.5 14.04 13.6867 13.3733 14.06 12.8C14.4333 12.2267 14.9667 11.7867 15.66 11.48C16.3533 11.16 17.1533 11 18.06 11C19.5 11 20.64 11.3467 21.48 12.04C22.3333 12.7333 22.82 13.64 22.94 14.76H20.48C20.3867 14.2267 20.1333 13.7733 19.72 13.4C19.32 13.0133 18.7667 12.82 18.06 12.82C17.42 12.82 16.9067 12.9867 16.52 13.32C16.1333 13.64 15.94 14.1067 15.94 14.72C15.94 15.2 16.0733 15.6 16.34 15.92C16.6067 16.2267 16.94 16.4733 17.34 16.66C17.7533 16.8333 18.3133 17.04 19.02 17.28C19.9133 17.56 20.64 17.8467 21.2 18.14C21.7733 18.42 22.2533 18.8333 22.64 19.38C23.04 19.9267 23.24 20.6467 23.24 21.54Z" fill="#6E6D7A"/>
</svg>
