<svg width="30" height="30" viewBox="0 0 30 30" fill="none" xmlns="http://www.w3.org/2000/svg">
<path d="M17.5 13.3V5H7.1V9.09999H3V23.6H11.3V19.5H13.3V23.6H21.6V13.2H17.5V13.3ZM7.1 21.6H5V19.5H7.1V21.6ZM7.1 17.4H5V15.3H7.1V17.4ZM7.1 13.3H5V11.2H7.1V13.3ZM11.3 17.4H9.2V15.3H11.3V17.4ZM11.3 13.3H9.2V11.2H11.3V13.3ZM11.3 9.09999H9.2V7H11.3V9.09999ZM15.4 17.4H13.3V15.3H15.4V17.4ZM15.4 13.3H13.3V11.2H15.4V13.3ZM15.4 9.09999H13.3V7H15.4V9.09999ZM19.6 21.6H17.5V19.5H19.6V21.6ZM19.6 17.4H17.5V15.3H19.6V17.4Z" fill="#D9113D"/>
<path d="M20.6998 25.2996C20.3998 25.2996 20.1998 25.1996 19.9998 24.9996C19.7998 24.7996 19.6998 24.5996 19.5998 24.2996L19.4998 23.6996L19.2998 23.5996L18.8998 23.9996C18.6998 24.1996 18.3998 24.2996 18.0998 24.2996C17.7998 24.2996 17.5998 24.1996 17.3998 23.9996L16.5998 23.2996C16.3998 23.0996 16.1998 22.8996 16.1998 22.5996C16.1998 22.2996 16.1998 21.9996 16.3998 21.7996L16.6998 21.2996C16.6998 21.1996 16.5998 21.1996 16.5998 21.0996H15.9998C15.6998 21.0996 15.3998 20.9996 15.1998 20.7996C14.9998 20.5996 14.8998 20.2996 14.8998 19.9996L14.7998 18.8996C14.7998 18.5996 14.7998 18.2996 14.9998 18.0996C15.1998 17.8996 15.3998 17.6996 15.6998 17.6996L16.2998 17.5996L16.3998 17.3996L15.9998 16.8996C15.7998 16.6996 15.6998 16.3996 15.6998 16.0996C15.6998 15.7996 15.7998 15.4996 15.9998 15.2996L16.6998 14.4996C16.8998 14.2996 17.0998 14.0996 17.3998 14.0996C17.6998 14.0996 17.9998 14.0996 18.1998 14.2996L18.6998 14.5996L18.8998 14.4996V13.8996C18.8998 13.5996 18.9998 13.2996 19.1998 13.0996C19.3998 12.8996 19.6998 12.7996 19.8998 12.6996L20.9998 12.5996H21.0998C21.3998 12.5996 21.5998 12.6996 21.7998 12.8996C21.9998 13.0996 22.0998 13.2996 22.1998 13.5996L22.2998 14.1996L22.4998 14.2996L22.8998 13.8996C23.0998 13.6996 23.3998 13.5996 23.6998 13.5996C23.9998 13.5996 24.1998 13.6996 24.4998 13.8996L25.2998 14.5996C25.4998 14.7996 25.6998 14.9996 25.6998 15.2996C25.6998 15.5996 25.6998 15.8996 25.4998 16.0996L25.1998 16.5996C25.1998 16.6996 25.2998 16.6996 25.2998 16.7996H26.3998V16.8996C26.5998 16.9996 26.6998 17.0996 26.8998 17.2996C26.9998 17.4996 27.0998 17.5996 27.0998 17.7996L27.1998 18.8996C27.1998 19.1996 27.1998 19.4996 26.9998 19.6996C26.7998 19.8996 26.5998 20.0996 26.2998 20.0996L25.6998 20.1996C25.6998 20.2996 25.6998 20.2996 25.5998 20.3996L25.9998 20.8996C26.1998 21.0996 26.2998 21.3996 26.2998 21.6996C26.2998 21.9996 26.1998 22.2996 25.9998 22.4996L25.2998 23.2996C25.1998 23.3996 25.0998 23.4996 24.8998 23.5996C24.6998 23.6996 24.5998 23.6996 24.3998 23.6996C24.1998 23.6996 23.9998 23.5996 23.7998 23.4996L23.2998 23.1996L23.0998 23.2996V23.8996C23.0998 24.1996 22.9998 24.4996 22.7998 24.6996C22.5998 24.8996 22.2998 24.9996 22.0998 25.0996L20.9998 25.1996L20.6998 25.2996ZM20.4998 17.4996C19.9998 17.4996 19.4998 17.6996 19.1998 18.0996C18.8998 18.4996 18.6998 18.8996 18.6998 19.3996C18.6998 19.8996 18.8998 20.3996 19.2998 20.6996C19.6998 20.9996 20.0998 21.1996 20.5998 21.1996H20.7998C21.2998 21.1996 21.7998 20.9996 22.0998 20.5996C22.3998 20.1996 22.5998 19.7996 22.5998 19.2996C22.5998 18.7996 22.3998 18.2996 21.9998 17.9996C21.5998 17.6996 21.1998 17.4996 20.6998 17.4996H20.4998Z" fill="#FF6B97"/>
<path d="M20.8996 13.4C21.0996 13.4 21.1996 13.5 21.2996 13.6C21.3996 13.7 21.4996 13.8 21.4996 14L21.6996 14.9C21.8996 15 22.0996 15 22.3996 15.1L23.0996 14.5C23.1996 14.4 23.1996 14.4 23.2996 14.3C23.3996 14.3 23.4996 14.2 23.5996 14.2C23.7996 14.2 23.8996 14.3 24.0996 14.4L24.8996 15.1C24.9996 15.2 25.0996 15.4 25.0996 15.5C25.0996 15.7 25.0996 15.8 24.9996 16L24.4996 16.8C24.5996 17 24.6996 17.2 24.7996 17.4H25.6996C25.8996 17.4 25.9996 17.5 26.1996 17.6C26.2996 17.7 26.3996 17.9 26.3996 18.1L26.4996 19.2C26.4996 19.4 26.4996 19.5 26.3996 19.7C26.2996 19.8 26.0996 19.9 25.9996 20L25.0996 20.2C24.9996 20.4 24.9996 20.7 24.8996 20.9L25.4996 21.6C25.5996 21.7 25.6996 21.9 25.6996 22.1C25.6996 22.3 25.5996 22.4 25.4996 22.6L24.7996 23.4C24.6996 23.5 24.6996 23.5 24.5996 23.6C24.4996 23.6 24.3996 23.7 24.2996 23.7C24.1996 23.7 23.9996 23.7 23.8996 23.6L23.0996 23.1C22.8996 23.2 22.6996 23.3 22.4996 23.4V24.3C22.4996 24.5 22.3996 24.6 22.2996 24.8C22.1996 24.9 21.9996 25 21.7996 25L20.6996 25.1H20.5996C20.3996 25.1 20.2996 25 20.1996 24.9C20.0996 24.8 19.9996 24.7 19.9996 24.5L19.7996 23.6C19.5996 23.5 19.2996 23.5 19.0996 23.4L18.3996 24C18.2996 24.1 18.0996 24.2 17.8996 24.2C17.6996 24.2 17.5996 24.1 17.3996 24L16.5996 23.3C16.4996 23.2 16.3996 23 16.3996 22.9C16.3996 22.7 16.3996 22.6 16.4996 22.4L16.9996 21.6C16.8996 21.4 16.7996 21.2 16.6996 21H15.7996C15.5996 21 15.4996 20.9 15.2996 20.8C15.1996 20.7 15.0996 20.5 15.0996 20.3L14.9996 19.2C14.9996 19 15.0996 18.9 15.1996 18.8C15.2996 18.7 15.3996 18.6 15.5996 18.6L16.4996 18.4C16.5996 18.2 16.5996 17.9 16.6996 17.7L16.0996 17C15.9996 16.9 15.8996 16.7 15.8996 16.5C15.8996 16.3 15.9996 16.2 16.0996 16L16.7996 15.2C16.8996 15.1 16.8996 15.1 16.9996 15C17.0996 15 17.1996 14.9 17.2996 14.9C17.3996 14.9 17.5996 14.9 17.6996 15L18.4996 15.5C18.6996 15.4 18.8996 15.3 19.0996 15.2V14.3C19.0996 14.1 19.1996 14 19.2996 13.8C19.3996 13.7 19.5996 13.6 19.6996 13.6L20.8996 13.4ZM20.6996 21.6H20.8996C21.1996 21.6 21.4996 21.5 21.7996 21.3C22.0996 21.2 22.2996 21 22.4996 20.7C22.6996 20.5 22.7996 20.2 22.8996 19.9C22.9996 19.6 22.9996 19.3 22.9996 19C22.9996 18.4 22.6996 17.9 22.2996 17.5C21.8996 17.1 21.2996 16.9 20.7996 16.9H20.5996C19.9996 17 19.4996 17.3 19.0996 17.7C18.6996 18.1 18.4996 18.7 18.5996 19.3C18.5996 19.9 18.8996 20.4 19.2996 20.8C19.6996 21.2 20.0996 21.6 20.6996 21.6ZM20.8996 12.5H20.7996L19.6996 12.6C19.2996 12.6 18.8996 12.8 18.6996 13.1C18.3996 13.4 18.2996 13.8 18.2996 14.2C17.9996 14 17.6996 13.9 17.3996 13.9C17.1996 13.9 16.8996 14 16.6996 14.1C16.4996 14.2 16.2996 14.4 16.0996 14.5L15.3996 15.3C15.0996 15.6 14.9996 16 14.9996 16.4C14.9996 16.8 15.1996 17.2 15.3996 17.5C14.9996 17.6 14.6996 17.8 14.3996 18.1C14.1996 18.4 14.0996 18.8 14.0996 19.2L14.1996 20.3C14.1996 20.7 14.3996 21.1 14.6996 21.3C14.9996 21.6 15.3996 21.7 15.7996 21.7C15.5996 22 15.4996 22.4 15.5996 22.8C15.6996 23.2 15.8996 23.5 16.1996 23.8L16.9996 24.5C17.2996 24.8 17.6996 24.9 18.0996 24.9C18.4996 24.9 18.8996 24.7 19.1996 24.5C19.2996 24.9 19.4996 25.2 19.7996 25.4C20.0996 25.6 20.3996 25.8 20.7996 25.8H20.9996L22.0996 25.7C22.4996 25.7 22.8996 25.5 23.0996 25.2C23.3996 24.9 23.4996 24.5 23.4996 24.1C23.7996 24.3 24.0996 24.4 24.3996 24.4C24.5996 24.4 24.8996 24.3 25.0996 24.2C25.2996 24.1 25.4996 23.9 25.6996 23.8L26.3996 23C26.6996 22.7 26.7996 22.3 26.7996 21.9C26.7996 21.5 26.5996 21.1 26.3996 20.8C26.7996 20.7 27.0996 20.5 27.3996 20.2C27.5996 19.9 27.6996 19.5 27.6996 19.1L27.2996 17.9C27.2996 17.7 27.1996 17.4 27.0996 17.2C26.9996 17 26.7996 16.8 26.5996 16.7V16.5H25.6996C25.8996 16.2 25.9996 15.8 25.8996 15.4C25.7996 15 25.5996 14.7 25.2996 14.4L24.4996 13.7C24.1996 13.4 23.7996 13.3 23.4996 13.2C23.0996 13.2 22.6996 13.4 22.3996 13.6C22.2996 13.2 22.0996 12.9 21.7996 12.7C21.5996 12.6 21.1996 12.5 20.8996 12.5ZM20.5996 20.7C20.3996 20.7 20.1996 20.7 20.0996 20.6C19.9996 20.5 19.7996 20.4 19.5996 20.3C19.2996 20 19.1996 19.7 19.0996 19.3C19.0996 18.9 19.1996 18.6 19.4996 18.3C19.7996 18 20.0996 17.9 20.4996 17.8H20.5996C20.8996 17.8 21.2996 17.9 21.4996 18.2C21.7996 18.4 21.8996 18.8 21.8996 19.1C21.8996 19.3 21.8996 19.5 21.7996 19.6C21.6996 19.8 21.6996 19.9 21.4996 20.1C21.3996 20.2 21.1996 20.4 21.0996 20.4C20.8996 20.5 20.7996 20.5 20.5996 20.6V20.7Z" fill="white"/>
<path d="M16.1002 5.80078H8.2002V9.70079H16.1002V5.80078Z" fill="#D9113D"/>
<path d="M12.2998 9.80078C13.4044 9.80078 14.2998 8.90535 14.2998 7.80078C14.2998 6.69621 13.4044 5.80078 12.2998 5.80078C11.1952 5.80078 10.2998 6.69621 10.2998 7.80078C10.2998 8.90535 11.1952 9.80078 12.2998 9.80078Z" fill="#D9113D"/>
<path d="M12.5002 6.60156V7.60156H13.4002V8.00157H12.5002V9.00157H12.1002V8.00157H11.2002V7.60156H12.1002V6.60156H12.5002Z" fill="white" stroke="white" stroke-width="0.25" stroke-miterlimit="10"/>
</svg>
