<svg width="30" height="30" viewBox="0 0 30 30" fill="none" xmlns="http://www.w3.org/2000/svg">
<path d="M17.5 13.3V5H7.1V9.09999H3V23.6H11.3V19.5H13.4V23.6H21.7V13.2H17.5V13.3ZM7.1 21.6H5.1V19.5H7.2V21.6H7.1ZM7.1 17.4H5.1V15.3H7.2V17.4H7.1ZM7.1 13.3H5.1V11.2H7.2V13.3H7.1ZM11.3 17.4H9.2V15.3H11.3V17.4ZM11.3 13.3H9.2V11.2H11.3V13.3ZM11.3 9.09999H9.2V7H11.3V9.09999ZM15.4 17.4H13.4V15.3H15.4V17.4ZM15.4 13.3H13.4V11.2H15.4V13.3ZM15.4 9.09999H13.4V7H15.4V9.09999ZM19.6 21.6H17.5V19.5H19.6V21.6ZM19.6 17.4H17.5V15.3H19.6V17.4Z" fill="#3D3D4E"/>
<path d="M20.6998 25.2996C20.3998 25.2996 20.1998 25.1996 19.9998 24.9996C19.7998 24.7996 19.6998 24.5996 19.5998 24.2996L19.4998 23.6996L19.2998 23.5996L18.8998 23.9996C18.6998 24.1996 18.3998 24.2996 18.0998 24.2996C17.7998 24.2996 17.5998 24.1996 17.3998 23.9996L16.5998 23.2996C16.3998 23.0996 16.1998 22.8996 16.1998 22.5996C16.1998 22.2996 16.1998 21.9996 16.3998 21.7996L16.6998 21.2996C16.6998 21.1996 16.5998 21.1996 16.5998 21.0996H15.9998C15.6998 21.0996 15.3998 20.9996 15.1998 20.7996C14.9998 20.5996 14.8998 20.2996 14.8998 19.9996L14.7998 18.8996C14.7998 18.5996 14.7998 18.2996 14.9998 18.0996C15.1998 17.8996 15.3998 17.6996 15.6998 17.6996L16.2998 17.5996L16.3998 17.3996L15.9998 16.8996C15.7998 16.6996 15.6998 16.3996 15.6998 16.0996C15.6998 15.7996 15.7998 15.4996 15.9998 15.2996L16.6998 14.4996C16.8998 14.2996 17.0998 14.0996 17.3998 14.0996C17.6998 14.0996 17.9998 14.0996 18.1998 14.2996L18.6998 14.5996L18.8998 14.4996V13.8996C18.8998 13.5996 18.9998 13.2996 19.1998 13.0996C19.3998 12.8996 19.6998 12.7996 19.8998 12.6996L20.9998 12.5996H21.0998C21.3998 12.5996 21.5998 12.6996 21.7998 12.8996C21.9998 13.0996 22.0998 13.2996 22.1998 13.5996L22.2998 14.1996L22.4998 14.2996L22.8998 13.8996C23.0998 13.6996 23.3998 13.5996 23.6998 13.5996C23.9998 13.5996 24.1998 13.6996 24.4998 13.8996L25.2998 14.5996C25.4998 14.7996 25.6998 14.9996 25.6998 15.2996C25.6998 15.5996 25.6998 15.8996 25.4998 16.0996L25.1998 16.5996C25.1998 16.6996 25.2998 16.6996 25.2998 16.7996H26.3998V16.8996C26.5998 16.9996 26.6998 17.0996 26.8998 17.2996C26.9998 17.4996 27.0998 17.5996 27.0998 17.7996L27.1998 18.8996C27.1998 19.1996 27.1998 19.4996 26.9998 19.6996C26.7998 19.8996 26.5998 20.0996 26.2998 20.0996L25.6998 20.1996C25.6998 20.2996 25.6998 20.2996 25.5998 20.3996L25.9998 20.8996C26.1998 21.0996 26.2998 21.3996 26.2998 21.6996C26.2998 21.9996 26.1998 22.2996 25.9998 22.4996L25.2998 23.2996C25.1998 23.3996 25.0998 23.4996 24.8998 23.5996C24.6998 23.6996 24.5998 23.6996 24.3998 23.6996C24.1998 23.6996 23.9998 23.5996 23.7998 23.4996L23.2998 23.1996L23.0998 23.2996V23.8996C23.0998 24.1996 22.9998 24.4996 22.7998 24.6996C22.5998 24.8996 22.2998 24.9996 22.0998 25.0996L20.9998 25.1996L20.6998 25.2996ZM20.4998 17.3996C19.9998 17.3996 19.4998 17.5996 19.1998 17.9996C18.8998 18.3996 18.6998 18.7996 18.6998 19.2996C18.6998 19.7996 18.8998 20.2996 19.2998 20.5996C19.6998 20.8996 20.0998 21.0996 20.5998 21.0996H20.7998C21.2998 21.0996 21.7998 20.8996 22.0998 20.4996C22.3998 20.0996 22.5998 19.6996 22.5998 19.1996C22.5998 18.6996 22.3998 18.1996 21.9998 17.8996C21.5998 17.5996 21.1998 17.3996 20.6998 17.3996H20.4998Z" fill="#3D3D4E"/>
<path d="M20.8996 13.3004C21.0996 13.3004 21.1996 13.4004 21.2996 13.5004C21.3996 13.6004 21.4996 13.7004 21.4996 13.9004L21.6996 14.8004C21.8996 14.9004 22.0996 14.9004 22.3996 15.0004L23.0996 14.4004C23.1996 14.3004 23.1996 14.3004 23.2996 14.2004C23.3996 14.2004 23.4996 14.1004 23.5996 14.1004C23.7996 14.1004 23.8996 14.2004 24.0996 14.3004L24.8996 15.0004C24.9996 15.1004 25.0996 15.3004 25.0996 15.4004C25.0996 15.6004 25.0996 15.7004 24.9996 15.9004L24.4996 16.7004C24.5996 16.9004 24.6996 17.1004 24.7996 17.3004H25.6996C25.8996 17.3004 25.9996 17.4004 26.1996 17.5004C26.2996 17.6004 26.3996 17.8004 26.3996 18.0004L26.4996 19.1004C26.4996 19.3004 26.4996 19.4004 26.3996 19.6004C26.2996 19.7004 26.0996 19.8004 25.9996 19.9004L25.0996 20.1004C24.9996 20.3004 24.9996 20.6004 24.8996 20.8004L25.4996 21.5004C25.5996 21.6004 25.6996 21.8004 25.6996 22.0004C25.6996 22.2004 25.5996 22.3004 25.4996 22.5004L24.7996 23.3004C24.6996 23.4004 24.6996 23.4004 24.5996 23.5004C24.4996 23.5004 24.3996 23.6004 24.2996 23.6004C24.1996 23.6004 23.9996 23.6004 23.8996 23.5004L23.0996 23.0004C22.8996 23.1004 22.6996 23.2004 22.4996 23.3004V24.2004C22.4996 24.4004 22.3996 24.5004 22.2996 24.7004C22.1996 24.9004 21.9996 24.9004 21.7996 24.9004L20.6996 25.0004H20.5996C20.3996 25.0004 20.2996 24.9004 20.1996 24.8004C20.0996 24.7004 19.9996 24.6004 19.9996 24.4004L19.7996 23.5004C19.5996 23.4004 19.2996 23.4004 19.0996 23.3004L18.3996 23.9004C18.2996 24.0004 18.0996 24.1004 17.8996 24.1004C17.6996 24.1004 17.5996 24.0004 17.3996 23.9004L16.5996 23.2004C16.4996 23.1004 16.3996 22.9004 16.3996 22.8004C16.3996 22.6004 16.3996 22.5004 16.4996 22.3004L16.9996 21.5004C16.8996 21.3004 16.7996 21.1004 16.6996 20.9004H15.7996C15.5996 20.9004 15.4996 20.8004 15.2996 20.7004C15.1996 20.6004 15.0996 20.4004 15.0996 20.2004L14.9996 19.1004C14.9996 18.9004 15.0996 18.8004 15.1996 18.7004C15.2996 18.6004 15.3996 18.5004 15.5996 18.5004L16.4996 18.3004C16.5996 18.1004 16.5996 17.8004 16.6996 17.6004L16.0996 16.9004C15.9996 16.8004 15.8996 16.6004 15.8996 16.4004C15.8996 16.2004 15.9996 16.1004 16.0996 15.9004L16.7996 15.1004C16.8996 15.0004 16.8996 15.0004 16.9996 14.9004C17.0996 14.8004 17.1996 14.8004 17.2996 14.8004C17.3996 14.8004 17.5996 14.8004 17.6996 14.9004L18.4996 15.4004C18.6996 15.3004 18.8996 15.2004 19.0996 15.1004V14.2004C19.0996 14.0004 19.1996 13.9004 19.2996 13.7004C19.3996 13.6004 19.5996 13.5004 19.6996 13.5004L20.8996 13.3004ZM20.6996 21.6004H20.8996C21.1996 21.6004 21.4996 21.5004 21.7996 21.3004C22.0996 21.2004 22.2996 21.0004 22.4996 20.7004C22.6996 20.5004 22.7996 20.2004 22.8996 19.9004C22.9996 19.6004 22.9996 19.3004 22.9996 19.0004C22.9996 18.4004 22.6996 17.9004 22.2996 17.5004C21.8996 17.1004 21.2996 16.9004 20.7996 16.9004H20.3996C19.7996 17.0004 19.2996 17.3004 18.8996 17.7004C18.4996 18.1004 18.2996 18.7004 18.3996 19.3004C18.3996 19.9004 18.6996 20.4004 19.0996 20.8004C19.4996 21.3004 20.0996 21.6004 20.6996 21.6004ZM20.8996 12.4004H20.7996L19.6996 12.5004C19.2996 12.5004 18.8996 12.7004 18.6996 13.0004C18.3996 13.3004 18.2996 13.7004 18.2996 14.1004C17.9996 13.9004 17.6996 13.8004 17.3996 13.8004C17.1996 13.8004 16.8996 13.9004 16.6996 14.0004C16.4996 14.1004 16.2996 14.3004 16.0996 14.4004L15.3996 15.2004C15.0996 15.5004 14.9996 15.9004 14.9996 16.3004C14.9996 16.7004 15.1996 17.1004 15.3996 17.4004C14.9996 17.5004 14.6996 17.7004 14.3996 18.0004C14.1996 18.3004 14.0996 18.7004 14.0996 19.1004L14.1996 20.2004C14.1996 20.6004 14.3996 21.0004 14.6996 21.2004C14.9996 21.5004 15.3996 21.6004 15.7996 21.6004C15.5996 21.9004 15.4996 22.3004 15.5996 22.7004C15.6996 23.1004 15.8996 23.4004 16.1996 23.7004L16.9996 24.4004C17.2996 24.7004 17.6996 24.8004 18.0996 24.8004C18.4996 24.8004 18.8996 24.6004 19.1996 24.4004C19.2996 24.8004 19.4996 25.1004 19.7996 25.3004C20.0996 25.5004 20.3996 25.7004 20.7996 25.7004H20.9996L22.0996 25.6004C22.4996 25.6004 22.8996 25.4004 23.0996 25.1004C23.3996 24.8004 23.4996 24.4004 23.4996 24.0004C23.7996 24.2004 24.0996 24.3004 24.3996 24.3004C24.5996 24.3004 24.8996 24.2004 25.0996 24.1004C25.2996 24.0004 25.4996 23.8004 25.6996 23.7004L26.3996 22.9004C26.6996 22.6004 26.7996 22.2004 26.7996 21.8004C26.7996 21.4004 26.5996 21.0004 26.3996 20.7004C26.7996 20.6004 27.0996 20.4004 27.3996 20.1004C27.5996 19.8004 27.6996 19.4004 27.6996 19.0004L27.5996 17.9004C27.5996 17.7004 27.4996 17.4004 27.3996 17.2004C27.2996 17.0004 27.0996 16.8004 26.8996 16.7004V16.5004H25.9996C26.1996 16.2004 26.2996 15.8004 26.1996 15.4004C26.0996 15.0004 25.8996 14.7004 25.5996 14.4004L24.7996 13.7004C24.4996 13.4004 24.0996 13.3004 23.7996 13.2004C23.3996 13.2004 22.9996 13.4004 22.6996 13.6004C22.5996 13.2004 22.3996 12.9004 22.0996 12.7004C21.5996 12.6004 21.1996 12.4004 20.8996 12.4004ZM20.6996 20.7004C20.4996 20.7004 20.2996 20.7004 20.1996 20.6004C19.9996 20.5004 19.8996 20.4004 19.6996 20.3004C19.3996 20.0004 19.2996 19.7004 19.1996 19.3004C19.1996 18.9004 19.2996 18.6004 19.5996 18.3004C19.8996 18.0004 20.1996 17.9004 20.5996 17.8004H20.6996C20.9996 17.8004 21.3996 17.9004 21.5996 18.2004C21.8996 18.4004 21.9996 18.8004 21.9996 19.1004C21.9996 19.3004 21.9996 19.5004 21.8996 19.6004C21.7996 19.8004 21.7996 19.9004 21.5996 20.1004C21.4996 20.2004 21.2996 20.4004 21.1996 20.4004C20.9996 20.5004 20.8996 20.5004 20.6996 20.6004V20.6004V20.7004Z" fill="white"/>
<path d="M16.1002 5.80078H8.2002V9.70079H16.1002V5.80078Z" fill="#3D3D4E"/>
<path d="M12.2998 9.80078C13.4044 9.80078 14.2998 8.90535 14.2998 7.80078C14.2998 6.69621 13.4044 5.80078 12.2998 5.80078C11.1952 5.80078 10.2998 6.69621 10.2998 7.80078C10.2998 8.90535 11.1952 9.80078 12.2998 9.80078Z" fill="#3D3D4E"/>
<path d="M12.5002 6.60156V7.60156H13.4002V8.00157H12.5002V9.00157H12.1002V8.00157H11.2002V7.60156H12.1002V6.60156H12.5002Z" fill="white" stroke="white" stroke-width="0.25" stroke-miterlimit="10"/>
</svg>
