<svg width="22" height="23" viewBox="0 0 22 23" fill="none" xmlns="http://www.w3.org/2000/svg">
<path d="M15.5833 11.0618V3.72852H6.41667V7.39518H2.75V20.2285H10.0833V16.5618H11.9167V20.2285H19.25V11.0618H15.5833ZM6.41667 18.3952H4.58333V16.5618H6.41667V18.3952ZM6.41667 14.7285H4.58333V12.8952H6.41667V14.7285ZM6.41667 11.0618H4.58333V9.22852H6.41667V11.0618ZM10.0833 14.7285H8.25V12.8952H10.0833V14.7285ZM10.0833 11.0618H8.25V9.22852H10.0833V11.0618ZM10.0833 7.39518H8.25V5.56185H10.0833V7.39518ZM13.75 14.7285H11.9167V12.8952H13.75V14.7285ZM13.75 11.0618H11.9167V9.22852H13.75V11.0618ZM13.75 7.39518H11.9167V5.56185H13.75V7.39518ZM17.4167 18.3952H15.5833V16.5618H17.4167V18.3952ZM17.4167 14.7285H15.5833V12.8952H17.4167V14.7285Z" fill="#D9113D"/>
</svg>
