<svg id="Layer_1" data-name="Layer 1" xmlns="http://www.w3.org/2000/svg" viewBox="0 0 30 30"><defs><style>.cls-1,.cls-3{fill:#3d3d4e;}.cls-2{fill:#fff;}.cls-3{stroke:#fff;stroke-miterlimit:10;stroke-width:1.04px;}</style></defs><title>icon</title><path class="cls-1" d="M14,17.34c-3.32,0-10,1.75-10,5.23V26.3H24V22.57C24,19.09,17.31,17.34,14,17.34Z"/><path class="cls-1" d="M14.1,16A1.11,1.11,0,0,1,13,15.09l-.13-.57-.15-.06-.43.39a1.05,1.05,0,0,1-.75.3,1.09,1.09,0,0,1-.71-.26l-.76-.64a1.16,1.16,0,0,1-.4-.68,1.09,1.09,0,0,1,.17-.77l.3-.48a.83.83,0,0,1-.09-.16H9.5a1.1,1.1,0,0,1-1.05-1l-.1-1a1.07,1.07,0,0,1,.21-.75,1.08,1.08,0,0,1,.65-.43l.57-.12.05-.18-.4-.43a1.13,1.13,0,0,1-.27-.73,1.18,1.18,0,0,1,.27-.74L10.08,6a1.08,1.08,0,0,1,.68-.39,1,1,0,0,1,.76.16l.49.32L12.16,6v-.6a1.14,1.14,0,0,1,.3-.72,1.09,1.09,0,0,1,.71-.34l1-.1h.08a1.1,1.1,0,0,1,.69.25,1.17,1.17,0,0,1,.38.63l.12.57.18.06.42-.41a1.08,1.08,0,0,1,1.46,0l.76.63a1.13,1.13,0,0,1,.39.69,1.09,1.09,0,0,1-.17.76l-.31.5.09.16h1v.09a1,1,0,0,1,.44.34,1.19,1.19,0,0,1,.21.52L20,10a1.07,1.07,0,0,1-.86,1.18l-.56.13a.49.49,0,0,1-.06.17l.41.43a1.14,1.14,0,0,1,0,1.47l-.63.77a1.14,1.14,0,0,1-.39.3,1,1,0,0,1-.47.1,1.06,1.06,0,0,1-.6-.18L16.39,14l-.15.08v.59a1.16,1.16,0,0,1-.3.73,1.14,1.14,0,0,1-.7.34l-1,.09Zm-.24-7.44a1.76,1.76,0,0,0-1.67,1.84A1.74,1.74,0,0,0,14,12h.16a1.74,1.74,0,0,0,1.67-1.83A1.72,1.72,0,0,0,15.29,9,1.77,1.77,0,0,0,14,8.51Z"/><path class="cls-2" d="M14.23,4.65a.66.66,0,0,1,.43.15.71.71,0,0,1,.23.39l.19.86a4.44,4.44,0,0,1,.62.19l.62-.57a.65.65,0,0,1,.21-.16.72.72,0,0,1,.25-.07.63.63,0,0,1,.43.17l.76.63a.67.67,0,0,1,.14.86l-.45.73a5.33,5.33,0,0,1,.31.58h.86a.65.65,0,0,1,.44.18.65.65,0,0,1,.21.43l.09,1a.66.66,0,0,1-.12.45.67.67,0,0,1-.4.26l-.86.19a4.75,4.75,0,0,1-.2.64l.58.62a.68.68,0,0,1,.15.43.66.66,0,0,1-.15.43l-.64.78a.66.66,0,0,1-.23.17.53.53,0,0,1-.28.07.7.7,0,0,1-.37-.11l-.71-.46a3.23,3.23,0,0,1-.58.31v.86a.75.75,0,0,1-.18.45.67.67,0,0,1-.44.2l-1,.1h-.06a.69.69,0,0,1-.66-.53L13.25,14a4.61,4.61,0,0,1-.63-.2l-.62.58a.69.69,0,0,1-.43.16.67.67,0,0,1-.43-.16l-.77-.64a.67.67,0,0,1-.22-.41.64.64,0,0,1,.08-.45l.45-.72a6.63,6.63,0,0,1-.31-.59H9.51a.68.68,0,0,1-.44-.19A.63.63,0,0,1,8.86,11l-.09-1a.77.77,0,0,1,.16-.41.63.63,0,0,1,.38-.21l.86-.19a3.61,3.61,0,0,1,.19-.64l-.57-.62a.66.66,0,0,1,0-.86l.63-.76a.83.83,0,0,1,.23-.19A.72.72,0,0,1,10.94,6a.59.59,0,0,1,.36.11L12,6.6a6.63,6.63,0,0,1,.59-.31V5.43A.67.67,0,0,1,12.78,5a.75.75,0,0,1,.43-.22l1-.09h.06Zm-.17,7.84h.2a2.33,2.33,0,0,0,.81-.26,2.1,2.1,0,0,0,.66-.56,2.28,2.28,0,0,0,.39-.76A2.21,2.21,0,0,0,14,8.07h-.21a2.19,2.19,0,0,0-1.41.77,2.14,2.14,0,0,0-.51,1.51A2.17,2.17,0,0,0,14,12.44Zm.17-8.71H14.1l-1,.09a1.55,1.55,0,0,0-1.39,1.5,1.44,1.44,0,0,0-.86-.24,1.52,1.52,0,0,0-1.17.56L9,6.45a1.53,1.53,0,0,0,.06,2,1.52,1.52,0,0,0-.91.59,1.59,1.59,0,0,0-.29,1.05l.1,1a1.55,1.55,0,0,0,1.48,1.39,1.51,1.51,0,0,0-.23,1.07,1.54,1.54,0,0,0,.55,1l.76.63a1.54,1.54,0,0,0,1,.36,1.51,1.51,0,0,0,1-.42,1.57,1.57,0,0,0,.54.86,1.52,1.52,0,0,0,1,.34h.14l1-.09a1.52,1.52,0,0,0,1-.49,1.5,1.5,0,0,0,.41-1,1.49,1.49,0,0,0,.86.25,1.52,1.52,0,0,0,.66-.15,1.6,1.6,0,0,0,.52-.41l.63-.77a1.56,1.56,0,0,0,.36-1,1.49,1.49,0,0,0-.42-1,1.59,1.59,0,0,0,.9-.6,1.55,1.55,0,0,0,.3-1l-.1-1a1.5,1.5,0,0,0-.19-.62,1.42,1.42,0,0,0-.43-.48V7.65h-.86a1.51,1.51,0,0,0,.22-1.06,1.53,1.53,0,0,0-.54-.94L17.77,5a1.6,1.6,0,0,0-1-.43A1.52,1.52,0,0,0,15.73,5a1.55,1.55,0,0,0-1.5-1.2Zm-.2,7.8a1.43,1.43,0,0,1-.51-.07,1.29,1.29,0,0,1-.45-.27,1.35,1.35,0,0,1-.43-.92,1.35,1.35,0,0,1,1.27-1.39H14a1.37,1.37,0,0,1,.88.35,1.36,1.36,0,0,1,.42.86,1.48,1.48,0,0,1-.05.51,1.35,1.35,0,0,1-.24.46,1.38,1.38,0,0,1-.4.32,1.22,1.22,0,0,1-.49.15Z"/><circle class="cls-3" cx="21.82" cy="22.79" r="4.75"/><path class="cls-2" d="M20.38,23.65l2-2,.87.88-2,2Z"/><path class="cls-2" d="M23.46,22.36l-.9-.89.39-.4c.07-.07.16-.05.25,0l.47.47.15.15a.16.16,0,0,1,0,.26C23.7,22.12,23.58,22.24,23.46,22.36Z"/><path class="cls-2" d="M20.22,23.81l.88.88L20,24.87Z"/></svg>