<svg width="30" height="30" viewBox="0 0 30 30" fill="none" xmlns="http://www.w3.org/2000/svg">
<path d="M27.8598 13.4796V15.7796H9.0498V13.4796C9.0498 13.3855 9.06849 13.2924 9.10479 13.2056C9.1411 13.1188 9.19429 13.04 9.26128 12.974C9.32827 12.9079 9.40773 12.8558 9.49503 12.8207C9.58233 12.7857 9.67573 12.7683 9.7698 12.7696H27.1398C27.2339 12.7683 27.3273 12.7857 27.4146 12.8207C27.5019 12.8558 27.5813 12.9079 27.6483 12.974C27.7153 13.04 27.7685 13.1188 27.8048 13.2056C27.8411 13.2924 27.8598 13.3855 27.8598 13.4796Z" fill="#D9113D"/>
<path d="M20.0004 8.93976H17.0004C16.3143 8.93974 15.656 9.21092 15.1689 9.6942C14.6819 10.1775 14.4057 10.8337 14.4004 11.5198V12.7698H15.4004V11.5198C15.4029 11.0934 15.5713 10.6847 15.87 10.3804C16.1687 10.0762 16.5741 9.90016 17.0004 9.88976H20.0004C20.4327 9.88976 20.8473 10.0615 21.153 10.3672C21.4587 10.6729 21.6304 11.0875 21.6304 11.5198V12.7698H22.6304V11.5198C22.6291 11.1771 22.5598 10.8381 22.4266 10.5224C22.2933 10.2067 22.0988 9.92053 21.8542 9.68056C21.6095 9.44058 21.3197 9.25154 21.0015 9.12438C20.6833 8.99722 20.343 8.93447 20.0004 8.93976Z" fill="#D9113D"/>
<path d="M27.8601 17V24.79C27.8614 24.8849 27.8437 24.9792 27.808 25.0671C27.7723 25.1551 27.7193 25.235 27.6522 25.3021C27.5851 25.3692 27.5052 25.4222 27.4172 25.4579C27.3293 25.4936 27.235 25.5113 27.1401 25.51H9.7701C9.6748 25.5128 9.57993 25.496 9.49133 25.4608C9.40273 25.4256 9.32225 25.3727 9.25483 25.3053C9.18741 25.2379 9.13448 25.1574 9.09927 25.0688C9.06407 24.9802 9.04733 24.8853 9.0501 24.79V17H27.8601Z" fill="#D9113D"/>
<path d="M20.1105 21.5795H16.8005C16.7164 21.5769 16.6365 21.5424 16.577 21.4829C16.5175 21.4235 16.483 21.3435 16.4805 21.2595C16.4805 21.1746 16.5142 21.0932 16.5742 21.0332C16.6342 20.9732 16.7156 20.9395 16.8005 20.9395H20.1105C20.1953 20.9395 20.2767 20.9732 20.3367 21.0332C20.3968 21.0932 20.4305 21.1746 20.4305 21.2595C20.4305 21.3443 20.3968 21.4257 20.3367 21.4857C20.2767 21.5457 20.1953 21.5795 20.1105 21.5795Z" fill="white"/>
<path d="M18.4596 23.2293C18.3748 23.2293 18.2934 23.1956 18.2334 23.1356C18.1734 23.0756 18.1396 22.9942 18.1396 22.9093V19.5993C18.1396 19.5573 18.1479 19.5157 18.164 19.4768C18.1801 19.438 18.2037 19.4027 18.2334 19.373C18.2631 19.3433 18.2984 19.3197 18.3372 19.3037C18.376 19.2876 18.4176 19.2793 18.4596 19.2793C18.5437 19.2818 18.6237 19.3163 18.6831 19.3758C18.7426 19.4353 18.7771 19.5152 18.7796 19.5993V22.9093C18.7796 22.9942 18.7459 23.0756 18.6859 23.1356C18.6259 23.1956 18.5445 23.2293 18.4596 23.2293Z" fill="white"/>
<path d="M11.6405 11.8077C11.6368 12.4994 11.4151 13.1724 11.007 13.7309C10.5987 14.2897 10.0246 14.7056 9.36638 14.9192C8.70813 15.1329 7.99924 15.1336 7.34059 14.9211C6.68193 14.7087 6.10704 14.2939 5.69771 13.7359C5.28837 13.1779 5.06544 12.5049 5.06063 11.8129C5.05581 11.1208 5.26936 10.4449 5.67089 9.8812C6.07242 9.31751 6.64148 8.8948 7.29712 8.67321C7.95246 8.45171 8.66093 8.44242 9.32184 8.64664C9.99462 8.85784 10.5824 9.27837 10.9995 9.84697C11.4166 10.4156 11.6411 11.1025 11.6405 11.8077Z" fill="#FF6B97" stroke="white"/>
<path d="M14.0807 25.7394H2.58107L3.49441 19.6839L3.5 19.6469V19.6094C3.5 18.6811 3.86875 17.7909 4.52513 17.1345C5.1815 16.4781 6.07174 16.1094 7 16.1094H9.68C10.6083 16.1094 11.4985 16.4781 12.1549 17.1345C12.8113 17.7909 13.18 18.6811 13.18 19.6094V19.6461L13.1854 19.6825L14.0807 25.7394Z" fill="#FF6B97" stroke="white"/>
</svg>
