<svg width="205" height="177" viewBox="0 0 205 177" fill="none" xmlns="http://www.w3.org/2000/svg">
<path d="M66.6801 33.2872C65.9933 26.4429 63.013 20.0316 58.2231 15.0946C53.4333 10.1576 47.1151 6.98464 40.2947 6.09104C33.4742 5.19745 26.552 6.63567 20.6519 10.1722C14.7519 13.7087 10.2206 19.1357 7.79376 25.5722C5.36693 32.0086 5.18711 39.0764 7.28351 45.6279C9.3799 52.1794 13.6294 57.8299 19.342 61.6618C25.0545 65.4938 31.8947 67.2821 38.7518 66.7365C45.6089 66.1909 52.0801 63.3433 57.1149 58.6563L36.3326 36.3326L66.6801 33.2872Z" fill="url(#paint0_linear_4405_72477)"/>
<path d="M87.4426 124.399C90.4998 137.356 98.2356 148.727 109.165 156.329C120.094 163.931 133.446 167.228 146.657 165.586C159.868 163.945 172.008 157.481 180.744 147.436C189.481 137.391 194.199 124.473 193.993 111.161C193.787 97.8501 188.67 85.0842 179.627 75.3147C170.583 65.5452 158.249 59.4608 144.993 58.2297C131.737 56.9986 118.494 60.7075 107.806 68.6444C97.1174 76.5813 89.7377 88.1867 87.0835 101.232L139.999 111.998L87.4426 124.399Z" fill="url(#paint1_linear_4405_72477)"/>
<path d="M47.999 33.9679L47.9899 33.827L47.9085 33.7117C47.563 33.2222 46.7446 32.4802 45.756 31.663C44.7468 30.8289 43.5018 29.8702 42.2485 28.9365C40.5846 27.6969 38.8936 26.4923 37.7067 25.6739L48.4037 25.5H111.3C119.423 25.5 126 32.0761 126 40.2V130.4H63.5996C55.4757 130.4 48.8996 123.824 48.8996 115.7V48V47.984L48.8986 47.9679L47.999 33.9679Z" fill="white" stroke="#3D3D4E"/>
<path d="M62.2002 130.8C62.2002 130.8 82.1002 120.9 63.2002 108.1H132.4C138.7 108.1 143.7 113.2 143.7 119.4C143.7 125.7 138.6 130.7 132.4 130.7H62.2002V130.8Z" fill="#3D3D4E"/>
<path d="M110.7 64H62.3C61 64 60 63.1304 60 62C60 60.8696 61 60 62.3 60H110.7C112 60 113 60.8696 113 62C113 63.0435 112 64 110.7 64Z" fill="#3D3D4E"/>
<path d="M99.8462 74H62.1538C60.9692 74 60 73.234 60 72.2979V71.7021C60 70.766 60.9692 70 62.1538 70H99.8462C101.031 70 102 70.766 102 71.7021V72.2979C102 73.3191 101.031 74 99.8462 74Z" fill="#3D3D4E"/>
<path d="M111.775 84H62.3258C61.0112 84 60 83.1304 60 82C60 80.8696 61.0112 80 62.3258 80H111.674C112.989 80 114 80.8696 114 82C114 83.0435 112.989 84 111.775 84Z" fill="#3D3D4E"/>
<path d="M88.6301 94H61.4384C60.6849 94 60 93.2174 60 92.1739V91.8261C60 90.8696 60.6164 90 61.4384 90H88.5616C89.3151 90 90 90.7826 90 91.8261V92.1739C90 93.2174 89.3836 94 88.6301 94Z" fill="#3D3D4E"/>
<path d="M38 25C43.2477 25 47.5872 28.6 48.6972 33.4C48.6972 33.5 48.6972 33.6 48.7982 33.7C48.8991 34.4 49 35.1 49 35.8V48H48.6972H27V35.9C27 32.9 28.211 30.2 30.2294 28.2C31.844 26.6 33.8624 25.5 36.1835 25.2L38 25Z" fill="#3D3D4E"/>
<rect x="19" y="80" width="5" height="5" fill="#EA4C89"/>
<rect x="19" y="86" width="5" height="5" fill="#EA4C89"/>
<rect x="25" y="80" width="5" height="5" fill="#EA4C89"/>
<rect x="25" y="86" width="5" height="5" fill="#EA4C89"/>
<path d="M146 28.5V38.5" stroke="#EA4C89" stroke-width="2" stroke-linecap="round"/>
<path d="M141 33.5L151 33.5" stroke="#EA4C89" stroke-width="2" stroke-linecap="round"/>
<path d="M87.5 53C92.1944 53 96 49.1944 96 44.5C96 39.8056 92.1944 36 87.5 36C82.8056 36 79 39.8056 79 44.5C79 49.1944 82.8056 53 87.5 53Z" stroke="#3D3D4E" stroke-width="2" stroke-miterlimit="10"/>
<path d="M93.4334 38.5664L81.5654 50.4343" stroke="#3D3D4E" stroke-width="2" stroke-miterlimit="10"/>
<defs>
<linearGradient id="paint0_linear_4405_72477" x1="6.54254" y1="29.7901" x2="66.1226" y2="42.8751" gradientUnits="userSpaceOnUse">
<stop stop-color="#EEEEEE"/>
<stop offset="1" stop-color="#FAFAFA"/>
</linearGradient>
<linearGradient id="paint1_linear_4405_72477" x1="152.4" y1="164.555" x2="127.599" y2="59.4415" gradientUnits="userSpaceOnUse">
<stop stop-color="#EEEEEE"/>
<stop offset="1" stop-color="#FAFAFA"/>
</linearGradient>
</defs>
</svg>
