<svg width="250" height="250" viewBox="0 0 250 250" fill="none" xmlns="http://www.w3.org/2000/svg">
<g clip-path="url(#clip0_4431_71284)">
<path d="M71.2322 221.841V235.036L62.495 221.841H59.5911V239.57H62.495V226.35L71.2322 239.57H74.1361V221.841H71.2322ZM91.3227 232.54C91.3227 228.133 88.1641 225.306 84.1649 225.306C80.1656 225.306 77.007 228.133 77.007 232.54C77.007 236.947 80.0383 239.8 84.0375 239.8C88.0622 239.8 91.3227 236.947 91.3227 232.54ZM79.9618 232.54C79.9618 229.356 81.9232 227.827 84.1139 227.827C86.2791 227.827 88.3424 229.356 88.3424 232.54C88.3424 235.724 86.2027 237.278 84.0375 237.278C81.8468 237.278 79.9618 235.724 79.9618 232.54ZM106.593 221.867H100.81V239.57H106.593C112.273 239.57 115.992 236.233 115.992 230.782C115.992 225.306 112.273 221.867 106.593 221.867ZM103.714 237.201V224.236H106.593C110.77 224.236 113.012 226.732 113.012 230.782C113.012 234.807 110.77 237.201 106.593 237.201H103.714ZM117.902 232.489C117.902 236.819 120.832 239.8 124.474 239.8C126.818 239.8 128.499 238.679 129.39 237.482V239.57H132.32V225.535H129.39V227.573C128.524 226.426 126.894 225.306 124.525 225.306C120.832 225.306 117.902 228.158 117.902 232.489ZM129.39 232.54C129.39 235.571 127.327 237.278 125.137 237.278C122.971 237.278 120.883 235.52 120.883 232.489C120.883 229.458 122.971 227.827 125.137 227.827C127.327 227.827 129.39 229.534 129.39 232.54ZM136.593 235.673C136.593 238.526 138.146 239.57 140.643 239.57H142.935V237.15H141.152C139.929 237.15 139.522 236.717 139.522 235.673V227.904H142.935V225.535H139.522V222.045H136.593V225.535H134.937V227.904H136.593V235.673ZM144.644 232.489C144.644 236.819 147.573 239.8 151.216 239.8C153.559 239.8 155.24 238.679 156.132 237.482V239.57H159.061V225.535H156.132V227.573C155.266 226.426 153.636 225.306 151.267 225.306C147.573 225.306 144.644 228.158 144.644 232.489ZM156.132 232.54C156.132 235.571 154.069 237.278 151.878 237.278C149.713 237.278 147.624 235.52 147.624 232.489C147.624 229.458 149.713 227.827 151.878 227.827C154.069 227.827 156.132 229.534 156.132 232.54Z" fill="#3D3D4E"/>
<path d="M78.9266 45.3951C78.0519 36.6779 74.256 28.5122 68.1554 22.2242C62.0549 15.9362 54.0078 11.895 45.321 10.7569C36.6342 9.6188 27.8177 11.4506 20.3032 15.9548C12.7887 20.459 7.01737 27.3712 3.92646 35.5689C0.835545 43.7666 0.606525 52.7685 3.27658 61.1127C5.94664 69.457 11.359 76.6537 18.6347 81.5342C25.9105 86.4147 34.6224 88.6925 43.3559 87.9975C52.0894 87.3026 60.3315 83.6759 66.7439 77.7062L40.2747 49.2738L78.9266 45.3951Z" fill="url(#paint0_linear_4431_71284)"/>
<path d="M105.371 161.441C109.264 177.944 119.117 192.426 133.037 202.108C146.957 211.79 163.962 215.989 180.789 213.899C197.615 211.808 213.076 203.576 224.204 190.782C235.331 177.988 241.34 161.535 241.078 144.581C240.815 127.627 234.299 111.368 222.78 98.9249C211.262 86.482 195.553 78.7327 178.669 77.1647C161.786 75.5967 144.919 80.3205 131.306 90.4293C117.693 100.538 108.294 115.319 104.913 131.935L172.309 145.647L105.371 161.441Z" fill="url(#paint1_linear_4431_71284)"/>
<path d="M55.135 46.2598L55.1235 46.0804L55.0198 45.9334C54.5797 45.31 53.5374 44.365 52.2783 43.3242C50.9929 42.2618 49.4072 41.0408 47.811 39.8516C45.6917 38.2728 43.538 36.7386 42.0264 35.6962L55.6505 35.4747H135.757C146.104 35.4747 154.48 43.8504 154.48 54.1973V169.08H75.0047C64.6578 169.08 56.2821 160.704 56.2821 150.357V64.1317V64.1112L56.2808 64.0908L55.135 46.2598Z" fill="white" stroke="#3D3D4E" stroke-width="1.27364"/>
<path d="M73.2217 169.589C73.2217 169.589 98.5672 156.98 74.4953 140.678H162.631C170.655 140.678 177.024 147.173 177.024 155.07C177.024 163.094 170.528 169.462 162.631 169.462H73.2217V169.589Z" fill="#3D3D4E"/>
<path d="M134.994 84.5106H73.3493C71.6936 84.5106 70.4199 83.4031 70.4199 81.9633C70.4199 80.5235 71.6936 79.416 73.3493 79.416H134.994C136.649 79.416 137.923 80.5235 137.923 81.9633C137.923 83.2923 136.649 84.5106 134.994 84.5106Z" fill="#3D3D4E"/>
<path d="M121.17 97.2469H73.1632C71.6544 97.2469 70.4199 96.2714 70.4199 95.079V94.3202C70.4199 93.1279 71.6544 92.1523 73.1632 92.1523H121.17C122.678 92.1523 123.913 93.1279 123.913 94.3202V95.079C123.913 96.3798 122.678 97.2469 121.17 97.2469Z" fill="#3D3D4E"/>
<path d="M136.363 109.983H73.3822C71.7079 109.983 70.4199 108.876 70.4199 107.436C70.4199 105.996 71.7079 104.889 73.3822 104.889H136.234C137.909 104.889 139.197 105.996 139.197 107.436C139.197 108.765 137.909 109.983 136.363 109.983Z" fill="#3D3D4E"/>
<path d="M106.884 122.72H72.2519C71.2923 122.72 70.4199 121.723 70.4199 120.394V119.951C70.4199 118.733 71.205 117.625 72.2519 117.625H106.797C107.757 117.625 108.629 118.622 108.629 119.951V120.394C108.629 121.723 107.844 122.72 106.884 122.72Z" fill="#3D3D4E"/>
<path d="M42.3997 34.8379C49.0834 34.8379 54.6103 39.423 56.0242 45.5365C56.0242 45.6638 56.0242 45.7912 56.1527 45.9186C56.2812 46.8101 56.4098 47.7017 56.4098 48.5932V64.1317H56.0242H28.3896V48.7206C28.3896 44.8997 29.932 41.4608 32.5027 38.9135C34.5592 36.8757 37.1299 35.4747 40.0861 35.0926L42.3997 34.8379Z" fill="#3D3D4E"/>
<rect x="18.2012" y="104.891" width="6.36821" height="6.36821" fill="#EA4C89"/>
<rect x="18.2012" y="112.533" width="6.36821" height="6.36821" fill="#EA4C89"/>
<rect x="25.8428" y="104.891" width="6.36821" height="6.36821" fill="#EA4C89"/>
<rect x="25.8428" y="112.533" width="6.36821" height="6.36821" fill="#EA4C89"/>
<path d="M179.953 39.2969V52.0333" stroke="#EA4C89" stroke-width="2.54728" stroke-linecap="round"/>
<path d="M173.585 45.6641L186.321 45.6641" stroke="#EA4C89" stroke-width="2.54728" stroke-linecap="round"/>
<path d="M105.444 70.5015C111.423 70.5015 116.27 65.6546 116.27 59.6756C116.27 53.6966 111.423 48.8496 105.444 48.8496C99.4651 48.8496 94.6182 53.6966 94.6182 59.6756C94.6182 65.6546 99.4651 70.5015 105.444 70.5015Z" stroke="#3D3D4E" stroke-width="2.54728" stroke-miterlimit="10"/>
<path d="M113.001 52.1191L97.8857 67.2346" stroke="#3D3D4E" stroke-width="2.54728" stroke-miterlimit="10"/>
</g>
<defs>
<linearGradient id="paint0_linear_4431_71284" x1="2.33285" y1="40.941" x2="78.2165" y2="57.6067" gradientUnits="userSpaceOnUse">
<stop stop-color="#EEEEEE"/>
<stop offset="1" stop-color="#FAFAFA"/>
</linearGradient>
<linearGradient id="paint1_linear_4431_71284" x1="188.103" y1="212.585" x2="156.515" y2="78.708" gradientUnits="userSpaceOnUse">
<stop stop-color="#EEEEEE"/>
<stop offset="1" stop-color="#FAFAFA"/>
</linearGradient>
<clipPath id="clip0_4431_71284">
<rect width="250" height="250" fill="white"/>
</clipPath>
</defs>
</svg>
