<svg width="30" height="30" viewBox="0 0 30 30" fill="none" xmlns="http://www.w3.org/2000/svg">
<path d="M23.93 5.71094H6.07004C4.67276 5.71094 3.54004 6.84366 3.54004 8.24094V23.9009C3.54004 25.2982 4.67276 26.4309 6.07004 26.4309H23.93C25.3273 26.4309 26.46 25.2982 26.46 23.9009V8.24094C26.46 6.84366 25.3273 5.71094 23.93 5.71094Z" fill="#D9113D"/>
<path d="M8.40977 13.5508H5.85977C5.66647 13.5508 5.50977 13.7075 5.50977 13.9008V16.0108C5.50977 16.2041 5.66647 16.3608 5.85977 16.3608H8.40977C8.60307 16.3608 8.75977 16.2041 8.75977 16.0108V13.9008C8.75977 13.7075 8.60307 13.5508 8.40977 13.5508Z" fill="white"/>
<path d="M16.2799 13.5508H13.7299C13.5366 13.5508 13.3799 13.7075 13.3799 13.9008V16.0108C13.3799 16.2041 13.5366 16.3608 13.7299 16.3608H16.2799C16.4732 16.3608 16.6299 16.2041 16.6299 16.0108V13.9008C16.6299 13.7075 16.4732 13.5508 16.2799 13.5508Z" fill="white"/>
<path d="M23.9801 13.5508H21.4301C21.2368 13.5508 21.0801 13.7075 21.0801 13.9008V16.0108C21.0801 16.2041 21.2368 16.3608 21.4301 16.3608H23.9801C24.1734 16.3608 24.3301 16.2041 24.3301 16.0108V13.9008C24.3301 13.7075 24.1734 13.5508 23.9801 13.5508Z" fill="white"/>
<path d="M8.40977 19.8105H5.85977C5.66647 19.8105 5.50977 19.9672 5.50977 20.1605V22.2705C5.50977 22.4638 5.66647 22.6205 5.85977 22.6205H8.40977C8.60307 22.6205 8.75977 22.4638 8.75977 22.2705V20.1605C8.75977 19.9672 8.60307 19.8105 8.40977 19.8105Z" fill="white"/>
<path d="M16.2799 19.8105H13.7299C13.5366 19.8105 13.3799 19.9672 13.3799 20.1605V22.2705C13.3799 22.4638 13.5366 22.6205 13.7299 22.6205H16.2799C16.4732 22.6205 16.6299 22.4638 16.6299 22.2705V20.1605C16.6299 19.9672 16.4732 19.8105 16.2799 19.8105Z" fill="white"/>
<path d="M7.20012 3.01953H7.06012C6.12676 3.01953 5.37012 3.77617 5.37012 4.70953V7.32953C5.37012 8.26289 6.12676 9.01953 7.06012 9.01953H7.20012C8.13348 9.01953 8.89012 8.26289 8.89012 7.32953V4.70953C8.89012 3.77617 8.13348 3.01953 7.20012 3.01953Z" fill="#FF6B97"/>
<path d="M7.20033 3.57094C7.34957 3.57093 7.49734 3.60049 7.63509 3.6579C7.77284 3.71531 7.89786 3.79944 8.00292 3.90543C8.10798 4.01143 8.19101 4.13718 8.24721 4.27543C8.3034 4.41369 8.33166 4.5617 8.33033 4.71094V7.34094C8.33033 7.48933 8.30111 7.63627 8.24432 7.77337C8.18753 7.91047 8.1043 8.03504 7.99937 8.13997C7.89444 8.2449 7.76987 8.32813 7.63277 8.38492C7.49567 8.44171 7.34873 8.47094 7.20033 8.47094H7.06033C6.76145 8.46833 6.47554 8.34844 6.26419 8.13708C6.05284 7.92573 5.93295 7.63982 5.93033 7.34094V4.71094C5.93032 4.41032 6.04906 4.12186 6.26069 3.90835C6.47232 3.69484 6.75972 3.57357 7.06033 3.57094H7.20033ZM7.20033 2.46094H7.06033C6.76533 2.46093 6.47323 2.5192 6.20081 2.6324C5.92838 2.74559 5.681 2.91149 5.47287 3.12055C5.26473 3.32961 5.09995 3.57773 4.98797 3.85066C4.87599 4.12358 4.81902 4.41594 4.82033 4.71094V7.34094C4.82033 7.6351 4.87827 7.92638 4.99084 8.19815C5.10342 8.46992 5.26841 8.71685 5.47642 8.92486C5.8965 9.34494 6.46625 9.58094 7.06033 9.58094H7.20033C7.79442 9.58094 8.36417 9.34494 8.78425 8.92486C9.20434 8.50477 9.44033 7.93502 9.44033 7.34094V4.71094C9.44165 4.41594 9.38468 4.12358 9.2727 3.85066C9.16072 3.57773 8.99593 3.32961 8.7878 3.12055C8.57967 2.91149 8.33229 2.74559 8.05986 2.6324C7.78744 2.5192 7.49534 2.46093 7.20033 2.46094Z" fill="white"/>
<path d="M22.7704 3.01953H22.6304C21.6971 3.01953 20.9404 3.77617 20.9404 4.70953V7.32953C20.9404 8.26289 21.6971 9.01953 22.6304 9.01953H22.7704C23.7038 9.01953 24.4604 8.26289 24.4604 7.32953V4.70953C24.4604 3.77617 23.7038 3.01953 22.7704 3.01953Z" fill="#FF6B97"/>
<path d="M22.7697 3.57094C22.9189 3.57093 23.0667 3.60049 23.2044 3.6579C23.3422 3.71531 23.4672 3.79944 23.5723 3.90543C23.6773 4.01143 23.7603 4.13718 23.8165 4.27543C23.8727 4.41369 23.901 4.5617 23.8997 4.71094V7.34094C23.8997 7.64063 23.7806 7.92805 23.5687 8.13997C23.3568 8.35188 23.0694 8.47094 22.7697 8.47094H22.6297C22.33 8.47094 22.0426 8.35188 21.8306 8.13997C21.6187 7.92805 21.4997 7.64063 21.4997 7.34094V4.71094C21.4984 4.5617 21.5266 4.41369 21.5828 4.27543C21.639 4.13718 21.722 4.01143 21.8271 3.90543C21.9321 3.79944 22.0572 3.71531 22.1949 3.6579C22.3327 3.60049 22.4804 3.57093 22.6297 3.57094H22.7697ZM22.7697 2.46094H22.6297C22.3347 2.46093 22.0426 2.5192 21.7701 2.6324C21.4977 2.74559 21.2503 2.91149 21.0422 3.12055C20.8341 3.32961 20.6693 3.57773 20.5573 3.85066C20.4453 4.12358 20.3884 4.41594 20.3897 4.71094V7.34094C20.3897 7.6351 20.4476 7.92638 20.5602 8.19815C20.6728 8.46992 20.8377 8.71685 21.0458 8.92486C21.4658 9.34494 22.0356 9.58094 22.6297 9.58094H22.7697C23.362 9.57829 23.9292 9.34113 24.3471 8.92133C24.7651 8.50154 24.9997 7.93329 24.9997 7.34094V4.71094C25.001 4.41594 24.944 4.12358 24.832 3.85066C24.7201 3.57773 24.5553 3.32961 24.3471 3.12055C24.139 2.91149 23.8916 2.74559 23.6192 2.6324C23.3468 2.5192 23.0547 2.46093 22.7597 2.46094H22.7697Z" fill="white"/>
<path d="M15.0702 3.01953H14.9302C13.9969 3.01953 13.2402 3.77617 13.2402 4.70953V7.32953C13.2402 8.26289 13.9969 9.01953 14.9302 9.01953H15.0702C16.0036 9.01953 16.7602 8.26289 16.7602 7.32953V4.70953C16.7602 3.77617 16.0036 3.01953 15.0702 3.01953Z" fill="#FF6B97"/>
<path d="M15.0705 3.57094C15.2197 3.57093 15.3675 3.60049 15.5052 3.6579C15.643 3.71531 15.768 3.79944 15.873 3.90543C15.9781 4.01143 16.0611 4.13718 16.1173 4.27543C16.1735 4.41369 16.2018 4.5617 16.2005 4.71094V7.34094C16.2005 7.64063 16.0814 7.92805 15.8695 8.13997C15.6576 8.35188 15.3701 8.47094 15.0705 8.47094H14.9305C14.6308 8.47094 14.3433 8.35188 14.1314 8.13997C13.9195 7.92805 13.8005 7.64063 13.8005 7.34094V4.71094C13.7991 4.5617 13.8274 4.41369 13.8836 4.27543C13.9398 4.13718 14.0228 4.01143 14.1279 3.90543C14.2329 3.79944 14.3579 3.71531 14.4957 3.6579C14.6335 3.60049 14.7812 3.57093 14.9305 3.57094H15.0705ZM15.0705 2.46094H14.9305C14.6354 2.46093 14.3433 2.5192 14.0709 2.6324C13.7985 2.74559 13.5511 2.91149 13.343 3.12055C13.1349 3.32961 12.9701 3.57773 12.8581 3.85066C12.7461 4.12358 12.6891 4.41594 12.6905 4.71094V7.34094C12.6905 7.6351 12.7484 7.92638 12.861 8.19815C12.9735 8.46992 13.1385 8.71685 13.3465 8.92486C13.7666 9.34494 14.3364 9.58094 14.9305 9.58094H15.0705C15.3646 9.58094 15.6559 9.523 15.9277 9.41043C16.1994 9.29786 16.4464 9.13286 16.6544 8.92486C16.8624 8.71685 17.0274 8.46992 17.1399 8.19815C17.2525 7.92638 17.3105 7.6351 17.3105 7.34094V4.71094C17.3118 4.41594 17.2548 4.12358 17.1428 3.85066C17.0308 3.57773 16.8661 3.32961 16.6579 3.12055C16.4498 2.91149 16.2024 2.74559 15.93 2.6324C15.6576 2.5192 15.3655 2.46093 15.0705 2.46094Z" fill="white"/>
</svg>
