<svg width="30" height="30" viewBox="0 0 30 30" fill="none" xmlns="http://www.w3.org/2000/svg">
<path d="M13.0897 6.09039C13.1866 5.9244 13.3253 5.78669 13.492 5.69099C13.6586 5.59528 13.8475 5.54492 14.0397 5.54492C14.2319 5.54492 14.4208 5.59528 14.5874 5.69099C14.7541 5.78669 14.8928 5.9244 14.9897 6.09039L20.0797 14.9104L25.1697 23.7304C25.2659 23.9009 25.315 24.0939 25.3117 24.2897C25.3084 24.4854 25.2529 24.6767 25.151 24.8439C25.0491 25.011 24.9044 25.1479 24.7319 25.2405C24.5594 25.333 24.3653 25.3779 24.1697 25.3704H3.8597C3.66712 25.372 3.47756 25.3225 3.31031 25.227C3.14306 25.1315 3.00409 24.9934 2.90756 24.8268C2.81103 24.6601 2.76037 24.4709 2.76074 24.2783C2.76112 24.0857 2.81252 23.8967 2.9097 23.7304L7.9997 14.9104L13.0897 6.09039Z" fill="#D9113D"/>
<path d="M14.7997 20.6394C14.8054 20.8433 14.7298 21.0411 14.5897 21.1894C14.5175 21.2645 14.4304 21.3238 14.334 21.3634C14.2376 21.403 14.1339 21.4221 14.0297 21.4194C13.9286 21.4181 13.8287 21.3969 13.7358 21.357C13.6429 21.317 13.5588 21.2592 13.4882 21.1868C13.4176 21.1144 13.362 21.0287 13.3245 20.9348C13.287 20.8409 13.2684 20.7405 13.2697 20.6394C13.2673 20.5391 13.2856 20.4394 13.3235 20.3465C13.3613 20.2535 13.4179 20.1694 13.4897 20.0994C13.6339 19.9581 13.8279 19.8791 14.0297 19.8794C14.2381 19.876 14.4394 19.955 14.5897 20.0994C14.6597 20.1703 14.7145 20.2548 14.7506 20.3476C14.7867 20.4405 14.8034 20.5398 14.7997 20.6394ZM14.7097 13.8594V18.6994H13.3697V13.8594H14.7097Z" fill="white"/>
<path d="M21.5802 15.2201C21.2892 15.2203 21.0068 15.1214 20.7796 14.9396C20.5524 14.7578 20.3939 14.504 20.3302 14.2201L20.1802 13.5501L20.0002 13.4801L19.5102 13.9401C19.2736 14.1667 18.9579 14.2923 18.6302 14.2901C18.3303 14.2884 18.0404 14.1824 17.8102 13.9901L16.9202 13.2401C16.6743 13.0413 16.5113 12.7579 16.4632 12.4454C16.4151 12.1328 16.4854 11.8136 16.6602 11.5501L17.0002 11.0001C16.963 10.9389 16.9296 10.8754 16.9002 10.8101H16.2202C15.903 10.7957 15.6025 10.6638 15.377 10.4402C15.1516 10.2166 15.0173 9.91717 15.0002 9.60008L14.8902 8.43008C14.8588 8.11862 14.9434 7.80652 15.128 7.55367C15.3126 7.30082 15.584 7.12504 15.8902 7.06008L16.5502 6.91008L16.6102 6.71008L16.1502 6.21008C15.9454 5.97231 15.8327 5.66891 15.8327 5.35508C15.8327 5.04125 15.9454 4.73785 16.1502 4.50008L16.9002 3.61008C17.0973 3.36484 17.3789 3.20218 17.6898 3.15407C18.0006 3.10595 18.3183 3.17587 18.5802 3.35008L19.1402 3.72008L19.3202 3.62008V2.93008C19.331 2.61644 19.4558 2.31751 19.6712 2.08926C19.8866 1.861 20.1777 1.71908 20.4902 1.69008L21.6702 1.58008H21.7602C22.0523 1.58312 22.3345 1.68594 22.56 1.87148C22.7856 2.05701 22.9409 2.31411 23.0002 2.60008L23.1502 3.26008L23.3502 3.33008L23.8402 2.86008C24.0744 2.63582 24.386 2.51046 24.7102 2.51008C25.0151 2.51043 25.3097 2.62046 25.5402 2.82008L26.4302 3.56008C26.6701 3.76113 26.828 4.04308 26.874 4.35264C26.9201 4.6622 26.8511 4.9779 26.6802 5.24008L26.3202 5.82008C26.3595 5.88012 26.3929 5.94374 26.4202 6.01008H27.5802V6.11008C27.7809 6.19794 27.9554 6.3362 28.0868 6.51142C28.2182 6.68664 28.3021 6.89287 28.3302 7.11008L28.4402 8.28008C28.4717 8.59153 28.387 8.90364 28.2025 9.15649C28.0179 9.40933 27.7464 9.58511 27.4402 9.65008L26.7902 9.80008C26.7902 9.87008 26.7402 9.94008 26.7202 10.0001L27.1902 10.5001C27.4021 10.7318 27.5237 11.0319 27.5329 11.3458C27.5421 11.6597 27.4382 11.9664 27.2402 12.2101L26.5002 13.1001C26.3807 13.2498 26.2284 13.3701 26.055 13.4516C25.8816 13.5331 25.6918 13.5736 25.5002 13.5701C25.2545 13.57 25.0143 13.4969 24.8102 13.3601L24.2402 13.0001L24.0602 13.0901V13.7801C24.0518 14.0928 23.9292 14.3916 23.7154 14.6201C23.5017 14.8486 23.2117 14.9909 22.9002 15.0201L21.7202 15.1301L21.5802 15.2201ZM21.3002 6.57008C20.7592 6.59527 20.2503 6.83437 19.8855 7.23476C19.5208 7.63515 19.33 8.16404 19.3552 8.70508C19.3804 9.24612 19.6195 9.75499 20.0199 10.1198C20.4203 10.4845 20.9492 10.6753 21.4902 10.6501H21.6802C22.2213 10.6249 22.7301 10.3858 23.0949 9.9854C23.4597 9.58501 23.6504 9.05612 23.6252 8.51508C23.6 7.97404 23.3609 7.46516 22.9605 7.10041C22.5602 6.73565 22.0313 6.54488 21.4902 6.57008H21.3002Z" fill="#FF6B97"/>
<path d="M21.7298 2.08031C21.9088 2.07921 22.0826 2.1405 22.2213 2.25365C22.36 2.3668 22.4549 2.52474 22.4898 2.70031L22.7098 3.70031C22.9576 3.76182 23.2014 3.83864 23.4398 3.93031L24.1598 3.26031C24.2256 3.18292 24.3066 3.1199 24.3977 3.07517C24.4889 3.03044 24.5883 3.00496 24.6898 3.00031C24.8745 2.99811 25.0532 3.066 25.1898 3.19031L26.0798 3.93031C26.2211 4.05069 26.3148 4.21752 26.3442 4.40082C26.3735 4.58411 26.3365 4.77185 26.2398 4.93031L25.7098 5.77031C25.8467 5.98933 25.9703 6.21641 26.0798 6.45031H27.0798C27.2706 6.45469 27.4529 6.52975 27.5915 6.66093C27.7301 6.79211 27.815 6.97007 27.8298 7.16031L27.9398 8.33031C27.9563 8.51916 27.9036 8.70757 27.7913 8.86032C27.679 9.01308 27.515 9.11972 27.3298 9.16031L26.3298 9.38031C26.2683 9.63144 26.1915 9.87857 26.0998 10.1203L26.7698 10.8503C26.887 10.9906 26.9511 11.1675 26.9511 11.3503C26.9511 11.5331 26.887 11.71 26.7698 11.8503L26.0298 12.7503C25.958 12.8374 25.8679 12.9076 25.766 12.956C25.664 13.0043 25.5527 13.0297 25.4398 13.0303C25.2865 13.0319 25.1365 12.9866 25.0098 12.9003L24.1798 12.3703C23.9652 12.5119 23.7375 12.6324 23.4998 12.7303V13.7303C23.4979 13.9228 23.4239 14.1076 23.2925 14.2483C23.1611 14.389 22.9817 14.4753 22.7898 14.4903L21.6298 14.6003H21.5598C21.3813 14.5995 21.2085 14.5375 21.0702 14.4247C20.9318 14.3119 20.8364 14.155 20.7998 13.9803L20.5898 12.9803C20.3374 12.9234 20.09 12.8465 19.8498 12.7503L19.1298 13.4303C18.9895 13.5475 18.8126 13.6116 18.6298 13.6116C18.447 13.6116 18.2701 13.5475 18.1298 13.4303L17.2398 12.6803C17.1002 12.5588 17.0077 12.3921 16.9785 12.2093C16.9492 12.0266 16.9851 11.8393 17.0798 11.6803L17.5998 10.8503C17.4679 10.6267 17.3478 10.3964 17.2398 10.1603H16.2398C16.0477 10.1516 15.8652 10.0741 15.7257 9.94189C15.5861 9.80967 15.4988 9.63162 15.4798 9.44031L15.3798 8.27031C15.3877 8.09825 15.4531 7.9338 15.5655 7.80328C15.6779 7.67275 15.8308 7.58369 15.9998 7.55031L16.9998 7.33031C17.0567 7.07793 17.1336 6.83048 17.2298 6.59031L16.5598 5.87031C16.4426 5.73004 16.3785 5.55308 16.3785 5.37031C16.3785 5.18755 16.4426 5.01059 16.5598 4.87031L17.2998 3.98031C17.3717 3.89012 17.4629 3.81724 17.5668 3.76704C17.6706 3.71685 17.7845 3.69062 17.8998 3.69031C18.0499 3.6888 18.1968 3.73425 18.3198 3.82031L19.1498 4.35031C19.3668 4.21282 19.5941 4.09245 19.8298 3.99031V2.99031C19.8381 2.7998 19.9143 2.61854 20.0444 2.47919C20.1746 2.33985 20.3503 2.25158 20.5398 2.23031L21.6998 2.12031H21.7698L21.7298 2.08031ZM21.5298 11.1903H21.7598C22.0924 11.1531 22.4143 11.0505 22.7071 10.8884C22.9999 10.7263 23.2578 10.508 23.466 10.2459C23.6741 9.98388 23.8284 9.68327 23.9201 9.36139C24.0117 9.03951 24.0388 8.7027 23.9998 8.37031C23.9449 7.74158 23.657 7.15606 23.1927 6.72868C22.7283 6.3013 22.1209 6.06291 21.4898 6.06031H21.2498C20.6114 6.13872 20.0261 6.45551 19.6114 6.94719C19.1967 7.43887 18.9831 8.06912 19.0135 8.71163C19.0438 9.35415 19.3159 9.96145 19.7751 10.4118C20.2343 10.8622 20.8468 11.1224 21.4898 11.1403L21.5298 11.1903ZM21.7298 1.07031H21.5698L20.4098 1.17031C19.9729 1.2122 19.5669 1.41402 19.2697 1.73703C18.9725 2.06003 18.8052 2.48144 18.7998 2.92031C18.505 2.72143 18.1553 2.62001 17.7998 2.63031C17.5366 2.6309 17.2769 2.69049 17.0398 2.80471C16.8027 2.91893 16.5943 3.08487 16.4298 3.29031L15.6898 4.17031C15.4104 4.5059 15.2632 4.93206 15.2761 5.36856C15.289 5.80507 15.461 6.2218 15.7598 6.54031C15.3357 6.63563 14.9608 6.88201 14.705 7.23347C14.4492 7.58493 14.3301 8.01745 14.3698 8.45031L14.4798 9.62031C14.5208 10.0532 14.718 10.4563 15.0345 10.7544C15.351 11.0525 15.7653 11.2252 16.1998 11.2403C15.9618 11.6098 15.869 12.0543 15.9392 12.4882C16.0093 12.9221 16.2375 13.3146 16.5798 13.5903L17.4598 14.3203C17.7919 14.6032 18.2172 14.7527 18.6533 14.7397C19.0893 14.7268 19.5051 14.5524 19.8198 14.2503C19.9099 14.6455 20.1306 14.9987 20.4464 15.2528C20.7622 15.5069 21.1545 15.6469 21.5598 15.6503H21.7298L22.8898 15.5403C23.3225 15.4968 23.7246 15.2971 24.0209 14.9788C24.3172 14.6604 24.4874 14.245 24.4998 13.8103C24.7954 14.0074 25.1446 14.1086 25.4998 14.1003C25.7619 14.0995 26.0206 14.0409 26.2575 13.9285C26.4943 13.8161 26.7034 13.6528 26.8698 13.4503L27.5998 12.5503C27.8806 12.2173 28.0287 11.7924 28.0158 11.3569C28.0029 10.9215 27.8298 10.5061 27.5298 10.1903C27.952 10.0952 28.3255 9.85029 28.5811 9.50097C28.8366 9.15164 28.957 8.72154 28.9198 8.29031L28.8098 7.12031C28.7878 6.86802 28.7121 6.62333 28.588 6.4026C28.4638 6.18186 28.294 5.99017 28.0898 5.84031V5.57031H27.0898C27.3232 5.20372 27.4144 4.76441 27.3462 4.33521C27.2781 3.90601 27.0553 3.51657 26.7198 3.24031L25.8398 2.50031C25.5293 2.20043 25.1209 2.02286 24.6898 2.00031C24.2349 1.99887 23.7973 2.17462 23.4698 2.49031C23.3831 2.09343 23.1632 1.73815 22.8467 1.48348C22.5302 1.22881 22.136 1.09008 21.7298 1.09031V1.07031ZM21.4898 10.1403C21.2876 10.1495 21.0855 10.1188 20.8951 10.0499C20.7048 9.98098 20.5299 9.87526 20.3803 9.73875C20.0784 9.46308 19.8984 9.07875 19.8798 8.67031C19.8612 8.26188 20.0057 7.8628 20.2814 7.56087C20.557 7.25893 20.9414 7.07888 21.3498 7.06031H21.4898C21.8712 7.06163 22.2383 7.20632 22.518 7.46567C22.7977 7.72501 22.9697 8.08005 22.9998 8.46031C23.0205 8.66065 23.0015 8.8631 22.9438 9.05607C22.8862 9.24904 22.7909 9.42871 22.6637 9.5848C22.5364 9.74088 22.3795 9.8703 22.2021 9.96563C22.0247 10.061 21.8302 10.1203 21.6298 10.1403H21.4898Z" fill="white"/>
</svg>
