<svg width="30" height="30" viewBox="0 0 30 30" fill="none" xmlns="http://www.w3.org/2000/svg">
<path d="M24.81 11.5401V13.8401H6V11.5401C5.99999 11.4461 6.01868 11.3529 6.05499 11.2661C6.09129 11.1793 6.14448 11.1006 6.21148 11.0345C6.27847 10.9685 6.35792 10.9164 6.44522 10.8813C6.53252 10.8462 6.62592 10.8288 6.72 10.8301H24.09C24.1841 10.8288 24.2775 10.8462 24.3648 10.8813C24.4521 10.9164 24.5315 10.9685 24.5985 11.0345C24.6655 11.1006 24.7187 11.1793 24.755 11.2661C24.7913 11.3529 24.81 11.4461 24.81 11.5401Z" fill="#D9113D"/>
<path d="M16.9506 7.00031H13.9506C13.2645 7.00029 12.6062 7.27147 12.1191 7.75475C11.6321 8.23802 11.3559 8.89422 11.3506 9.58031V10.8303H12.3506V9.58031C12.3531 9.15393 12.5215 8.74528 12.8202 8.44099C13.1189 8.1367 13.5243 7.9607 13.9506 7.95031H16.9506C17.3829 7.95031 17.7975 8.12204 18.1032 8.42773C18.4089 8.73341 18.5806 9.14801 18.5806 9.58031V10.8303H19.5806V9.58031C19.5793 9.23764 19.51 8.89862 19.3768 8.58291C19.2435 8.26721 19.049 7.98108 18.8044 7.7411C18.5597 7.50113 18.2699 7.31209 17.9517 7.18493C17.6335 7.05777 17.2932 6.99501 16.9506 7.00031Z" fill="#D9113D"/>
<path d="M24.8103 15.0605V22.8505C24.8116 22.9455 24.7939 23.0397 24.7582 23.1277C24.7225 23.2156 24.6695 23.2955 24.6024 23.3627C24.5353 23.4298 24.4554 23.4828 24.3674 23.5185C24.2794 23.5542 24.1852 23.5719 24.0903 23.5705H6.72029C6.62499 23.5733 6.53013 23.5566 6.44153 23.5214C6.35292 23.4862 6.27244 23.4332 6.20503 23.3658C6.13761 23.2984 6.08467 23.2179 6.04947 23.1293C6.01426 23.0407 5.99753 22.9458 6.00029 22.8505V15.0605H24.8103Z" fill="#D9113D"/>
<path d="M17.0607 19.64H13.7507C13.6666 19.6375 13.5866 19.603 13.5272 19.5435C13.4677 19.484 13.4332 19.4041 13.4307 19.32C13.4307 19.2351 13.4644 19.1537 13.5244 19.0937C13.5844 19.0337 13.6658 19 13.7507 19H17.0607C17.1455 19 17.2269 19.0337 17.2869 19.0937C17.347 19.1537 17.3807 19.2351 17.3807 19.32C17.3807 19.4049 17.347 19.4863 17.2869 19.5463C17.2269 19.6063 17.1455 19.64 17.0607 19.64Z" fill="white"/>
<path d="M15.4098 21.2898C15.325 21.2898 15.2436 21.2561 15.1836 21.1961C15.1236 21.1361 15.0898 21.0547 15.0898 20.9698V17.6598C15.0898 17.6178 15.0981 17.5762 15.1142 17.5374C15.1303 17.4986 15.1539 17.4633 15.1836 17.4336C15.2133 17.4039 15.2486 17.3803 15.2874 17.3642C15.3262 17.3481 15.3678 17.3398 15.4098 17.3398C15.4939 17.3424 15.5739 17.3769 15.6333 17.4363C15.6928 17.4958 15.7273 17.5758 15.7298 17.6598V20.9698C15.7298 21.0547 15.6961 21.1361 15.6361 21.1961C15.5761 21.2561 15.4947 21.2898 15.4098 21.2898Z" fill="white"/>
</svg>
