<svg width="30" height="30" viewBox="0 0 30 30" fill="none" xmlns="http://www.w3.org/2000/svg">
<path d="M27.8598 13.4796V15.7796H9.0498V13.4796C9.0498 13.3855 9.06849 13.2924 9.10479 13.2056C9.1411 13.1188 9.19429 13.04 9.26128 12.974C9.32827 12.9079 9.40773 12.8558 9.49503 12.8207C9.58233 12.7857 9.67573 12.7683 9.7698 12.7696H27.1398C27.2339 12.7683 27.3273 12.7857 27.4146 12.8207C27.5019 12.8558 27.5813 12.9079 27.6483 12.974C27.7153 13.04 27.7685 13.1188 27.8048 13.2056C27.8411 13.2924 27.8598 13.3855 27.8598 13.4796Z" fill="#D9113D"/>
<path d="M20.0004 8.93976H17.0004C16.3143 8.93974 15.656 9.21092 15.1689 9.6942C14.6819 10.1775 14.4057 10.8337 14.4004 11.5198V12.7698H15.4004V11.5198C15.4029 11.0934 15.5713 10.6847 15.87 10.3804C16.1687 10.0762 16.5741 9.90016 17.0004 9.88976H20.0004C20.4327 9.88976 20.8473 10.0615 21.153 10.3672C21.4587 10.6729 21.6304 11.0875 21.6304 11.5198V12.7698H22.6304V11.5198C22.6291 11.1771 22.5598 10.8381 22.4266 10.5224C22.2933 10.2067 22.0988 9.92053 21.8542 9.68056C21.6095 9.44058 21.3197 9.25154 21.0015 9.12438C20.6833 8.99722 20.343 8.93447 20.0004 8.93976Z" fill="#D9113D"/>
<path d="M27.8601 17V24.79C27.8614 24.8849 27.8437 24.9792 27.808 25.0671C27.7723 25.1551 27.7193 25.235 27.6522 25.3021C27.5851 25.3692 27.5052 25.4222 27.4172 25.4579C27.3293 25.4936 27.235 25.5113 27.1401 25.51H9.7701C9.6748 25.5128 9.57993 25.496 9.49133 25.4608C9.40273 25.4256 9.32225 25.3727 9.25483 25.3053C9.18741 25.2379 9.13448 25.1574 9.09927 25.0688C9.06407 24.9802 9.04733 24.8853 9.0501 24.79V17H27.8601Z" fill="#D9113D"/>
<path d="M20.1105 21.5795H16.8005C16.7164 21.5769 16.6365 21.5424 16.577 21.4829C16.5175 21.4235 16.483 21.3435 16.4805 21.2595C16.4805 21.1746 16.5142 21.0932 16.5742 21.0332C16.6342 20.9732 16.7156 20.9395 16.8005 20.9395H20.1105C20.1953 20.9395 20.2767 20.9732 20.3367 21.0332C20.3968 21.0932 20.4305 21.1746 20.4305 21.2595C20.4305 21.3443 20.3968 21.4257 20.3367 21.4857C20.2767 21.5457 20.1953 21.5795 20.1105 21.5795Z" fill="white"/>
<path d="M18.4596 23.2293C18.3748 23.2293 18.2934 23.1956 18.2334 23.1356C18.1734 23.0756 18.1396 22.9942 18.1396 22.9093V19.5993C18.1396 19.5573 18.1479 19.5157 18.164 19.4768C18.1801 19.438 18.2037 19.4027 18.2334 19.373C18.2631 19.3433 18.2984 19.3197 18.3372 19.3037C18.376 19.2876 18.4176 19.2793 18.4596 19.2793C18.5437 19.2818 18.6237 19.3163 18.6831 19.3758C18.7426 19.4353 18.7771 19.5152 18.7796 19.5993V22.9093C18.7796 22.9942 18.7459 23.0756 18.6859 23.1356C18.6259 23.1956 18.5445 23.2293 18.4596 23.2293Z" fill="white"/>
<path d="M3.30008 14.0907H2.58008C2.3233 14.091 2.07624 13.9926 1.89008 13.8157C1.70391 13.6388 1.59292 13.3972 1.58008 13.1407V5.1407C1.58008 4.87548 1.68543 4.62113 1.87297 4.43359C2.06051 4.24606 2.31486 4.1407 2.58008 4.1407H14.0801C14.2096 4.13906 14.338 4.16419 14.4573 4.21453C14.5767 4.26486 14.6843 4.33931 14.7735 4.4332C14.8627 4.52709 14.9315 4.6384 14.9757 4.76015C15.0198 4.8819 15.0384 5.01146 15.0301 5.1407V13.1407C15.0314 13.2658 15.0078 13.39 14.9605 13.5058C14.9132 13.6217 14.8433 13.727 14.7548 13.8154C14.6663 13.9039 14.5611 13.9738 14.4452 14.0211C14.3293 14.0684 14.2052 14.092 14.0801 14.0907H6.47008L3.30008 16.7507V14.0907Z" fill="#FF6B97"/>
<path d="M14.0795 4.71945C14.1962 4.71945 14.3081 4.76581 14.3906 4.84833C14.4732 4.93084 14.5195 5.04276 14.5195 5.15945V13.1595C14.5195 13.2168 14.5081 13.2735 14.4859 13.3263C14.4636 13.3792 14.4311 13.427 14.3901 13.4671C14.3491 13.5072 14.3005 13.5386 14.2471 13.5596C14.1938 13.5806 14.1368 13.5908 14.0795 13.5895H6.28952L5.99952 13.8195L3.81951 15.6395V13.5695H2.57951C2.52185 13.5722 2.46423 13.5631 2.41026 13.5426C2.35629 13.5221 2.30712 13.4907 2.26583 13.4503C2.22454 13.41 2.19201 13.3615 2.17028 13.308C2.14855 13.2546 2.13807 13.1972 2.13951 13.1395V5.13945C2.13951 5.02276 2.18587 4.91084 2.26839 4.82833C2.3509 4.74581 2.46282 4.69945 2.57951 4.69945H14.0795V4.71945ZM14.0795 3.69945H2.57951C2.38695 3.69813 2.19602 3.73492 2.01773 3.80771C1.83943 3.88049 1.6773 3.98782 1.54067 4.12353C1.40403 4.25923 1.2956 4.42063 1.2216 4.59842C1.1476 4.77621 1.10951 4.96688 1.10951 5.15945V13.1595C1.10682 13.3532 1.14301 13.5456 1.21593 13.7252C1.28885 13.9047 1.39703 14.0679 1.53407 14.2049C1.67111 14.3419 1.83424 14.4501 2.0138 14.523C2.19337 14.596 2.38573 14.6321 2.57951 14.6295H2.77951V17.8795L6.65951 14.6295H14.0795C14.4694 14.6295 14.8433 14.4746 15.119 14.1989C15.3946 13.9232 15.5495 13.5493 15.5495 13.1595V5.15945C15.5495 4.76958 15.3946 4.39568 15.119 4.12001C14.8433 3.84433 14.4694 3.68945 14.0795 3.68945V3.69945Z" fill="white"/>
<path d="M4.23996 9.69086C4.67074 9.69086 5.01996 9.34164 5.01996 8.91086C5.01996 8.48008 4.67074 8.13086 4.23996 8.13086C3.80918 8.13086 3.45996 8.48008 3.45996 8.91086C3.45996 9.34164 3.80918 9.69086 4.23996 9.69086Z" fill="white"/>
<path d="M8.3298 9.69086C8.76059 9.69086 9.1098 9.34164 9.1098 8.91086C9.1098 8.48008 8.76059 8.13086 8.3298 8.13086C7.89902 8.13086 7.5498 8.48008 7.5498 8.91086C7.5498 9.34164 7.89902 9.69086 8.3298 9.69086Z" fill="white"/>
<path d="M12.2097 9.69086C12.6405 9.69086 12.9897 9.34164 12.9897 8.91086C12.9897 8.48008 12.6405 8.13086 12.2097 8.13086C11.7789 8.13086 11.4297 8.48008 11.4297 8.91086C11.4297 9.34164 11.7789 9.69086 12.2097 9.69086Z" fill="white"/>
</svg>
