<svg width="30" height="30" viewBox="0 0 30 30" fill="none" xmlns="http://www.w3.org/2000/svg">
<path fill-rule="evenodd" clip-rule="evenodd" d="M15.3 6V10.4V10.5C15.3 10.9 15.3 11.3 15.3 11.7C15.3 12 15.5 12.5 15.8 12.8C16.2 13.2 16.6 13.3 17 13.4C17.3 13.4 17.8 13.4 18.2 13.4H18.3H22.7V18.8C22.7 21.4 22.7 22.7 21.9 23.5C21.1 24.3 19.8 24.3 17.2 24.3H13.5C10.9 24.3 9.6 24.3 8.8 23.5C8 22.7 8 21.4 8 18.8V11.5C8 8.9 8 7.6 8.8 6.8C9.6 6 10.9 6 13.5 6H15.3ZM11.6 16.1C11.6 15.5 12 15.1 12.6 15.1H18.1C18.7 15.1 19.1 15.5 19.1 16.1C19.1 16.7 18.7 17.1 18.1 17.1H12.6C12 17.1 11.6 16.6 11.6 16.1ZM12.6 18.8C12 18.8 11.6 19.2 11.6 19.8C11.6 20.4 12 20.8 12.6 20.8H16.3C16.9 20.8 17.3 20.4 17.3 19.8C17.3 19.2 16.9 18.8 16.3 18.8H12.6Z" fill="#D9113D"/>
<path fill-rule="evenodd" clip-rule="evenodd" d="M17.2998 6V10.4C17.2998 10.9 17.2998 11.2 17.2998 11.4C17.4998 11.4 17.7998 11.4 18.2998 11.4H22.6998C22.6998 11.1 22.6998 10.8 22.5998 10.6C22.4998 10.3 22.1998 10 21.6998 9.5L19.2998 7.1C18.7998 6.6 18.4998 6.3 18.1998 6.2C17.7998 6.1 17.5998 6 17.2998 6Z" fill="#FF6B97"/>
</svg>
