<svg width="36" height="36" viewBox="0 0 36 36" fill="none" xmlns="http://www.w3.org/2000/svg">
<circle cx="18" cy="18" r="18" fill="#DADADA"/>
<path d="M22.74 21.54C22.74 22.2333 22.5733 22.88 22.24 23.48C21.9067 24.0667 21.4 24.54 20.72 24.9C20.04 25.26 19.2067 25.44 18.22 25.44C17.26 25.44 16.4 25.2733 15.64 24.94C14.88 24.5933 14.2733 24.1133 13.82 23.5C13.3667 22.8867 13.1067 22.18 13.04 21.38H15.48C15.5467 21.9933 15.8067 22.52 16.26 22.96C16.7267 23.4 17.3467 23.62 18.12 23.62C18.8133 23.62 19.3467 23.4333 19.72 23.06C20.1067 22.6867 20.3 22.2067 20.3 21.62C20.3 21.1133 20.16 20.7 19.88 20.38C19.6 20.0467 19.2533 19.7867 18.84 19.6C18.4267 19.4133 17.86 19.2 17.14 18.96C16.26 18.68 15.54 18.4 14.98 18.12C14.4333 17.84 13.9667 17.4333 13.58 16.9C13.1933 16.3667 13 15.6667 13 14.8C13 14.04 13.1867 13.3733 13.56 12.8C13.9333 12.2267 14.4667 11.7867 15.16 11.48C15.8533 11.16 16.6533 11 17.56 11C19 11 20.14 11.3467 20.98 12.04C21.8333 12.7333 22.32 13.64 22.44 14.76H19.98C19.8867 14.2267 19.6333 13.7733 19.22 13.4C18.82 13.0133 18.2667 12.82 17.56 12.82C16.92 12.82 16.4067 12.9867 16.02 13.32C15.6333 13.64 15.44 14.1067 15.44 14.72C15.44 15.2 15.5733 15.6 15.84 15.92C16.1067 16.2267 16.44 16.4733 16.84 16.66C17.2533 16.8333 17.8133 17.04 18.52 17.28C19.4133 17.56 20.14 17.8467 20.7 18.14C21.2733 18.42 21.7533 18.8333 22.14 19.38C22.54 19.9267 22.74 20.6467 22.74 21.54Z" fill="#6E6D7A"/>
</svg>
