<svg width="24" height="25" viewBox="0 0 24 25" fill="none" xmlns="http://www.w3.org/2000/svg">
<path fill-rule="evenodd" clip-rule="evenodd" d="M13.9838 3.52013C14.0711 3.68944 14.0928 3.90628 14.1361 4.33995C14.2182 5.16082 14.2593 5.57125 14.4311 5.79644C14.649 6.0821 15.0034 6.2289 15.3595 6.18099C15.6402 6.14323 15.9594 5.88204 16.5979 5.35965C16.9352 5.08366 17.1038 4.94567 17.2853 4.8877C17.5158 4.81406 17.7652 4.8265 17.9872 4.92271C18.162 4.99845 18.3161 5.15254 18.6243 5.46071L19.5178 6.35418C19.8259 6.66237 19.98 6.81646 20.0558 6.99127C20.152 7.21329 20.1644 7.46267 20.0908 7.69316C20.0328 7.87464 19.8948 8.0433 19.6188 8.38062C19.0964 9.01911 18.8352 9.33836 18.7975 9.61907C18.7496 9.97514 18.8964 10.3295 19.182 10.5474C19.4072 10.7192 19.8176 10.7603 20.6385 10.8424C21.0722 10.8857 21.2891 10.9074 21.4584 10.9948C21.6734 11.1057 21.841 11.2908 21.9299 11.5158C22 11.693 22 11.9109 22 12.3468V13.6104C22 14.0461 22 14.264 21.93 14.4411C21.841 14.6662 21.6734 14.8514 21.4583 14.9623C21.289 15.0496 21.0722 15.0713 20.6386 15.1147L20.6386 15.1147C19.818 15.1967 19.4077 15.2377 19.1825 15.4094C18.8967 15.6274 18.7499 15.9819 18.7979 16.3381C18.8357 16.6187 19.0968 16.9378 19.619 17.5761C19.8949 17.9133 20.0328 18.0819 20.0908 18.2633C20.1645 18.4939 20.152 18.7434 20.0558 18.9654C19.98 19.1402 19.826 19.2942 19.5179 19.6023L18.6243 20.4959C18.3162 20.804 18.1621 20.9581 17.9873 21.0339C17.7652 21.1301 17.5159 21.1425 17.2854 21.0689C17.1039 21.0109 16.9352 20.8729 16.5979 20.5969L16.5979 20.5969C15.9594 20.0745 15.6402 19.8134 15.3595 19.7756C15.0034 19.7277 14.649 19.8745 14.4311 20.1601C14.2593 20.3853 14.2183 20.7958 14.1362 21.6168C14.0928 22.0507 14.0711 22.2676 13.9837 22.437C13.8728 22.652 13.6877 22.8195 13.4628 22.9084C13.2856 22.9785 13.0676 22.9785 12.6316 22.9785H11.3682C10.9324 22.9785 10.7145 22.9785 10.5373 22.9085C10.3123 22.8195 10.1272 22.652 10.0162 22.4369C9.92891 22.2676 9.90722 22.0508 9.86385 21.6171C9.78176 20.7962 9.74072 20.3857 9.56892 20.1605C9.35101 19.8749 8.99663 19.7281 8.64057 19.776C8.35985 19.8137 8.04059 20.0749 7.40208 20.5974L7.40206 20.5974C7.06473 20.8734 6.89607 21.0114 6.71458 21.0694C6.4841 21.143 6.23474 21.1305 6.01272 21.0343C5.8379 20.9586 5.6838 20.8045 5.37561 20.4963L4.48217 19.6029C4.17398 19.2947 4.01988 19.1406 3.94414 18.9658C3.84794 18.7437 3.8355 18.4944 3.90913 18.2639C3.96711 18.0824 4.10511 17.9137 4.3811 17.5764C4.90351 16.9379 5.16471 16.6187 5.20247 16.338C5.25037 15.9819 5.10357 15.6275 4.81792 15.4096C4.59273 15.2378 4.1823 15.1967 3.36143 15.1147C2.92776 15.0713 2.71093 15.0496 2.54161 14.9623C2.32656 14.8514 2.15902 14.6662 2.07005 14.4412C2 14.264 2 14.0461 2 13.6103V12.3469C2 11.9109 2 11.6929 2.07008 11.5157C2.15905 11.2908 2.32654 11.1057 2.54152 10.9948C2.71088 10.9074 2.92777 10.8857 3.36155 10.8424H3.36155H3.36156C4.18264 10.7603 4.59319 10.7192 4.81842 10.5473C5.10395 10.3294 5.2507 9.97515 5.20287 9.61918C5.16514 9.33839 4.90385 9.01904 4.38128 8.38033C4.10516 8.04286 3.96711 7.87413 3.90914 7.69257C3.83557 7.46216 3.848 7.21289 3.94413 6.99095C4.01988 6.81606 4.17403 6.66191 4.48233 6.3536L5.37565 5.46028L5.37566 5.46028C5.68385 5.15209 5.83795 4.99799 6.01277 4.92224C6.23478 4.82605 6.48414 4.81361 6.71463 4.88724C6.89612 4.94521 7.06481 5.08323 7.4022 5.35928C8.04061 5.88162 8.35982 6.14279 8.64044 6.18058C8.99661 6.22855 9.35113 6.0817 9.56907 5.79593C9.74077 5.57078 9.78181 5.16046 9.86387 4.33982C9.90722 3.90627 9.9289 3.6895 10.0162 3.52022C10.1271 3.30509 10.3123 3.1375 10.5374 3.04852C10.7145 2.97852 10.9324 2.97852 11.3681 2.97852H12.6318C13.0676 2.97852 13.2855 2.97852 13.4627 3.04856C13.6877 3.13753 13.8728 3.30507 13.9838 3.52013ZM12 16.9785C14.2091 16.9785 16 15.1877 16 12.9785C16 10.7694 14.2091 8.97852 12 8.97852C9.79086 8.97852 8 10.7694 8 12.9785C8 15.1877 9.79086 16.9785 12 16.9785Z" fill="#3D3D4E"/>
</svg>
