<svg width="30" height="30" viewBox="0 0 30 30" fill="none" xmlns="http://www.w3.org/2000/svg">
<path d="M9.99988 23.5H18.1499C18.8196 23.5 19.4828 23.632 20.1016 23.8883C20.7203 24.1446 21.2825 24.5202 21.7561 24.9938C22.2297 25.4674 22.6054 26.0296 22.8617 26.6484C23.118 27.2671 23.2499 27.9303 23.2499 28.6H4.87988C4.87988 27.9286 5.01245 27.2638 5.27 26.6437C5.52755 26.0237 5.905 25.4605 6.3807 24.9867C6.8564 24.5129 7.42098 24.1376 8.04206 23.8825C8.66313 23.6274 9.32846 23.4974 9.99988 23.5Z" fill="#D9113D" stroke="white" stroke-width="0.76" stroke-miterlimit="10"/>
<path d="M16.1 3.89984H15.6C15.236 3.34352 14.7391 2.88669 14.1542 2.57066C13.5693 2.25464 12.9148 2.08938 12.25 2.08984C10.3263 2.09249 8.48222 2.85855 7.12287 4.21978C5.76352 5.58101 5 7.42611 5 9.34985H20.19V7.99985C20.19 6.91419 19.7594 5.87285 18.9927 5.10424C18.2259 4.33562 17.1857 3.90249 16.1 3.89984Z" fill="#D9113D" stroke="white" stroke-width="0.76" stroke-miterlimit="10"/>
<path d="M11.8896 21.5293H16.5096V23.8393C16.5096 24.4519 16.2663 25.0395 15.8331 25.4727C15.3999 25.9059 14.8123 26.1493 14.1996 26.1493C13.587 26.1493 12.9994 25.9059 12.5662 25.4727C12.133 25.0395 11.8896 24.4519 11.8896 23.8393V21.5293Z" fill="#FF6B97" stroke="white" stroke-width="0.76" stroke-miterlimit="10"/>
<path d="M4.07028 11.7305C4.07028 11.7305 2.30028 12.5605 3.30028 13.7305C3.50619 13.9104 3.66565 14.1374 3.76514 14.3921C3.86462 14.6468 3.9012 14.9217 3.87175 15.1936C3.84231 15.4655 3.74772 15.7262 3.59601 15.9537C3.44429 16.1812 3.23994 16.3688 3.00028 16.5005" stroke="#D9113D" stroke-width="0.76" stroke-linecap="round" stroke-linejoin="round"/>
<path d="M5.99986 17.5391C5.99986 17.5391 4.23986 18.3591 5.22986 19.5391C5.42753 19.7185 5.57988 19.9423 5.6744 20.192C5.76893 20.4417 5.80295 20.7102 5.77368 20.9756C5.74441 21.241 5.65268 21.4956 5.50601 21.7187C5.35934 21.9418 5.16189 22.127 4.92986 22.2591" stroke="#D9113D" stroke-width="0.76" stroke-linecap="round" stroke-linejoin="round"/>
<path d="M2.99986 22C2.99986 22 1.23986 22.82 2.22986 24C2.42755 24.1805 2.57983 24.4051 2.6743 24.6555C2.76878 24.9059 2.80279 25.1752 2.77355 25.4412C2.74431 25.7073 2.65265 25.9627 2.50605 26.1867C2.35944 26.4106 2.16202 26.5968 1.92986 26.73" stroke="#D9113D" stroke-width="0.76" stroke-linecap="round" stroke-linejoin="round"/>
<path d="M27.1704 19.6702V10.8002C27.1704 10.2539 26.9533 9.72992 26.567 9.34359C26.1807 8.95727 25.6567 8.74023 25.1104 8.74023C24.564 8.74023 24.04 8.95727 23.6537 9.34359C23.2674 9.72992 23.0504 10.2539 23.0504 10.8002V19.6702C22.6137 20.0827 22.3109 20.6167 22.1812 21.2031C22.0514 21.7896 22.1007 22.4015 22.3226 22.9596C22.5446 23.5177 22.9289 23.9964 23.4259 24.3336C23.9229 24.6709 24.5097 24.8512 25.1104 24.8512C25.711 24.8512 26.2978 24.6709 26.7948 24.3336C27.2918 23.9964 27.6762 23.5177 27.8981 22.9596C28.12 22.4015 28.1693 21.7896 28.0395 21.2031C27.9098 20.6167 27.607 20.0827 27.1704 19.6702Z" fill="#D9113D" stroke="white" stroke-width="0.76" stroke-miterlimit="10"/>
<path d="M25.4803 21.0001V12.3301H24.8303V21.0001C24.6005 21.0669 24.3985 21.2062 24.2543 21.3972C24.1101 21.5883 24.0316 21.8208 24.0303 22.0601C24.0284 22.2678 24.0843 22.4719 24.1917 22.6497C24.2992 22.8274 24.4539 22.9718 24.6387 23.0667C24.8235 23.1616 25.031 23.2032 25.238 23.1869C25.4451 23.1706 25.6436 23.0971 25.8112 22.9745C25.9789 22.8519 26.1092 22.6851 26.1876 22.4928C26.2659 22.3004 26.2892 22.0901 26.2549 21.8852C26.2205 21.6804 26.1299 21.4891 25.9931 21.3328C25.8564 21.1765 25.6788 21.0613 25.4803 21.0001Z" fill="white"/>
<path d="M17.0002 1.90039C17.0002 1.90039 13.5002 6.16039 15.8702 7.66039C16.206 7.87066 16.5941 7.98218 16.9902 7.98218C17.3864 7.98218 17.7745 7.87066 18.1102 7.66039C20.4802 6.16039 17.0002 1.90039 17.0002 1.90039Z" fill="#FF6B97" stroke="white" stroke-width="0.76" stroke-miterlimit="10"/>
<path d="M8.05957 9.34961H20.1896V15.8896C20.1962 16.6896 20.0443 17.483 19.7427 18.224C19.4411 18.965 18.9958 19.639 18.4324 20.207C17.869 20.7751 17.1987 21.2259 16.4602 21.5336C15.7217 21.8412 14.9296 21.9996 14.1296 21.9996C12.5224 21.9996 10.981 21.3611 9.8445 20.2247C8.70803 19.0882 8.06957 17.5468 8.06957 15.9396V9.34961H8.05957Z" fill="#FF6B97" stroke="white" stroke-width="0.76" stroke-miterlimit="10"/>
<path d="M20.1897 11.3105C20.4287 11.3119 20.6651 11.3602 20.8854 11.4529C21.1057 11.5456 21.3056 11.6807 21.4737 11.8507C21.6418 12.0206 21.7747 12.222 21.865 12.4433C21.9552 12.6646 22.001 12.9015 21.9997 13.1405V13.7205C21.9997 14.2032 21.8079 14.6662 21.4666 15.0075C21.1253 15.3488 20.6624 15.5405 20.1797 15.5405V11.3105H20.1897Z" fill="#FF6B97" stroke="white" stroke-width="0.76" stroke-miterlimit="10"/>
<path d="M8.05957 15.5508C7.57688 15.5508 7.11395 15.359 6.77264 15.0177C6.43132 14.6764 6.23957 14.2135 6.23957 13.7308V13.1508C6.23957 12.6681 6.43132 12.2052 6.77264 11.8638C7.11395 11.5225 7.57688 11.3308 8.05957 11.3308V15.5508Z" fill="#FF6B97" stroke="white" stroke-width="0.76" stroke-miterlimit="10"/>
<path d="M17.5999 11.5098L15.6299 13.4298L17.5999 14.9498" stroke="white" stroke-width="0.47" stroke-miterlimit="10" stroke-linecap="round"/>
<path d="M10.4404 11.5098L12.4004 13.4298L10.4404 14.9498" stroke="white" stroke-width="0.47" stroke-miterlimit="10" stroke-linecap="round"/>
<path d="M14.1404 16.5396C14.7929 16.5422 15.4181 16.8019 15.8805 17.2624C16.3429 17.7229 16.6051 18.347 16.6104 18.9996V19.1696H11.6104V18.9996C11.6129 18.6713 11.6806 18.3469 11.8096 18.045C11.9385 17.7431 12.1261 17.4698 12.3614 17.241C12.5968 17.0122 12.8752 16.8323 13.1806 16.7119C13.4859 16.5915 13.8122 16.5329 14.1404 16.5396Z" stroke="white" stroke-width="0.47" stroke-miterlimit="10" stroke-linecap="round"/>
</svg>
