<svg width="22" height="22" viewBox="0 0 22 22" fill="none" xmlns="http://www.w3.org/2000/svg">
<path fill-rule="evenodd" clip-rule="evenodd" d="M11 19.25C15.5563 19.25 19.25 15.5563 19.25 11C19.25 6.44365 15.5563 2.75 11 2.75C6.44365 2.75 2.75 6.44365 2.75 11C2.75 15.5563 6.44365 19.25 11 19.25ZM12 5.95833C12 5.40605 11.5523 4.95833 11 4.95833C10.4477 4.95833 10 5.40605 10 5.95833V10.75C10 11.4404 10.5596 12 11.25 12H14.2083C14.7606 12 15.2083 11.5523 15.2083 11C15.2083 10.4477 14.7606 10 14.2083 10H12V5.95833Z" fill="#3D3D4E"/>
</svg>
