<svg width="22" height="23" viewBox="0 0 22 23" fill="none" xmlns="http://www.w3.org/2000/svg">
<path d="M14.2727 11.1214C15.6309 11.1214 16.7191 9.9728 16.7191 8.54994C16.7191 7.12709 15.6309 5.97852 14.2727 5.97852C12.9145 5.97852 11.8182 7.12709 11.8182 8.54994C11.8182 9.9728 12.9145 11.1214 14.2727 11.1214ZM7.72727 11.1214C9.08545 11.1214 10.1736 9.9728 10.1736 8.54994C10.1736 7.12709 9.08545 5.97852 7.72727 5.97852C6.36909 5.97852 5.27273 7.12709 5.27273 8.54994C5.27273 9.9728 6.36909 11.1214 7.72727 11.1214ZM7.72727 12.8357C5.82091 12.8357 2 13.8385 2 15.8357V17.9785H13.4545V15.8357C13.4545 13.8385 9.63364 12.8357 7.72727 12.8357ZM14.2727 12.8357C14.0355 12.8357 13.7655 12.8528 13.4791 12.8785C14.4282 13.5985 15.0909 14.5671 15.0909 15.8357V17.9785H20V15.8357C20 13.8385 16.1791 12.8357 14.2727 12.8357Z" fill="#3D3D4E"/>
</svg>
