<svg width="30" height="30" viewBox="0 0 30 30" fill="none" xmlns="http://www.w3.org/2000/svg">
<path d="M11.8602 10.8093C11.8562 11.6065 11.6008 12.3822 11.1305 13.0259C10.6601 13.6696 9.99879 14.1487 9.24049 14.3948C8.48219 14.641 7.66558 14.6417 6.90682 14.397C6.14807 14.1523 5.48581 13.6745 5.01427 13.0316C4.54272 12.3888 4.28591 11.6136 4.28037 10.8164C4.27482 10.0191 4.52082 9.24045 4.98337 8.5911C5.44593 7.94175 6.10147 7.4548 6.85675 7.19953C7.61203 6.94426 8.42858 6.93366 9.19022 7.16925C9.96509 7.41223 10.6421 7.89644 11.1224 8.55124C11.6027 9.20604 11.8612 9.99718 11.8602 10.8093Z" fill="#FF6B97"/>
<path d="M14.3797 25.2394H1.71973L2.71973 18.6094C2.71973 17.5485 3.14115 16.5311 3.8913 15.7809C4.64144 15.0308 5.65886 14.6094 6.71973 14.6094H9.39973C10.4606 14.6094 11.478 15.0308 12.2282 15.7809C12.9783 16.5311 13.3997 17.5485 13.3997 18.6094L14.3797 25.2394Z" fill="#FF6B97"/>
<path d="M26.5196 25.3792H10.0996L10.6496 20.9992L10.8496 19.3992C10.8015 18.1326 11.118 16.8789 11.7615 15.787C12.4049 14.695 13.3483 13.8107 14.4796 13.2392C17.7796 11.4792 22.0796 12.7792 22.9196 13.6492C23.8152 14.3054 24.5392 15.168 25.0301 16.1638C25.521 17.1596 25.7644 18.2592 25.7396 19.3692L25.9996 20.9992L26.5196 25.3792Z" fill="white"/>
<path d="M23.7601 16.9997C23.764 16.8839 23.8019 16.7719 23.8691 16.6775C23.9363 16.5832 24.0297 16.5107 24.1378 16.4691C24.2459 16.4275 24.3639 16.4186 24.477 16.4436C24.5901 16.4685 24.6933 16.5263 24.7739 16.6095C24.8544 16.6928 24.9086 16.7979 24.9298 16.9117C24.951 17.0256 24.9382 17.1432 24.893 17.2498C24.8478 17.3565 24.7723 17.4475 24.6757 17.5115C24.5792 17.5755 24.4659 17.6096 24.3501 17.6097C24.2709 17.6097 24.1925 17.5938 24.1196 17.5629C24.0467 17.532 23.9807 17.4868 23.9257 17.4299C23.8706 17.3729 23.8276 17.3055 23.7991 17.2316C23.7707 17.1577 23.7574 17.0788 23.7601 16.9997Z" fill="#D9113D"/>
<path d="M23.8602 8.87917C23.863 9.73951 23.5938 10.5787 23.091 11.2769C22.5882 11.975 21.8775 12.4963 21.0607 12.7664C20.2438 13.0364 19.3625 13.0412 18.5426 12.7803C17.7228 12.5193 17.0065 12.0059 16.496 11.3133C15.9855 10.6208 15.707 9.7846 15.7003 8.92427C15.6936 8.06395 15.9591 7.22352 16.4587 6.52312C16.9583 5.82271 17.6666 5.29817 18.4822 5.02447C19.2979 4.75076 20.1792 4.74191 21.0002 4.99917C21.8247 5.26237 22.5451 5.77917 23.0587 6.47589C23.5722 7.1726 23.8527 8.01366 23.8602 8.87917Z" fill="#D9113D"/>
<path d="M27.3398 20.3703L27.1498 19.0003C27.1458 17.8723 26.7981 16.7724 26.1532 15.847C25.5083 14.9215 24.5967 14.2146 23.5398 13.8203C23.6994 13.9533 23.8498 14.0969 23.9898 14.2503C24.3398 14.6405 24.5599 15.1297 24.6198 15.6503C24.6198 15.7203 24.6198 15.7503 24.7098 15.7903C25.0045 15.875 25.2589 16.0625 25.4269 16.3189C25.5949 16.5753 25.6654 16.8835 25.6254 17.1874C25.5855 17.4913 25.4378 17.7708 25.2092 17.975C24.9806 18.1793 24.6863 18.2947 24.3798 18.3003C24.1091 18.312 23.8418 18.2367 23.6169 18.0856C23.392 17.9345 23.2213 17.7154 23.1298 17.4603C23.0399 17.2075 23.0311 16.9329 23.1046 16.6747C23.178 16.4166 23.3302 16.1879 23.5398 16.0203C23.6898 15.9103 23.8598 15.8403 24.0298 15.7303C23.9871 15.3797 23.8552 15.0458 23.6469 14.7605C23.4386 14.4752 23.1608 14.2479 22.8398 14.1003C22.8092 14.0783 22.7725 14.0665 22.7348 14.0665C22.6972 14.0665 22.6604 14.0783 22.6298 14.1003C21.7298 14.9603 20.8198 15.8003 19.8998 16.6603C19.8998 16.6603 19.8998 16.7203 19.8098 16.7503L19.7198 16.6603L16.9298 14.0503C16.907 14.0325 16.8788 14.0228 16.8498 14.0228C16.8209 14.0228 16.7927 14.0325 16.7698 14.0503C16.4042 14.1937 16.0868 14.4381 15.8548 14.755C15.6229 15.072 15.4859 15.4484 15.4598 15.8403C15.4493 15.8529 15.4435 15.8689 15.4435 15.8853C15.4435 15.9018 15.4493 15.9177 15.4598 15.9303C15.6186 16.1024 15.7926 16.2597 15.9798 16.4003C16.342 16.6745 16.6193 17.0454 16.7798 17.4703C16.7895 17.55 16.7895 17.6306 16.7798 17.7103V17.8103C16.9854 18.3728 17.0639 18.9739 17.0098 19.5703C17.0159 19.7773 16.9405 19.9784 16.7998 20.1303C16.6348 20.2911 16.4194 20.39 16.1898 20.4103C16.0413 20.4402 15.8884 20.4402 15.7398 20.4103C15.6869 20.4191 15.6326 20.4163 15.5808 20.402C15.529 20.3877 15.481 20.3623 15.44 20.3276C15.399 20.2928 15.3661 20.2496 15.3435 20.2008C15.3209 20.1521 15.3092 20.099 15.3092 20.0453C15.3092 19.9916 15.3209 19.9385 15.3435 19.8898C15.3661 19.841 15.399 19.7978 15.44 19.7631C15.481 19.7283 15.529 19.7029 15.5808 19.6886C15.6326 19.6744 15.6869 19.6715 15.7398 19.6803H16.1998C16.3098 19.6803 16.3298 19.6803 16.3298 19.5703C16.3798 19.269 16.3798 18.9616 16.3298 18.6603C16.3262 18.368 16.216 18.0871 16.0198 17.8703C15.9498 17.8103 15.9398 17.7203 15.8798 17.6303C15.7579 17.391 15.5794 17.185 15.3598 17.0303C15.2838 16.9765 15.193 16.9476 15.0998 16.9476C15.0067 16.9476 14.9159 16.9765 14.8398 17.0303L14.6998 17.1303C14.496 17.3325 14.33 17.5695 14.2098 17.8303C14.1666 17.8993 14.1198 17.966 14.0698 18.0303C14.0369 18.0645 14.0068 18.1013 13.9798 18.1403C13.874 18.4224 13.8133 18.7194 13.7998 19.0203C13.7998 19.2103 13.7998 19.4103 13.7998 19.6103C13.7998 19.8103 13.7998 19.7003 13.8698 19.7003C14.0564 19.69 14.2433 19.69 14.4298 19.7003C14.4625 19.6909 14.4972 19.6909 14.5298 19.7003C14.6081 19.7232 14.6759 19.7727 14.7215 19.8403C14.7672 19.9078 14.7878 19.9892 14.7798 20.0703C14.78 20.1176 14.7703 20.1644 14.7514 20.2077C14.7325 20.2511 14.7047 20.29 14.6699 20.322C14.6351 20.354 14.594 20.3784 14.5492 20.3936C14.5044 20.4088 14.4569 20.4145 14.4098 20.4103C14.1841 20.4316 13.9563 20.4078 13.7398 20.3403C13.5727 20.305 13.4221 20.2151 13.3116 20.0847C13.2012 19.9544 13.1372 19.791 13.1298 19.6203C13.0573 19.0212 13.1329 18.4134 13.3498 17.8503C13.3477 17.8204 13.3477 17.7903 13.3498 17.7603C13.3146 17.6497 13.3146 17.5309 13.3498 17.4203C13.4398 17.2803 13.5098 17.1303 13.5998 16.9903C13.7765 16.7186 14.0082 16.487 14.2798 16.3103C14.3541 16.2665 14.416 16.2046 14.4598 16.1303C14.5198 16.0603 14.5898 16.0003 14.6398 15.9503C14.6506 15.9213 14.6506 15.8894 14.6398 15.8603C14.6675 15.4683 14.7791 15.0868 14.9672 14.7417C15.1552 14.3966 15.4154 14.096 15.7298 13.8603C14.7181 14.2834 13.8554 14.9983 13.2516 15.9137C12.6478 16.8292 12.3304 17.9037 12.3398 19.0003L12.1398 20.3403L11.5898 24.0003H27.8898L27.3398 20.3703ZM23.5098 20.0003C23.5098 20.1203 23.4498 20.1603 23.3398 20.1603H22.6098V20.7703C22.6098 21.0503 22.6098 21.0503 22.3398 21.0503H21.7698C21.6598 21.0503 21.6198 21.0003 21.6098 20.8903V20.1603H20.8898C20.7598 20.1603 20.7298 20.1603 20.7298 20.0003V19.3303C20.7298 19.2203 20.7298 19.1703 20.8698 19.1703H21.6098V18.4403C21.6098 18.3303 21.6598 18.2703 21.7898 18.2703H22.4498C22.5598 18.2703 22.6098 18.3303 22.6098 18.4403V19.1703H23.3098C23.4698 19.1703 23.5098 19.1703 23.5098 19.3703V20.0003Z" fill="#D9113D"/>
</svg>
